<?xml version="1.0" encoding="UTF-8"?>
<svg width="128px" height="108px" viewBox="0 0 128 108" version="1.1" xmlns="http://www.w3.org/2000/svg" xmlns:xlink="http://www.w3.org/1999/xlink">
    <title>Page 1</title>
    <defs>
        <polygon id="path-1" points="7.35522754e-16 0 20.9773328 0 20.9773328 25.7509 7.35522754e-16 25.7509"></polygon>
    </defs>
    <g id="Page-1" stroke="none" stroke-width="1" fill="none" fill-rule="evenodd">
        <g transform="translate(0.088867, -0.000244)">
            <path d="M27.7920328,35.8598441 C27.7920328,64.5476441 34.9639328,71.7195441 63.6518328,71.7195441 C92.3396328,71.7195441 99.5115328,64.5476441 99.5115328,35.8598441 C99.5115328,7.17195414 92.3396328,0 63.6518328,0 C34.9639328,0 27.7920328,7.17195414 27.7920328,35.8598441 Z" id="Path" fill="#8247E5" fill-rule="nonzero"></path>
            <path d="M82.9333328,34.4949441 C82.9665328,34.7147441 82.9424328,34.9393441 82.8633328,35.1471441 L81.2243328,39.0757441 C81.0628328,39.5000441 80.6903328,39.8083441 80.2431328,39.8879441 L75.5867328,40.7163441 C74.8842328,40.8413441 74.2133328,40.3734441 74.0882328,39.6712441 C74.0608328,39.5173441 74.0616328,39.3596441 74.0905328,39.2060441 L74.8327328,35.2660441 C74.9343328,34.7264441 75.3662328,34.3101441 75.9094328,34.2280441 L81.4627328,33.4110441 C82.1682328,33.3044441 82.8267328,33.7897441 82.9333328,34.4949441 Z M79.5746328,35.8705441 L77.2107328,36.2200441 C77.0292328,36.2468441 76.8847328,36.3858441 76.8507328,36.5660441 L76.6247328,37.7663441 C76.5807328,37.9998441 76.7344328,38.2248441 76.9679328,38.2688441 C77.0191328,38.2784441 77.0716328,38.2787441 77.1229328,38.2696441 L79.2250328,37.8956441 C79.3695328,37.8699441 79.4909328,37.7724441 79.5471328,37.6369441 L80.0350328,36.4611441 C80.1261328,36.2416441 80.0220328,35.9898441 79.8024328,35.8987441 C79.7305328,35.8688441 79.6517328,35.8591441 79.5746328,35.8705441 Z M86.2628328,26.2892441 C86.2890328,26.4985441 86.2634328,26.7110441 86.1884328,26.9082441 L84.6093328,30.8691441 C84.4421328,31.3083441 84.0494328,31.6221441 83.5840328,31.6884441 L77.1808328,32.6109441 C76.4744328,32.7116441 75.8200328,32.2208441 75.7193328,31.5147441 C75.6994328,31.3748441 75.7025328,31.2325441 75.7287328,31.0936441 L76.4784328,27.1122441 C76.5823328,26.5605441 77.0309328,26.1391441 77.5882328,26.0696441 L84.8207328,25.1676441 C85.5288328,25.0793441 86.1745328,25.5815441 86.2628328,26.2892441 Z M82.2157328,27.5720441 L78.0728328,28.0887441 C77.8872328,28.1119441 77.7378328,28.2523441 77.7032328,28.4361441 L77.4616328,29.7188441 C77.4177328,29.9524441 77.5713328,30.1773441 77.8049328,30.2213441 C77.8515328,30.2301441 77.8992328,30.2311441 77.9461328,30.2243441 L81.8175328,29.6644441 C81.9678328,29.6426441 82.0955328,29.5433441 82.1535328,29.4031441 L82.6666328,28.1636441 C82.7575328,27.9440441 82.6531328,27.6923441 82.4336328,27.6014441 C82.3647328,27.5729441 82.2897328,27.5628441 82.2157328,27.5720441 Z M90.4697328,16.0770441 C90.4893328,16.3306441 90.4523328,16.5854441 90.3616328,16.8230441 L88.1438328,22.3815441 C87.9174328,22.9745441 87.3830328,23.3948441 86.7531328,23.4755441 L75.1321328,24.9634441 C74.1883328,25.0843441 73.3253328,24.4176441 73.2044328,23.4744441 C73.1823328,23.3025441 73.1864328,23.1282441 73.2164328,22.9576441 L74.4842328,16.8775441 C74.6204328,16.1030441 75.2643328,15.5191441 76.0488328,15.4587441 L88.6199328,14.4923441 C89.5686328,14.4194441 90.3968328,15.1289441 90.4697328,16.0770441 Z M85.5077328,17.7522441 L76.6265328,18.4849441 L75.9639328,21.8943441 L84.7135328,20.6869441 C85.0126328,20.6457441 85.2681328,20.4507441 85.3870328,20.1732441 L86.0823328,18.5499441 C86.2070328,18.2587441 86.0720328,17.9214441 85.7808328,17.7966441 C85.6947328,17.7598441 85.6010328,17.7445441 85.5077328,17.7522441 Z" id="Shape" fill="#FFC55A" fill-rule="nonzero"></path>
            <path d="M59.2010328,18.5039441 L51.9034328,18.5039441 C50.0675328,18.5039441 48.4962328,19.8214441 48.1762328,21.6293441 L43.2700328,49.3449441 C42.9056328,51.4034441 44.2789328,53.3676441 46.3374328,53.7320441 C46.5552328,53.7705441 46.7760328,53.7899441 46.9972328,53.7899441 L54.2939328,53.7899441 L54.3489328,53.7895441 C56.1607328,53.7635441 57.7035328,52.4551441 58.0209328,50.6659441 L59.3396328,43.2328441 L61.8018328,43.2328441 L60.7177328,49.3435441 C60.3525328,51.4019441 61.7251328,53.3665441 63.7835328,53.7317441 C64.0018328,53.7704441 64.2230328,53.7899441 64.4447328,53.7899441 L71.7418328,53.7899441 C73.5778328,53.7899441 75.1490328,52.4724441 75.4690328,50.6645441 L80.3753328,22.9489441 C80.7397328,20.8904441 79.3663328,18.9263441 77.3078328,18.5618441 C77.0900328,18.5233441 76.8692328,18.5039441 76.6480328,18.5039441 L69.3516328,18.5039441 L69.2967328,18.5043441 C67.4862328,18.5302441 65.9440328,19.8370441 65.6253328,21.6246441 L64.3470328,28.7932441 L61.8861328,28.7932441 L62.9274328,22.9536441 C63.2944328,20.8956441 61.9236328,18.9297441 59.8655328,18.5627441 C59.6462328,18.5236441 59.4238328,18.5039441 59.2010328,18.5039441 Z M59.2010328,20.3686441 C59.3141328,20.3686441 59.4269328,20.3786441 59.5382328,20.3984441 C60.5719328,20.5828441 61.2640328,21.5622441 61.0970328,22.5950441 L61.0917328,22.6263441 L59.8205328,29.7549441 C59.8126328,29.7994441 59.8086328,29.8445441 59.8086328,29.8898441 C59.8086328,30.3072441 60.1415328,30.6469441 60.5563328,30.6577441 L60.5768328,30.6580441 L65.2652328,30.6580441 C65.6306328,30.6580441 65.9443328,30.4009441 66.0176328,30.0449441 L66.0215328,30.0246441 L67.4610328,21.9520441 C67.6227328,21.0451441 68.4050328,20.3821441 69.3235328,20.3686441 L69.3516328,20.3686441 L76.6480328,20.3686441 C76.7603328,20.3686441 76.8723328,20.3784441 76.9828328,20.3980441 C78.0168328,20.5810441 78.7101328,21.5596441 78.5444328,22.5926441 L78.5391328,22.6239441 L73.6329328,50.3395441 C73.4722328,51.2475441 72.6894328,51.9117441 71.7700328,51.9252441 L71.7418328,51.9252441 L64.4447328,51.9252441 C64.3322328,51.9252441 64.2200328,51.9153441 64.1092328,51.8957441 C63.0753328,51.7122441 62.3824328,50.7334441 62.5484328,49.7005441 L62.5537328,49.6692441 L63.8663328,42.2705441 C63.8742328,42.2262441 63.8781328,42.1813441 63.8781328,42.1363441 C63.8781328,41.7189441 63.5452328,41.3792441 63.1304328,41.3684441 L63.1099328,41.3681441 L58.4206328,41.3681441 C58.0550328,41.3681441 57.7411328,41.6255441 57.6681328,41.9818441 L57.6642328,42.0021441 L56.1849328,50.3402441 C56.0239328,51.2478441 55.2412328,51.9117441 54.3221328,51.9252441 L54.2939328,51.9252441 L46.9972328,51.9252441 C46.8850328,51.9252441 46.7730328,51.9154441 46.6624328,51.8958441 C45.6285328,51.7128441 44.9352328,50.7342441 45.1008328,49.7012441 L45.1061328,49.6699441 L50.0123328,21.9544441 C50.1731328,21.0464441 50.9559328,20.3821441 51.8753328,20.3686441 L51.9034328,20.3686441 L59.2010328,20.3686441 Z" id="Shape" fill="#8247E5" fill-rule="nonzero"></path>
            <path d="M59.2010328,20.3685441 L51.9033328,20.3685441 C50.9718328,20.3685441 50.1745328,21.0369441 50.0122328,21.9542441 L45.1059328,49.6698441 C44.9210328,50.7142441 45.6178328,51.7108441 46.6622328,51.8957441 C46.7727328,51.9152441 46.8848328,51.9251441 46.9970328,51.9251441 L54.2938328,51.9251441 C55.2251328,51.9251441 56.0221328,51.2570441 56.1848328,50.3400441 L57.6641328,42.0020441 C57.7292328,41.6352441 58.0480328,41.3680441 58.4205328,41.3680441 L63.1099328,41.3680441 C63.5342328,41.3680441 63.8781328,41.7119441 63.8781328,42.1362441 C63.8781328,42.1812441 63.8742328,42.2261441 63.8663328,42.2704441 L62.5537328,49.6691441 C62.3684328,50.7134441 63.0649328,51.7103441 64.1092328,51.8955441 C64.2200328,51.9152441 64.3322328,51.9251441 64.4447328,51.9251441 L71.7419328,51.9251441 C72.6735328,51.9251441 73.4707328,51.2566441 73.6331328,50.3393441 L78.5394328,22.6238441 C78.7243328,21.5793441 78.0275328,20.5828441 76.9830328,20.3979441 C76.8725328,20.3783441 76.7605328,20.3685441 76.6482328,20.3685441 L69.3517328,20.3685441 C68.4211328,20.3685441 67.6244328,21.0357441 67.4610328,21.9518441 L66.0215328,30.0245441 C65.9562328,30.3909441 65.6375328,30.6578441 65.2653328,30.6578441 L60.5768328,30.6578441 C60.1525328,30.6578441 59.8086328,30.3139441 59.8086328,29.8896441 C59.8086328,29.8444441 59.8126328,29.7993441 59.8205328,29.7548441 L61.0917328,22.6261441 C61.2779328,21.5819441 60.5823328,20.5845441 59.5381328,20.3983441 C59.4269328,20.3784441 59.3140328,20.3685441 59.2010328,20.3685441 Z" id="Path" fill="#FFFFFF" fill-rule="nonzero"></path>
            <g id="Clipped" transform="translate(0.000000, 82.249344)">
                <mask id="mask-2" fill="white">
                    <use xlink:href="#path-1"></use>
                </mask>
                <g id="Path"></g>
                <path d="M5.2903228,24.9969 L5.2903228,15.9098 C5.2903228,15.4936 5.6277228,15.1561 6.0440028,15.1561 L14.9335328,15.1561 C15.3498328,15.1561 15.6872328,15.4936 15.6872328,15.9098 L15.6872328,24.9969 C15.6872328,25.4129 16.0246328,25.7509 16.4408328,25.7509 L20.2237328,25.7509 C20.6400328,25.7509 20.9774328,25.4129 20.9774328,24.9969 L20.9774328,0.7537 C20.9774328,0.3375 20.6400328,0 20.2237328,0 L16.4408328,0 C16.0246328,0 15.6872328,0.3375 15.6872328,0.7537 L15.6872328,9.473 C15.6872328,9.8893 15.3498328,10.2267 14.9335328,10.2267 L6.0440028,10.2267 C5.6277228,10.2267 5.2903228,9.8893 5.2903228,9.473 L5.2903228,0.7537 C5.2903228,0.3375 4.9528028,0 4.5366428,0 L0.7536788,0 C0.3375228,0 7.35522754e-16,0.3375 7.35522754e-16,0.7537 L7.35522754e-16,24.9969 C7.35522754e-16,25.4129 0.3375228,25.7509 0.7536788,25.7509 L4.5366428,25.7509 C4.9528028,25.7509 5.2903228,25.4129 5.2903228,24.9969 Z" id="Path" fill="#2B2B2B" mask="url(#mask-2)"></path>
            </g>
            <path d="M41.4159328,103.471244 C41.4159328,103.474244 41.4146328,103.477244 41.4121328,103.478244 L41.4184328,103.478244 C41.4274328,103.464244 41.4337328,103.450244 41.4376328,103.436244 C41.4325328,103.448244 41.4248328,103.460244 41.4159328,103.471244 Z" id="Path" fill="#2B2B2B"></path>
            <path d="M29.2081328,96.1921441 C29.0437328,96.1921441 28.9220328,96.0363441 28.9642328,95.8776441 C29.4658328,93.9897441 31.0185328,92.5493441 33.4358328,92.5493441 C36.1454328,92.5493441 37.4220328,94.5595441 37.6499328,95.8967441 C37.6762328,96.0510441 37.5585328,96.1921441 37.4019328,96.1921441 L29.2081328,96.1921441 Z M33.4308328,88.4066441 C28.2530328,88.2961441 23.8842328,92.6046441 23.9947328,98.2032441 C23.9947328,103.985244 28.3271328,108.000244 33.4672328,108.000244 C37.4265328,108.000244 40.0594328,106.245244 41.4185328,103.477244 L41.4122328,103.477244 C41.4147328,103.476244 41.4160328,103.474244 41.4160328,103.471244 C41.4248328,103.460244 41.4323328,103.449244 41.4373328,103.436244 C41.4424328,103.428244 41.4461328,103.421244 41.4499328,103.413244 C41.4587328,103.398244 41.4650328,103.383244 41.4713328,103.368244 C41.4750328,103.363244 41.4775328,103.357244 41.4801328,103.349244 C41.5152328,103.263244 41.5341328,103.168244 41.5341328,103.069244 C41.5341328,102.712244 41.2854328,102.412244 40.9512328,102.336244 L40.9500328,102.336244 L40.9500328,102.332244 L38.0998328,101.484244 L38.0609328,101.473244 L38.0596328,101.473244 C37.9955328,101.454244 37.9290328,101.445244 37.8599328,101.445244 C37.5722328,101.445244 37.3210328,101.607244 37.1941328,101.844244 L37.1916328,101.844244 C36.5623328,102.852244 35.3062328,103.727244 33.4672328,103.727244 C31.1276328,103.727244 29.3518328,102.061244 28.9637328,100.123244 C28.9326328,99.9684441 29.0530328,99.8236441 29.2112328,99.8236441 L41.4524328,99.8236441 C41.8687328,99.8236441 42.2061328,99.4862441 42.2061328,99.0699441 L42.2061328,98.0562441 C42.2061328,92.3835441 38.8284328,88.4066441 33.4308328,88.4066441 Z" id="Shape" fill="#2B2B2B"></path>
            <polygon id="Path" fill="#FDF5EC" points="40.9502328 102.332244 40.9514328 102.335244 40.9502328 102.335244"></polygon>
            <path d="M41.4166328,103.476244 L41.4121328,103.476244 C41.4139328,103.475244 41.4148328,103.473244 41.4148328,103.472244 L41.4166328,103.476244 Z" id="Path" fill="#FDF5EC"></path>
            <path d="M108.489133,103.478244 L108.495133,103.478244 C108.504133,103.465244 108.509133,103.452244 108.513133,103.439244 C108.505133,103.452244 108.498133,103.465244 108.489133,103.478244 Z" id="Path" fill="#2B2B2B"></path>
            <path d="M108.513133,103.439244 C108.510133,103.452244 108.504133,103.465244 108.495133,103.478244 L108.489133,103.478244 C108.498133,103.465244 108.506133,103.452244 108.513133,103.439244 Z" id="Path" fill="#FDF5EC"></path>
            <path d="M96.2848328,96.1921441 C96.1205328,96.1921441 95.9987328,96.0363441 96.0409328,95.8776441 C96.5426328,93.9897441 98.0952328,92.5493441 100.512133,92.5493441 C103.222133,92.5493441 104.499133,94.5595441 104.727133,95.8967441 C104.753133,96.0510441 104.635133,96.1921441 104.478133,96.1921441 L96.2848328,96.1921441 Z M100.507133,88.4066441 C95.3296328,88.2961441 90.9608328,92.6046441 91.0714328,98.2032441 C91.0714328,103.985244 95.4038328,108.000244 100.544133,108.000244 C104.503133,108.000244 107.136133,106.245244 108.495133,103.477244 L108.489133,103.477244 C108.498133,103.465244 108.505133,103.452244 108.513133,103.440244 C108.514133,103.439244 108.514133,103.437244 108.514133,103.436244 C108.519133,103.428244 108.523133,103.421244 108.527133,103.413244 C108.538133,103.393244 108.548133,103.372244 108.557133,103.349244 C108.592133,103.263244 108.611133,103.168244 108.611133,103.069244 C108.611133,102.711244 108.361133,102.412244 108.027133,102.336244 L108.027133,102.332244 L105.176133,101.484244 C105.163133,101.480244 105.150133,101.475244 105.138133,101.473244 C105.134133,101.471244 105.129133,101.470244 105.125133,101.469244 C105.065133,101.454244 105.002133,101.445244 104.937133,101.445244 C104.649133,101.445244 104.398133,101.607244 104.271133,101.844244 L104.268133,101.844244 C103.639133,102.852244 102.383133,103.727244 100.544133,103.727244 C98.2043328,103.727244 96.4286328,102.061244 96.0404328,100.123244 C96.0093328,99.9684441 96.1297328,99.8236441 96.2880328,99.8236441 L108.529133,99.8236441 C108.945133,99.8236441 109.283133,99.4862441 109.283133,99.0699441 L109.283133,98.0562441 C109.283133,92.3835441 105.905133,88.4066441 100.507133,88.4066441 Z" id="Shape" fill="#2B2B2B"></path>
            <path d="M56.5952328,93.1772441 L56.5965328,93.1772441 L56.5913328,93.1889441 C56.5926328,93.1850441 56.5939328,93.1811441 56.5952328,93.1772441 Z" id="Path" fill="#2B2B2B"></path>
            <path d="M57.4727328,88.9037441 C57.4587328,88.8974441 57.4446328,88.8923441 57.4306328,88.8884441 L57.4306328,88.8859441 C57.4446328,88.8910441 57.4587328,88.8974441 57.4727328,88.9037441 Z" id="Path" fill="#2B2B2B"></path>
            <path d="M56.5965328,93.1772441 L56.5913328,93.1889441 C56.5926328,93.1850441 56.5939328,93.1811441 56.5952328,93.1772441 L56.5965328,93.1772441 Z" id="Path" fill="#FDF5EC"></path>
            <path d="M57.4727328,88.9037441 C57.4587328,88.8974441 57.4446328,88.8923441 57.4306328,88.8884441 L57.4306328,88.8859441 C57.4446328,88.8910441 57.4587328,88.8974441 57.4727328,88.9037441 Z" id="Path" fill="#FDF5EC"></path>
            <path d="M57.9553328,89.6074441 C57.9553328,89.7054441 57.9365328,89.7996441 57.9026328,89.8863441 L57.9013328,89.8863441 C57.9001328,89.8913441 57.8976328,89.8976441 57.8950328,89.9038441 L56.5962328,93.1773441 L56.5949328,93.1773441 C56.5937328,93.1811441 56.5924328,93.1849441 56.5912328,93.1886441 C56.5887328,93.1962441 56.5862328,93.2024441 56.5824328,93.2100441 C56.5799328,93.2200441 56.5748328,93.2301441 56.5711328,93.2414441 C56.4543328,93.5064441 56.1880328,93.6923441 55.8802328,93.6923441 C55.7986328,93.6923441 55.7207328,93.6798441 55.6466328,93.6547441 L55.6466328,93.6572441 C55.2320328,93.4926441 54.7308328,93.4160441 54.1518328,93.4160441 C53.0966328,93.4160441 52.2023328,93.8029441 51.5704328,94.5327441 C50.9386328,95.2625441 50.5718328,96.3365441 50.5718328,97.7120441 L50.5718328,107.170244 C50.5718328,107.587244 50.2344328,107.924244 49.8181328,107.924244 L45.9743328,107.924244 C45.5582328,107.924244 45.2207328,107.587244 45.2207328,107.170244 L45.2207328,89.6853441 C45.2207328,89.2690441 45.5582328,88.9316441 45.9743328,88.9316441 L49.0732328,88.9316441 C49.3860328,88.9316441 49.6661328,89.1250441 49.7767328,89.4165441 L50.2073328,90.5435441 C50.2786328,90.7299441 50.5292328,90.7635441 50.6448328,90.6007441 C51.5449328,89.3326441 52.9964328,88.4040441 54.9431328,88.4040441 C55.8651328,88.4040441 56.7042328,88.5698441 57.4303328,88.8864441 L57.4303328,88.8889441 C57.4441328,88.8927441 57.4579328,88.8977441 57.4717328,88.9040441 C57.4742328,88.9040441 57.4767328,88.9052441 57.4793328,88.9065441 C57.4943328,88.9140441 57.5082328,88.9203441 57.5232328,88.9266441 C57.5396328,88.9341441 57.5559328,88.9429441 57.5722328,88.9517441 C57.5747328,88.9530441 57.5785328,88.9542441 57.5810328,88.9567441 C57.8046328,89.0874441 57.9553328,89.3298441 57.9553328,89.6074441 Z" id="Path" fill="#2B2B2B"></path>
            <path d="M65.7710328,107.170244 L65.7710328,97.1844441 C65.7710328,94.6594441 66.9393328,93.3783441 68.7857328,93.3783441 C70.5946328,93.3783441 71.5743328,94.5088441 71.5743328,96.8075441 L71.5743328,107.170244 C71.5743328,107.587244 71.9119328,107.924244 72.3280328,107.924244 L76.1719328,107.924244 C76.5881328,107.924244 76.9256328,107.587244 76.9256328,107.170244 L76.9256328,97.1844441 C76.9256328,94.6594441 78.0938328,93.3783441 79.9403328,93.3783441 C81.7867328,93.3783441 82.6911328,94.5088441 82.6911328,96.8075441 L82.6911328,107.170244 C82.6911328,107.587244 83.0286328,107.924244 83.4448328,107.924244 L87.2887328,107.924244 C87.7048328,107.924244 88.0424328,107.587244 88.0424328,107.170244 L88.0424328,95.4886441 C88.0424328,90.6651441 85.7813328,88.4040441 81.9751328,88.4040441 C79.5288328,88.4040441 77.6162328,89.4381441 76.3941328,90.8157441 C76.2832328,90.9409441 76.0850328,90.9229441 75.9954328,90.7816441 C74.9984328,89.2071441 73.3992328,88.4040441 71.1975328,88.4040441 C68.8738328,88.4040441 66.9332328,89.4254441 65.8161328,90.6751441 C65.6902328,90.8159441 65.4596328,90.7694441 65.3950328,90.5920441 L64.9717328,89.4276441 C64.8633328,89.1298441 64.5803328,88.9316441 64.2634328,88.9316441 L61.1736328,88.9316441 C60.7574328,88.9316441 60.4199328,89.2690441 60.4199328,89.6853441 L60.4199328,107.170244 C60.4199328,107.587244 60.7574328,107.924244 61.1736328,107.924244 L65.0173328,107.924244 C65.4336328,107.924244 65.7710328,107.587244 65.7710328,107.170244 Z" id="Path" fill="#2B2B2B"></path>
            <path d="M127.623133,107.145244 L127.623133,104.143244 C127.623133,103.726244 127.285133,103.389244 126.869133,103.389244 L119.000133,103.389244 C118.911133,103.389244 118.823133,103.347244 118.778133,103.270244 C118.720133,103.174244 118.733133,103.060244 118.796133,102.980244 L127.263133,92.4373441 C127.370133,92.3034441 127.429133,92.1370441 127.429133,91.9654441 L127.429133,89.0573441 C127.429133,88.6410441 127.092133,88.3036441 126.675133,88.3036441 L112.821133,88.3036441 C112.405133,88.3036441 112.067133,88.6410441 112.067133,89.0573441 L112.067133,92.0601441 C112.067133,92.4763441 112.405133,92.8138441 112.821133,92.8138441 L120.224133,92.8138441 C120.313133,92.8138441 120.400133,92.8561441 120.446133,92.9327441 C120.503133,93.0295441 120.491133,93.1433441 120.427133,93.2226441 L111.990133,103.692244 C111.864133,103.848244 111.796133,104.043244 111.796133,104.243244 L111.796133,107.145244 C111.796133,107.562244 112.133133,107.899244 112.549133,107.899244 L126.869133,107.899244 C127.285133,107.899244 127.623133,107.562244 127.623133,107.145244 Z" id="Path" fill="#2B2B2B"></path>
        </g>
    </g>
</svg>