<svg width="782" height="192" viewBox="0 0 782 192" fill="none" xmlns="http://www.w3.org/2000/svg">
<rect width="782" height="192" fill="none"/>
<g clip-path="url(#clip0_12_178)">
<path d="M164.23 75.8999H175.34V80.2999C176.601 78.6755 178.252 77.3959 180.14 76.5799C182.284 75.6623 184.598 75.209 186.93 75.2499C190.363 75.1713 193.75 76.062 196.7 77.8199C199.509 79.5681 201.748 82.0982 203.14 85.0999C204.73 88.5445 205.51 92.3073 205.42 96.0999C205.501 99.8804 204.664 103.624 202.98 107.01C201.435 110.033 199.063 112.554 196.14 114.28C193.056 116.053 189.547 116.951 185.99 116.88C183.861 116.906 181.746 116.526 179.76 115.76C178.047 115.12 176.531 114.045 175.36 112.64V132.54H164.23V75.8999ZM177.42 104.16C178.317 105.175 179.428 105.977 180.673 106.51C181.919 107.043 183.267 107.292 184.62 107.24C185.96 107.288 187.293 107.037 188.523 106.504C189.754 105.971 190.849 105.17 191.73 104.16C193.617 101.891 194.588 98.998 194.45 96.0499C194.584 93.0698 193.604 90.1464 191.7 87.8499C190.818 86.8412 189.722 86.0422 188.492 85.511C187.262 84.9799 185.929 84.7301 184.59 84.7799C183.237 84.7258 181.89 84.9732 180.644 85.5042C179.399 86.0352 178.287 86.8364 177.39 87.8499C175.507 90.1551 174.549 93.0776 174.7 96.0499C174.562 98.998 175.533 101.891 177.42 104.16Z" fill="#0A0B0D"/>
<path d="M219.7 114.15C216.521 112.437 213.89 109.862 212.11 106.72C210.325 103.445 209.39 99.7745 209.39 96.0447C209.39 92.315 210.325 88.6448 212.11 85.3698C213.895 82.232 216.525 79.6578 219.7 77.9398C223.081 76.1791 226.838 75.2598 230.65 75.2598C234.462 75.2598 238.219 76.1791 241.6 77.9398C244.776 79.6606 247.408 82.2339 249.2 85.3698C250.978 88.6468 251.91 92.3162 251.91 96.0447C251.91 99.7733 250.978 103.443 249.2 106.72C247.414 109.86 244.78 112.435 241.6 114.15C238.219 115.91 234.462 116.83 230.65 116.83C226.838 116.83 223.081 115.91 219.7 114.15ZM223.38 104.15C224.315 105.141 225.442 105.931 226.693 106.47C227.944 107.01 229.292 107.289 230.655 107.289C232.017 107.289 233.366 107.01 234.617 106.47C235.868 105.931 236.995 105.141 237.93 104.15C239.848 101.899 240.838 99.0034 240.7 96.0498C240.835 93.0749 239.838 90.1593 237.91 87.8897C236.971 86.9063 235.842 86.1234 234.591 85.5886C233.341 85.0537 231.995 84.778 230.635 84.778C229.275 84.778 227.929 85.0537 226.679 85.5886C225.428 86.1234 224.299 86.9063 223.36 87.8897C221.425 90.1558 220.424 93.073 220.56 96.0498C220.439 99.0005 221.448 101.886 223.38 104.12V104.15Z" fill="#0A0B0D"/>
<path d="M258.63 58.3994H269.7V116.189H258.63V58.3994Z" fill="#0A0B0D"/>
<path d="M289.56 115.87L274.93 75.8701H286.28L294.75 101.87L303.15 75.8701H314.57L299.95 116L294.27 132.46H283.64L289.56 115.87Z" fill="#0A0B0D"/>
<path d="M320.93 111.19C317.537 107.443 315.843 102.396 315.85 96.0495C315.76 92.2569 316.54 88.4941 318.13 85.0495C319.555 82.0419 321.842 79.5255 324.7 77.8195C327.735 76.0634 331.194 75.1745 334.7 75.2495C336.931 75.2222 339.145 75.6439 341.21 76.4895C343.011 77.2076 344.595 78.3788 345.81 79.8895V75.8895H357V118.58C357.078 120.465 356.747 122.345 356.029 124.091C355.311 125.836 354.223 127.405 352.84 128.69C350.067 131.223 346.4 132.486 341.84 132.479H321.54V123.77H340.08C340.869 123.793 341.654 123.645 342.379 123.334C343.104 123.023 343.753 122.557 344.28 121.97C345.395 120.706 345.982 119.063 345.92 117.38V112.1C344.798 113.672 343.241 114.881 341.44 115.58C339.361 116.423 337.134 116.845 334.89 116.82C328.963 116.826 324.31 114.95 320.93 111.19ZM329.48 104.19C330.378 105.187 331.486 105.974 332.724 106.492C333.962 107.011 335.299 107.249 336.64 107.19C337.985 107.246 339.326 107.007 340.568 106.488C341.811 105.97 342.924 105.185 343.83 104.19C345.73 101.912 346.702 99.0017 346.55 96.0395C346.693 93.0633 345.723 90.1403 343.83 87.8395C342.934 86.8268 341.824 86.026 340.581 85.495C339.337 84.964 337.991 84.7162 336.64 84.7695C335.293 84.7122 333.95 84.9583 332.711 85.4897C331.471 86.021 330.367 86.8241 329.48 87.8395C327.61 90.1507 326.656 93.0697 326.8 96.0395C326.635 99.0151 327.591 101.945 329.48 104.25V104.19Z" fill="#0A0B0D"/>
<path d="M374.04 114.15C370.861 112.437 368.23 109.862 366.45 106.72C364.665 103.445 363.73 99.7745 363.73 96.0447C363.73 92.315 364.665 88.6448 366.45 85.3698C368.235 82.232 370.865 79.6578 374.04 77.9398C377.421 76.1791 381.178 75.2598 384.99 75.2598C388.802 75.2598 392.559 76.1791 395.94 77.9398C399.115 79.6578 401.745 82.232 403.53 85.3698C405.315 88.6448 406.25 92.315 406.25 96.0447C406.25 99.7745 405.315 103.445 403.53 106.72C401.75 109.862 399.119 112.437 395.94 114.15C392.559 115.91 388.802 116.83 384.99 116.83C381.178 116.83 377.421 115.91 374.04 114.15ZM377.72 104.15C378.655 105.139 379.782 105.928 381.032 106.467C382.282 107.005 383.629 107.283 384.99 107.283C386.351 107.283 387.698 107.005 388.948 106.467C390.198 105.928 391.325 105.139 392.26 104.15C394.185 101.913 395.186 99.0278 395.06 96.0798C395.196 93.103 394.195 90.1858 392.26 87.9197C391.322 86.9365 390.193 86.1539 388.944 85.6192C387.694 85.0844 386.349 84.8087 384.99 84.8087C383.631 84.8087 382.286 85.0844 381.036 85.6192C379.787 86.1539 378.658 86.9365 377.72 87.9197C375.785 90.1858 374.784 93.103 374.92 96.0798C374.796 99.015 375.79 101.888 377.7 104.12L377.72 104.15Z" fill="#0A0B0D"/>
<path d="M412.32 75.8994H423.52V81.4994C424.649 79.5156 426.345 77.9139 428.39 76.8994C430.661 75.7752 433.167 75.2095 435.7 75.2494C438.459 75.1922 441.182 75.8833 443.58 77.2494C445.833 78.5773 447.661 80.5198 448.85 82.8494C450.137 85.3989 450.782 88.2239 450.73 91.0794V116.179H439.58V93.5694C439.654 91.3668 438.881 89.2197 437.42 87.5694C436.714 86.7963 435.849 86.1858 434.883 85.78C433.918 85.3743 432.876 85.183 431.83 85.2194C430.708 85.1827 429.592 85.3879 428.557 85.821C427.521 86.2541 426.592 86.905 425.83 87.7294C424.258 89.4977 423.43 91.8051 423.52 94.1694V116.229H412.32V75.8994Z" fill="#0A0B0D"/>
<path d="M520.86 60.25V116.25H513.99V90.37H484.42V116.19H477.54V60.25H484.42V84.25H513.99V60.25H520.86Z" fill="#0A0B0D"/>
<path d="M532.01 85.25C533.496 82.2142 535.817 79.6647 538.7 77.9C541.765 76.0835 545.278 75.1653 548.84 75.25C552.33 75.1647 555.781 76.0066 558.84 77.69C561.614 79.2712 563.874 81.6181 565.35 84.45C566.897 87.4356 567.68 90.7579 567.63 94.12C567.643 95.0527 567.59 95.985 567.47 96.91H535.97C536.089 100.711 537.565 104.343 540.13 107.15C541.326 108.451 542.786 109.48 544.412 110.17C546.039 110.86 547.794 111.194 549.56 111.15C552.349 111.284 555.116 110.588 557.51 109.15C559.552 107.784 560.986 105.68 561.51 103.28H567.98C567.694 105.249 567.016 107.141 565.986 108.844C564.955 110.546 563.593 112.024 561.98 113.19C558.346 115.734 553.983 117.026 549.55 116.87C545.899 116.935 542.307 115.949 539.2 114.03C536.227 112.158 533.81 109.523 532.2 106.4C530.512 103.128 529.653 99.4915 529.7 95.81C529.627 92.1571 530.418 88.5387 532.01 85.25ZM561.07 91.84C560.954 88.767 559.649 85.8592 557.43 83.73C555.022 81.8037 552.035 80.7442 548.951 80.7225C545.867 80.7007 542.865 81.7179 540.43 83.61C538.114 85.7753 536.64 88.6912 536.27 91.84H561.07Z" fill="#0A0B0D"/>
<path d="M585 86.0501C583.433 89.0435 582.65 93.1735 582.65 98.4401V116.19H576.25V75.9001H582.7V84.0601C583.317 81.6439 584.686 79.4865 586.61 77.9001C588.662 76.4863 591.121 75.7838 593.61 75.9001H598.7V81.5801H593.11C589.277 81.5801 586.573 83.0701 585 86.0501Z" fill="#0A0B0D"/>
<path d="M605.51 75.8997H611.9V83.6597C612.667 81.1979 614.228 79.0597 616.34 77.5797C618.595 76.0001 621.297 75.1836 624.05 75.2497C627.089 75.1628 630.089 75.9432 632.7 77.4997C633.853 78.1933 634.858 79.1092 635.654 80.1941C636.451 81.279 637.024 82.5114 637.34 83.8197C638.155 81.2734 639.854 79.1026 642.13 77.6997C644.564 76.0801 647.427 75.2268 650.35 75.2497C654.71 75.2497 658.133 76.6364 660.62 79.4097C663.107 82.183 664.343 85.993 664.33 90.8397V116.18H657.94V92.5297C658.084 89.5393 657.225 86.5866 655.5 84.1397C654.728 83.1088 653.718 82.2795 652.557 81.7224C651.396 81.1653 650.117 80.8968 648.83 80.9397C647.369 80.8671 645.909 81.116 644.555 81.6689C643.2 82.2218 641.983 83.0652 640.99 84.1397C639.006 86.4724 637.981 89.4706 638.12 92.5297V116.19H631.7V92.5297C631.844 89.5393 630.985 86.5866 629.26 84.1397C628.505 83.1107 627.51 82.2814 626.361 81.7238C625.213 81.1662 623.946 80.8971 622.67 80.9397C621.198 80.8636 619.727 81.1106 618.36 81.6634C616.994 82.2162 615.765 83.0614 614.76 84.1397C612.769 86.4689 611.739 89.4687 611.88 92.5297V116.19H605.49L605.51 75.8997Z" fill="#0A0B0D"/>
<path d="M674.92 85.2499C676.405 82.2242 678.723 79.6849 681.6 77.9299C684.665 76.101 688.182 75.1722 691.75 75.2499C695.24 75.1659 698.691 76.0078 701.75 77.6899C704.524 79.271 706.785 81.6179 708.26 84.4499C709.807 87.4355 710.59 90.7577 710.54 94.1199C710.553 95.0525 710.5 95.9848 710.38 96.9099H678.88C678.996 100.709 680.468 104.342 683.03 107.15C684.229 108.45 685.691 109.479 687.318 110.168C688.946 110.858 690.703 111.193 692.47 111.15C695.276 111.293 698.062 110.597 700.47 109.15C702.512 107.784 703.946 105.68 704.47 103.28H710.94C710.654 105.249 709.975 107.141 708.945 108.843C707.914 110.545 706.552 112.024 704.94 113.19C701.31 115.734 696.95 117.026 692.52 116.87C688.869 116.935 685.277 115.949 682.17 114.03C679.195 112.16 676.777 109.525 675.17 106.4C673.477 103.143 672.611 99.52 672.65 95.8499C672.558 92.1868 673.336 88.5541 674.92 85.2499ZM703.98 91.8398C703.864 88.7668 702.559 85.859 700.34 83.7299C697.974 81.6541 694.894 80.5785 691.75 80.7299C688.689 80.6084 685.693 81.6356 683.35 83.6099C681.037 85.7762 679.567 88.6921 679.2 91.8398H703.98Z" fill="#0A0B0D"/>
<path d="M715.7 110.509L740.7 81.5794H716.84V75.8994H748.1V81.5794L723.32 110.509H749.21V116.189H715.7V110.509Z" fill="#0A0B0D"/>
<path d="M124 62.7698L90 43.1298C87.5647 41.7342 84.8068 41 82 41C79.1932 41 76.4353 41.7342 74 43.1298L40 62.7698C37.5672 64.1744 35.547 66.1947 34.1427 68.6277C32.7384 71.0607 31.9994 73.8206 32 76.6298V115.99C32.0203 118.779 32.7693 121.514 34.1725 123.924C35.5758 126.334 37.5847 128.335 40 129.73L74 149.37C76.4323 150.774 79.1914 151.513 82 151.513C84.8086 151.513 87.5677 150.774 90 149.37L124 129.73C126.433 128.325 128.453 126.305 129.857 123.872C131.262 121.439 132.001 118.679 132 115.87V76.5098C131.98 73.721 131.231 70.9859 129.827 68.5757C128.424 66.1656 126.415 64.1641 124 62.7698ZM40 76.6298C39.9979 75.2235 40.3666 73.8415 41.0688 72.6231C41.7711 71.4047 42.7821 70.3929 44 69.6898L78 50.0698C79.2145 49.3627 80.5947 48.9902 82 48.9902C83.4053 48.9902 84.7855 49.3627 86 50.0698L120 69.6898C121.2 70.3827 122.2 71.3755 122.901 72.5711C123.603 73.7666 123.981 75.1239 124 76.5098V80.5098C123.989 83.6236 122.746 86.6066 120.543 88.8066C118.339 91.0066 115.354 92.2445 112.24 92.2498H51.76C47.5207 92.2397 43.3932 93.6085 40 96.1498V76.6298ZM124 115.87C124.002 117.276 123.633 118.658 122.931 119.876C122.229 121.095 121.218 122.107 120 122.81L86 142.43C84.7839 143.132 83.4043 143.502 82 143.502C80.5957 143.502 79.2162 143.132 78 142.43L44 122.81C42.7996 122.117 41.7998 121.124 41.0986 119.928C40.3974 118.733 40.0188 117.376 40 115.99V111.99C40.0106 108.876 41.2536 105.893 43.4573 103.693C45.661 101.493 48.6461 100.255 51.76 100.25H112.24C116.479 100.26 120.607 98.891 124 96.3498V115.87Z" fill="#7B3FE4"/>
<path d="M63.4 74.6299H71.16V86.2499H79.16V74.6299C79.16 72.5082 78.3172 70.4733 76.8169 68.973C75.3166 67.4727 73.2818 66.6299 71.16 66.6299H63.4C61.2783 66.6299 59.2435 67.4727 57.7432 68.973C56.2429 70.4733 55.4 72.5082 55.4 74.6299V86.2499H63.4V74.6299Z" fill="#7B3FE4"/>
<path d="M71.16 117.87H63.4V106.25H55.4V117.87C55.4 119.992 56.2429 122.027 57.7432 123.527C59.2435 125.027 61.2783 125.87 63.4 125.87H71.16C73.2818 125.87 75.3166 125.027 76.8169 123.527C78.3172 122.027 79.16 119.992 79.16 117.87V106.25H71.16V117.87Z" fill="#7B3FE4"/>
<path d="M94.92 74.6299H102.7V86.2499H110.7V74.6299C110.7 72.5082 109.857 70.4733 108.357 68.973C106.857 67.4727 104.822 66.6299 102.7 66.6299H94.92C92.7983 66.6299 90.7634 67.4727 89.2631 68.973C87.7628 70.4733 86.92 72.5082 86.92 74.6299V86.2499H94.92V74.6299Z" fill="#7B3FE4"/>
<path d="M102.7 117.87H94.92V106.25H86.92V117.87C86.92 119.992 87.7628 122.027 89.2631 123.527C90.7634 125.027 92.7983 125.87 94.92 125.87H102.7C104.822 125.87 106.857 125.027 108.357 123.527C109.857 122.027 110.7 119.992 110.7 117.87V106.25H102.7V117.87Z" fill="#7B3FE4"/>
</g>
<defs>
<clipPath id="clip0_12_178">
<rect width="717.21" height="110.51" fill="none" transform="translate(32 41)"/>
</clipPath>
</defs>
</svg>
