<?xml version="1.0" encoding="UTF-8" standalone="no"?><!-- Generator: Gravit.io --><svg xmlns="http://www.w3.org/2000/svg" xmlns:xlink="http://www.w3.org/1999/xlink" style="isolation:isolate" viewBox="0 0 128 108" width="128pt" height="108pt"><defs><clipPath id="_clipPath_mtvsIpjm1xVC8kGksarxmomtrhfzEvgS"><rect width="128" height="108"/></clipPath></defs><g clip-path="url(#_clipPath_mtvsIpjm1xVC8kGksarxmomtrhfzEvgS)"><g><path d=" M 127.712 107.145 L 127.712 104.143 C 127.712 103.943 127.633 103.751 127.491 103.61 C 127.35 103.468 127.158 103.389 126.958 103.389 L 119.089 103.389 C 118.999 103.391 118.915 103.346 118.867 103.27 C 118.812 103.179 118.819 103.063 118.885 102.98 L 127.352 92.437 C 127.459 92.303 127.518 92.137 127.518 91.965 L 127.518 89.057 C 127.518 88.857 127.439 88.665 127.297 88.524 C 127.156 88.382 126.964 88.303 126.764 88.303 L 112.91 88.303 C 112.71 88.303 112.518 88.382 112.377 88.524 C 112.235 88.665 112.156 88.857 112.156 89.057 L 112.156 92.06 C 112.156 92.476 112.494 92.814 112.91 92.814 L 120.313 92.814 C 120.402 92.814 120.489 92.856 120.535 92.933 C 120.59 93.024 120.582 93.14 120.516 93.223 L 112.079 103.692 C 111.953 103.848 111.885 104.043 111.885 104.243 L 111.885 107.145 C 111.885 107.562 112.222 107.899 112.638 107.899 L 126.958 107.899 C 127.158 107.899 127.35 107.82 127.491 107.678 C 127.633 107.537 127.712 107.345 127.712 107.145 L 127.712 107.145 Z " fill-rule="evenodd" fill="rgb(8,17,50)"/><path d=" M 100.596 88.406 C 95.418 88.296 91.05 92.604 91.16 98.203 C 91.16 103.985 95.493 108 100.633 108 C 104.592 108 107.225 106.245 108.584 103.477 L 108.578 103.477 C 108.587 103.465 108.594 103.452 108.602 103.44 L 108.603 103.436 C 108.62 103.408 108.634 103.379 108.646 103.349 C 108.728 103.145 108.716 102.915 108.614 102.72 C 108.512 102.526 108.33 102.385 108.116 102.336 L 108.116 102.332 L 105.265 101.484 C 105.252 101.48 105.239 101.475 105.227 101.473 L 105.214 101.469 C 104.877 101.383 104.524 101.537 104.36 101.844 L 104.357 101.844 C 103.728 102.852 102.472 103.727 100.633 103.727 C 98.293 103.727 96.517 102.061 96.129 100.123 C 96.115 100.049 96.134 99.973 96.182 99.914 C 96.23 99.856 96.302 99.823 96.377 99.823 L 108.618 99.823 C 109.034 99.823 109.371 99.486 109.372 99.07 L 109.372 98.056 C 109.372 92.383 105.994 88.406 100.596 88.406 L 100.596 88.406 Z  M 96.374 96.192 C 96.296 96.192 96.223 96.156 96.175 96.094 C 96.127 96.033 96.111 95.952 96.13 95.877 C 96.631 93.99 98.184 92.549 100.601 92.549 C 103.311 92.549 104.588 94.559 104.816 95.897 C 104.828 95.97 104.808 96.045 104.76 96.102 C 104.712 96.159 104.641 96.192 104.567 96.192 L 96.374 96.192 L 96.374 96.192 Z " fill-rule="evenodd" fill="rgb(8,17,50)"/><path d=" M 65.86 107.17 L 65.86 97.184 C 65.86 94.659 67.028 93.378 68.875 93.378 C 70.683 93.378 71.663 94.508 71.663 96.808 L 71.663 107.17 C 71.663 107.587 72.001 107.924 72.417 107.924 L 76.261 107.924 C 76.677 107.923 77.014 107.586 77.014 107.17 L 77.014 97.184 C 77.014 94.659 78.183 93.378 80.029 93.378 C 81.876 93.378 82.78 94.508 82.78 96.808 L 82.78 107.17 C 82.78 107.587 83.117 107.924 83.534 107.924 L 87.378 107.924 C 87.794 107.923 88.131 107.586 88.131 107.17 L 88.131 95.488 C 88.131 90.665 85.871 88.404 82.064 88.404 C 79.618 88.404 77.705 89.438 76.483 90.816 C 76.43 90.875 76.353 90.905 76.275 90.898 C 76.196 90.892 76.125 90.848 76.084 90.781 C 75.087 89.207 73.488 88.404 71.286 88.404 C 68.963 88.404 67.022 89.425 65.905 90.674 C 65.846 90.739 65.758 90.769 65.671 90.752 C 65.585 90.735 65.514 90.675 65.484 90.592 L 65.061 89.427 C 64.952 89.129 64.669 88.931 64.352 88.931 L 61.262 88.931 C 60.846 88.932 60.509 89.269 60.509 89.685 L 60.509 107.17 C 60.509 107.587 60.846 107.924 61.262 107.924 L 65.106 107.924 C 65.306 107.924 65.498 107.845 65.639 107.703 C 65.781 107.562 65.86 107.37 65.86 107.17 L 65.86 107.17 Z " fill-rule="evenodd" fill="rgb(8,17,50)"/><path d=" M 58.044 89.607 C 58.044 89.703 58.026 89.798 57.991 89.887 C 57.989 89.893 57.987 89.899 57.984 89.904 L 56.685 93.177 L 56.684 93.177 L 56.68 93.188 C 56.678 93.196 56.675 93.203 56.671 93.21 C 56.669 93.22 56.664 93.23 56.66 93.241 C 56.503 93.596 56.104 93.775 55.735 93.655 L 55.735 93.657 C 55.321 93.492 54.82 93.416 54.241 93.416 C 53.185 93.416 52.291 93.803 51.659 94.533 C 51.027 95.263 50.661 96.336 50.661 97.712 L 50.661 107.17 C 50.661 107.37 50.582 107.562 50.44 107.703 C 50.299 107.845 50.107 107.924 49.907 107.924 L 46.063 107.924 C 45.863 107.924 45.671 107.845 45.53 107.703 C 45.389 107.562 45.31 107.37 45.31 107.17 L 45.31 89.685 C 45.31 89.269 45.647 88.931 46.063 88.931 L 49.163 88.931 C 49.475 88.931 49.755 89.125 49.866 89.416 L 50.296 90.543 C 50.328 90.63 50.406 90.692 50.498 90.704 C 50.589 90.716 50.68 90.676 50.734 90.601 C 51.634 89.332 53.085 88.404 55.032 88.404 C 55.954 88.404 56.793 88.57 57.519 88.886 L 57.519 88.889 C 57.536 88.893 57.553 88.899 57.569 88.906 C 57.583 88.913 57.597 88.92 57.612 88.926 L 57.662 88.952 C 57.899 89.086 58.045 89.336 58.045 89.608 L 58.044 89.607 Z " fill-rule="evenodd" fill="rgb(8,17,50)"/><path d=" M 33.52 88.406 C 28.342 88.296 23.973 92.604 24.084 98.203 C 24.084 103.985 28.416 108 33.556 108 C 37.516 108 40.148 106.245 41.507 103.477 L 41.501 103.477 C 41.504 103.476 41.505 103.474 41.505 103.471 C 41.514 103.461 41.521 103.449 41.526 103.436 C 41.544 103.409 41.559 103.38 41.569 103.349 C 41.651 103.145 41.639 102.916 41.538 102.721 C 41.436 102.526 41.254 102.385 41.04 102.336 L 41.039 102.336 L 41.039 102.332 L 38.189 101.484 L 38.149 101.473 C 37.809 101.38 37.45 101.534 37.283 101.844 L 37.28 101.844 C 36.651 102.852 35.395 103.727 33.556 103.727 C 31.216 103.727 29.441 102.061 29.053 100.123 C 29.039 100.049 29.058 99.973 29.106 99.915 C 29.154 99.857 29.225 99.823 29.3 99.823 L 41.541 99.823 C 41.957 99.823 42.294 99.486 42.295 99.07 L 42.295 98.056 C 42.295 92.383 38.917 88.406 33.52 88.406 L 33.52 88.406 Z  M 29.297 96.192 C 29.219 96.192 29.146 96.156 29.098 96.094 C 29.05 96.033 29.034 95.952 29.053 95.877 C 29.555 93.99 31.107 92.549 33.525 92.549 C 36.235 92.549 37.511 94.559 37.739 95.897 C 37.752 95.97 37.731 96.045 37.684 96.102 C 37.636 96.159 37.565 96.192 37.491 96.192 L 29.297 96.192 Z " fill-rule="evenodd" fill="rgb(8,17,50)"/><path d=" M 5.379 107.247 L 5.379 98.16 C 5.379 97.744 5.717 97.406 6.133 97.406 L 15.023 97.406 C 15.439 97.406 15.776 97.744 15.776 98.16 L 15.776 107.247 C 15.776 107.663 16.114 108.001 16.53 108.001 L 20.313 108.001 C 20.729 108 21.066 107.663 21.066 107.247 L 21.066 83.004 C 21.066 82.588 20.729 82.251 20.313 82.25 L 16.529 82.25 C 16.113 82.25 15.775 82.588 15.775 83.004 L 15.775 91.723 C 15.775 92.139 15.438 92.476 15.022 92.477 L 6.132 92.477 C 5.716 92.477 5.378 92.139 5.378 91.723 L 5.378 83.003 C 5.377 82.588 5.041 82.251 4.626 82.25 L 0.843 82.25 C 0.427 82.25 0.089 82.588 0.089 83.004 L 0.089 107.247 C 0.089 107.663 0.427 108.001 0.843 108.001 L 4.626 108.001 C 5.042 108 5.379 107.663 5.379 107.247 Z " fill-rule="evenodd" fill="rgb(8,17,50)"/></g><clipPath id="_clipPath_ORY3oYwEE4vdoXa27rdIKMrEcYzz2BM1"><rect x="37" y="10.87" width="54" height="60.042" transform="matrix(1,0,0,1,0,0)" fill="rgb(255,255,255)"/></clipPath><g clip-path="url(#_clipPath_ORY3oYwEE4vdoXa27rdIKMrEcYzz2BM1)"><g><path d=" M 60.064 69.86 C 61.261 70.551 62.618 70.915 64 70.914 C 65.382 70.915 66.739 70.551 67.936 69.86 L 87.064 58.792 C 88.259 58.098 89.252 57.102 89.942 55.903 C 90.633 54.705 90.998 53.345 91 51.961 L 91 29.825 C 90.998 28.441 90.633 27.081 89.942 25.883 C 89.252 24.684 88.259 23.688 87.064 22.994 L 83.407 20.877 L 83.453 20.797 C 82.281 20.119 80.982 19.692 79.637 19.541 C 78.293 19.391 76.931 19.521 75.639 19.924 C 74.347 20.326 73.152 20.992 72.13 21.88 C 71.107 22.768 70.279 23.859 69.697 25.083 L 55.412 55.147 C 55.044 55.921 54.521 56.61 53.875 57.171 C 53.229 57.732 52.473 58.154 51.657 58.408 C 50.84 58.662 49.98 58.745 49.13 58.65 C 48.28 58.555 47.459 58.284 46.718 57.856 L 46.351 57.644 L 46.305 57.724 L 42.74 55.661 C 42.093 55.285 41.555 54.746 41.181 54.096 C 40.807 53.447 40.609 52.711 40.608 51.961 L 40.608 29.825 C 40.609 29.075 40.807 28.339 41.181 27.69 C 41.555 27.04 42.093 26.501 42.74 26.125 L 61.868 15.057 C 62.516 14.683 63.252 14.486 64 14.486 C 64.748 14.486 65.483 14.683 66.132 15.057 L 71.479 18.151 C 72.459 17.527 73.52 17.034 74.635 16.687 C 74.98 16.579 75.329 16.486 75.681 16.407 L 67.936 11.926 C 66.739 11.235 65.381 10.872 64 10.872 C 62.618 10.872 61.261 11.235 60.064 11.926 L 40.936 22.994 C 39.741 23.688 38.748 24.684 38.058 25.883 C 37.367 27.081 37.002 28.441 37 29.825 L 37 51.961 C 37.002 53.345 37.367 54.705 38.058 55.903 C 38.748 57.102 39.741 58.098 40.936 58.792 L 44.5 60.855 L 45.714 58.75 L 44.546 60.775 L 44.914 60.987 C 46.407 61.849 48.1 62.303 49.823 62.302 C 51.675 62.302 53.489 61.776 55.055 60.785 C 56.621 59.794 57.874 58.378 58.67 56.702 L 72.955 26.638 C 73.322 25.864 73.846 25.174 74.492 24.613 C 75.138 24.052 75.894 23.631 76.71 23.376 C 77.527 23.122 78.387 23.04 79.237 23.135 C 80.087 23.23 80.908 23.5 81.649 23.929 L 81.603 24.009 L 85.26 26.125 C 85.907 26.501 86.445 27.04 86.819 27.69 C 87.193 28.339 87.391 29.075 87.392 29.825 L 87.392 51.961 C 87.391 52.711 87.193 53.447 86.819 54.096 C 86.445 54.746 85.907 55.285 85.26 55.661 L 66.132 66.729 C 65.483 67.103 64.748 67.3 64 67.3 C 63.252 67.3 62.517 67.103 61.868 66.729 L 56.712 63.745 C 55.384 64.561 53.929 65.13 52.415 65.434 L 60.064 69.86 Z  M 59.147 21.956 L 65.722 25.563 L 64.168 28.833 L 58.379 25.657 L 56.466 30.175 L 62.067 33.256 L 60.513 36.527 L 53.846 32.859 C 53.278 32.548 52.855 32.026 52.67 31.405 C 52.497 30.826 52.532 30.205 52.769 29.649 L 55.463 23.288 C 55.602 22.961 55.804 22.665 56.057 22.416 C 56.313 22.164 56.617 21.966 56.95 21.833 C 57.292 21.695 57.659 21.631 58.028 21.645 C 58.42 21.659 58.803 21.766 59.147 21.956 Z  M 73.282 33.833 L 74.836 30.563 L 80.591 33.72 C 81.158 34.03 81.581 34.551 81.768 35.171 C 81.941 35.751 81.906 36.375 81.668 36.932 L 78.976 43.291 C 78.771 43.777 78.427 44.192 77.989 44.485 C 77.55 44.777 77.036 44.934 76.509 44.936 C 76.476 44.936 76.443 44.936 76.411 44.934 C 76.019 44.918 75.636 44.812 75.291 44.624 L 69.674 41.54 L 69.673 41.542 L 69.67 41.544 L 69.67 41.544 C 69.668 41.546 69.665 41.548 69.663 41.55 C 69.662 41.551 69.661 41.552 69.66 41.553 C 69.646 41.566 69.634 41.583 69.625 41.6 L 69.597 41.589 L 71.184 38.249 C 71.223 38.268 71.262 38.289 71.301 38.31 L 76.059 40.922 L 77.972 36.406 L 73.282 33.833 Z  M 67.774 45.425 L 67.77 45.433 C 67.823 45.479 67.863 45.539 67.884 45.606 L 67.654 45.677 L 66.221 48.695 L 71.533 51.612 L 69.621 56.129 L 64.122 53.112 L 62.568 56.382 L 68.849 59.828 C 69.194 60.018 69.579 60.125 69.972 60.141 C 70.005 60.142 70.038 60.143 70.07 60.143 C 70.406 60.142 70.739 60.078 71.051 59.953 C 71.382 59.82 71.684 59.624 71.939 59.374 C 72.194 59.124 72.397 58.826 72.537 58.498 L 75.23 52.137 C 75.467 51.58 75.502 50.957 75.329 50.377 C 75.142 49.757 74.719 49.236 74.152 48.927 L 67.774 45.425 Z  M 52.707 37.161 L 58.638 40.472 L 57.084 43.744 L 51.937 40.871 L 50.028 45.381 L 55.008 48.113 L 53.454 51.383 L 47.409 48.066 C 46.842 47.756 46.419 47.235 46.232 46.615 C 46.059 46.035 46.094 45.413 46.33 44.856 L 49.023 38.497 C 49.162 38.171 49.363 37.875 49.615 37.626 C 49.872 37.374 50.175 37.175 50.509 37.04 C 50.854 36.9 51.224 36.836 51.596 36.852 C 51.985 36.867 52.366 36.973 52.707 37.161 Z " fill-rule="evenodd" fill="rgb(121,80,221)"/></g></g></g></svg>