<svg width="40" height="40" xmlns="http://www.w3.org/2000/svg">
    <g fill-rule="nonzero" fill="none">
        <path d="M0 20c0 16 3.992 20 19.958 20 15.967 0 19.959-4 19.959-20S35.925 0 19.958 0C3.992 0 0 4 0 20z" fill="#8248E5"/>
        <path d="m27.11 19.041-.65 3.679a.72.72 0 0 1-.692-.854l.413-2.197a.72.72 0 0 1 .6-.579l.328-.049zm3.58.198a.721.721 0 0 1-.04.364l-.911 2.19a.72.72 0 0 1-.547.454l-1.647.293.221-1.251.86-.153a.24.24 0 0 0 .18-.145l.27-.656a.24.24 0 0 0-.256-.329l-.85.126.221-1.25 1.68-.248a.72.72 0 0 1 .819.605zm-2.78-4.724-.649 3.67a.72.72 0 0 1-.581-.843l.417-2.22a.72.72 0 0 1 .618-.582l.194-.025zm4.633.147a.721.721 0 0 1-.042.346l-.878 2.209a.72.72 0 0 1-.571.457l-2.717.391.23-1.303 1.504-.217a.24.24 0 0 0 .187-.146l.285-.691a.24.24 0 0 0-.25-.33l-1.515.188.21-1.186 2.754-.343a.72.72 0 0 1 .803.625zm-5.568-3.302-.164.851 1.369-.189c.073.177.1.376.067.578l-.003.018-.192 1.085-1.704.22a.96.96 0 0 1-1.066-1.119l.3-1.444h1.393zm7.91-2.393a.962.962 0 0 1-.06.416l-1.235 3.1a.96.96 0 0 1-.774.61l-3.686.472.136-.766c.056-.317.038-.63-.041-.922l2.456-.34a.48.48 0 0 0 .374-.286l.387-.905a.32.32 0 0 0-.32-.445l-4.942.409-.003.01h-1.379l.19-.907a.96.96 0 0 1 .87-.791l6.997-.54a.96.96 0 0 1 1.03.885z" fill="#FFC55A"/>
        <path d="M17.481 11.36H13.42a1.07 1.07 0 0 0-1.053.884l-2.73 15.458a1.07 1.07 0 0 0 1.052 1.258h4.061a1.07 1.07 0 0 0 1.053-.884l.823-4.65a.428.428 0 0 1 .42-.354h2.61a.428.428 0 0 1 .422.503l-.73 4.127A1.07 1.07 0 0 0 20.4 28.96h4.061a1.07 1.07 0 0 0 1.053-.884l2.73-15.458a1.07 1.07 0 0 0-1.052-1.258H23.13a1.07 1.07 0 0 0-1.052.883l-.802 4.502a.428.428 0 0 1-.42.354h-2.61a.428.428 0 0 1-.42-.504l.707-3.976a1.07 1.07 0 0 0-1.053-1.259z" fill="#FFF"/>
    </g>
</svg>
