<svg width="81" height="68" viewBox="0 0 81 68" fill="none" xmlns="http://www.w3.org/2000/svg">
<path d="M17.4988 22.5785C17.4988 40.6413 22.0145 45.157 40.0773 45.157C58.1401 45.157 62.6558 40.6413 62.6558 22.5785C62.6558 4.5157 58.1401 0 40.0773 0C22.0145 0 17.4988 4.5157 17.4988 22.5785Z" fill="#E75A2B"/>
<path d="M52.2177 21.7192C52.2386 21.8576 52.2235 21.9991 52.1737 22.1299L51.1417 24.6035C51.04 24.8706 50.8054 25.0648 50.5239 25.1148L47.5921 25.6364C47.1497 25.7151 46.7273 25.4205 46.6486 24.9784C46.6313 24.8815 46.6318 24.7822 46.65 24.6855L47.1173 22.2047C47.1813 21.865 47.4532 21.6029 47.7952 21.5512L51.2918 21.0368C51.736 20.9697 52.1506 21.2752 52.2177 21.7192ZM50.103 22.5853L48.6146 22.8054C48.5003 22.8223 48.4093 22.9098 48.388 23.0233L48.2456 23.779C48.2179 23.9261 48.3147 24.0677 48.4617 24.0954C48.494 24.1015 48.527 24.1017 48.5593 24.0959L49.8829 23.8604C49.9738 23.8443 50.0503 23.7829 50.0857 23.6975L50.3929 22.9572C50.4502 22.819 50.3847 22.6605 50.2464 22.6031C50.2011 22.5843 50.1515 22.5782 50.103 22.5853ZM54.3141 16.5527C54.3306 16.6844 54.3145 16.8183 54.2672 16.9424L53.273 19.4363C53.1677 19.7128 52.9205 19.9104 52.6274 19.9522L48.5958 20.533C48.151 20.5964 47.739 20.2874 47.6756 19.8428C47.663 19.7547 47.665 19.6651 47.6815 19.5777L48.1535 17.0709C48.2189 16.7235 48.5014 16.4582 48.8523 16.4144L53.4061 15.8465C53.852 15.7909 54.2585 16.1071 54.3141 16.5527ZM51.7659 17.3604L49.1574 17.6857C49.0405 17.7003 48.9465 17.7887 48.9247 17.9044L48.7726 18.7121C48.7449 18.8591 48.8417 19.0008 48.9887 19.0285C49.0181 19.034 49.0481 19.0346 49.0776 19.0303L51.5152 18.6778C51.6098 18.6641 51.6902 18.6016 51.7268 18.5133L52.0498 17.7329C52.107 17.5946 52.0413 17.4361 51.9031 17.3789C51.8597 17.3609 51.8125 17.3546 51.7659 17.3604ZM56.9629 10.1227C56.9752 10.2824 56.9519 10.4428 56.8948 10.5924L55.4984 14.0923C55.3559 14.4656 55.0194 14.7303 54.6228 14.7811L47.3058 15.7179C46.7116 15.794 46.1682 15.3742 46.0921 14.7804C46.0782 14.6721 46.0808 14.5624 46.0997 14.455L46.8979 10.6268C46.9836 10.1391 47.3891 9.77143 47.883 9.73346L55.7982 9.12495C56.3955 9.07903 56.917 9.52575 56.9629 10.1227ZM53.8387 11.1775L48.2467 11.6388L47.8296 13.7855L53.3386 13.0253C53.5269 12.9993 53.6878 12.8766 53.7627 12.7019L54.2004 11.6798C54.279 11.4964 54.194 11.284 54.0106 11.2055C53.9564 11.1823 53.8974 11.1727 53.8387 11.1775Z" fill="#FFC55A"/>
<path d="M37.2752 11.651H32.6804C31.5245 11.651 30.5352 12.4806 30.3337 13.6189L27.2445 31.0695C27.0151 32.3656 27.8798 33.6023 29.1759 33.8317C29.313 33.856 29.452 33.8682 29.5913 33.8682H34.1856L34.2202 33.868C35.3609 33.8516 36.3323 33.0278 36.5322 31.9013L37.3625 27.2211H38.9127L38.2302 31.0686C38.0003 32.3646 38.8645 33.6017 40.1605 33.8316C40.2979 33.856 40.4372 33.8682 40.5768 33.8682H45.1713C46.3273 33.8682 47.3166 33.0387 47.5181 31.9004L50.6072 14.4497C50.8367 13.1536 49.972 11.9169 48.6759 11.6875C48.5387 11.6632 48.3997 11.651 48.2604 11.651H43.6664L43.6318 11.6512C42.4919 11.6676 41.5208 12.4904 41.3201 13.6159L40.5153 18.1295H38.9658L39.6215 14.4527C39.8526 13.1569 38.9894 11.9191 37.6936 11.688C37.5555 11.6634 37.4155 11.651 37.2752 11.651ZM37.2752 12.8251C37.3464 12.8251 37.4174 12.8314 37.4875 12.8439C38.1384 12.9599 38.5741 13.5766 38.469 14.2269L38.4657 14.2466L37.6653 18.735C37.6603 18.763 37.6578 18.7914 37.6578 18.8199C37.6578 19.0827 37.8674 19.2966 38.1286 19.3034L38.1415 19.3036H41.0934C41.3235 19.3036 41.521 19.1417 41.5672 18.9176L41.5696 18.9048L42.476 13.822C42.5778 13.251 43.0704 12.8336 43.6487 12.8251H43.6664H48.2604C48.3311 12.8251 48.4016 12.8313 48.4712 12.8436C49.1222 12.9588 49.5587 13.575 49.4545 14.2254L49.4511 14.2451L46.362 31.6957C46.2608 32.2674 45.7679 32.6856 45.1891 32.6941H45.1713H40.5768C40.506 32.6941 40.4353 32.6879 40.3656 32.6756C39.7146 32.5601 39.2783 31.9438 39.3829 31.2934L39.3862 31.2737L40.2126 26.6152C40.2176 26.5873 40.2201 26.5591 40.2201 26.5307C40.2201 26.2679 40.0105 26.054 39.7493 26.0472L39.7364 26.047H36.7838C36.5537 26.047 36.356 26.2091 36.31 26.4335L36.3076 26.4462L35.3762 31.6962C35.2748 32.2677 34.782 32.6856 34.2033 32.6941H34.1856H29.5913C29.5206 32.6941 29.4501 32.688 29.3805 32.6756C28.7295 32.5604 28.293 31.9442 28.3973 31.2939L28.4006 31.2741L31.4897 13.8235C31.5909 13.2518 32.0838 12.8336 32.6627 12.8251H32.6804H37.2752Z" fill="#E75A2B"/>
<path d="M37.2753 12.8247H32.6804C32.0939 12.8247 31.5919 13.2456 31.4897 13.8231L28.4005 31.2738C28.2841 31.9314 28.7228 32.5588 29.3804 32.6753C29.45 32.6876 29.5206 32.6938 29.5912 32.6938H34.1856C34.7719 32.6938 35.2738 32.2731 35.3762 31.6958L36.3076 26.4459C36.3486 26.2149 36.5493 26.0467 36.7839 26.0467H39.7365C40.0036 26.0467 40.2202 26.2632 40.2202 26.5304C40.2202 26.5587 40.2177 26.587 40.2127 26.6149L39.3863 31.2733C39.2696 31.9309 39.7081 32.5585 40.3657 32.6752C40.4354 32.6876 40.5061 32.6938 40.5769 32.6938H45.1715C45.758 32.6938 46.2599 32.2729 46.3622 31.6953L49.4513 14.2447C49.5677 13.5871 49.129 12.9596 48.4714 12.8432C48.4018 12.8309 48.3313 12.8247 48.2606 12.8247H43.6665C43.0806 12.8247 42.5789 13.2448 42.4761 13.8217L41.5697 18.9044C41.5286 19.1352 41.3279 19.3032 41.0935 19.3032H38.1415C37.8744 19.3032 37.6578 19.0867 37.6578 18.8195C37.6578 18.7911 37.6603 18.7627 37.6653 18.7346L38.4657 14.2462C38.583 13.5887 38.145 12.9607 37.4876 12.8435C37.4175 12.831 37.3464 12.8247 37.2753 12.8247Z" fill="white"/>
<mask id="mask0" mask-type="alpha" maskUnits="userSpaceOnUse" x="0" y="51" width="14" height="18">
<path d="M0 51.7866H13.208V68.0001H0V51.7866Z" fill="white"/>
</mask>
<g mask="url(#mask0)">
<path fill-rule="evenodd" clip-rule="evenodd" d="M3.33084 67.5256V61.8039C3.33084 61.5419 3.54327 61.3294 3.80538 61.3294H9.40251C9.66461 61.3294 9.87705 61.5419 9.87705 61.8039V67.5256C9.87705 67.7876 10.0895 68.0001 10.3516 68.0001H12.7334C12.9955 68.0001 13.2079 67.7876 13.2079 67.5256V52.2612C13.2079 51.9991 12.9955 51.7866 12.7334 51.7866H10.3516C10.0895 51.7866 9.87705 51.9991 9.87705 52.2612V57.7511C9.87705 58.0132 9.66461 58.2257 9.40251 58.2257H3.80538C3.54327 58.2257 3.33084 58.0132 3.33084 57.7511V52.2612C3.33084 51.9991 3.11832 51.7866 2.8563 51.7866H0.474419C0.212393 51.7866 -0.00012207 51.9991 -0.00012207 52.2612V67.5256C-0.00012207 67.7876 0.212393 68.0001 0.474419 68.0001H2.8563C3.11832 68.0001 3.33084 67.7876 3.33084 67.5256Z" fill="#2B2B2B"/>
</g>
<path fill-rule="evenodd" clip-rule="evenodd" d="M26.0767 65.1474C26.0767 65.1488 26.0759 65.1503 26.0745 65.1511H26.0782C26.0833 65.1429 26.087 65.1348 26.0892 65.1267C26.0863 65.134 26.0818 65.1407 26.0767 65.1474Z" fill="#2B2B2B"/>
<path fill-rule="evenodd" clip-rule="evenodd" d="M18.3904 60.5657C18.2869 60.5657 18.2102 60.4676 18.2368 60.3676C18.5526 59.179 19.5303 58.2721 21.0523 58.2721C22.7583 58.2721 23.5621 59.5377 23.7056 60.3797C23.7222 60.4769 23.6481 60.5657 23.5495 60.5657H18.3904ZM21.0491 55.6637C17.789 55.5941 15.0383 58.3069 15.1079 61.8319C15.1079 65.4724 17.8357 68.0001 21.072 68.0001C23.565 68.0001 25.2227 66.8953 26.0785 65.1529H26.0745C26.0761 65.1521 26.0769 65.1505 26.0769 65.1489C26.0824 65.1418 26.0872 65.1347 26.0903 65.1268C26.0935 65.1221 26.0959 65.1173 26.0982 65.1126C26.1038 65.1031 26.1077 65.0936 26.1117 65.0841C26.114 65.0809 26.1156 65.077 26.1172 65.0722C26.1394 65.0177 26.1512 64.9583 26.1512 64.8959C26.1512 64.6712 25.9946 64.4822 25.7842 64.434H25.7834V64.4316L23.9889 63.8977L23.9644 63.8906H23.9636C23.9232 63.8788 23.8813 63.8732 23.8378 63.8732C23.6567 63.8732 23.4985 63.9752 23.4187 64.1247H23.4171C23.0208 64.759 22.2299 65.3103 21.072 65.3103C19.599 65.3103 18.4809 64.2612 18.2365 63.0411C18.2169 62.9434 18.2927 62.8522 18.3923 62.8522H26.0998C26.3619 62.8522 26.5743 62.6397 26.5743 62.3776V61.7394C26.5743 58.1677 24.4476 55.6637 21.0491 55.6637Z" fill="#2B2B2B"/>
<path fill-rule="evenodd" clip-rule="evenodd" d="M25.7835 64.4314L25.7843 64.4337H25.7835V64.4314Z" fill="#FDF5EC"/>
<path fill-rule="evenodd" clip-rule="evenodd" d="M26.0773 65.1519H26.0745C26.0756 65.1513 26.0761 65.1502 26.0761 65.149L26.0773 65.1519Z" fill="#FDF5EC"/>
<path fill-rule="evenodd" clip-rule="evenodd" d="M68.3084 65.151H68.3122C68.3173 65.1437 68.3202 65.1363 68.3224 65.1289C68.3181 65.1363 68.3136 65.1437 68.3084 65.151Z" fill="#2B2B2B"/>
<path fill-rule="evenodd" clip-rule="evenodd" d="M68.3225 65.1289C68.3203 65.1363 68.3173 65.1437 68.3122 65.151H68.3085C68.3136 65.1437 68.3181 65.1363 68.3225 65.1289Z" fill="#FDF5EC"/>
<path fill-rule="evenodd" clip-rule="evenodd" d="M60.6244 60.5657C60.521 60.5657 60.4442 60.4676 60.4708 60.3676C60.7867 59.179 61.7642 58.2721 63.2863 58.2721C64.9924 58.2721 65.7962 59.5377 65.9397 60.3797C65.9562 60.4769 65.8822 60.5657 65.7834 60.5657H60.6244ZM63.2831 55.6637C60.023 55.5941 57.2722 58.3069 57.3418 61.8319C57.3418 65.4724 60.0697 68.0001 63.306 68.0001C65.799 68.0001 67.4568 66.8953 68.3125 65.1529H68.3085C68.3141 65.145 68.3188 65.1371 68.3236 65.1292C68.3243 65.1284 68.3243 65.1276 68.3243 65.1268C68.3275 65.1221 68.3299 65.1173 68.3323 65.1126C68.3394 65.0999 68.3457 65.0865 68.3512 65.0722C68.3734 65.0177 68.3853 64.9583 68.3853 64.8959C68.3853 64.6705 68.2279 64.4822 68.0175 64.434V64.4316L66.2229 63.8977C66.2143 63.8954 66.2063 63.8922 66.1984 63.8906C66.196 63.8898 66.1928 63.889 66.1905 63.8882C66.1525 63.8788 66.1129 63.8732 66.0719 63.8732C65.8908 63.8732 65.7326 63.9752 65.6526 64.1247H65.6511C65.2549 64.759 64.464 65.3103 63.306 65.3103C61.833 65.3103 60.715 64.2612 60.4705 63.0411C60.451 62.9434 60.5267 62.8522 60.6264 62.8522H68.3339C68.5959 62.8522 68.8084 62.6397 68.8084 62.3776V61.7394C68.8084 58.1677 66.6817 55.6637 63.2831 55.6637Z" fill="#2B2B2B"/>
<path fill-rule="evenodd" clip-rule="evenodd" d="M35.6338 58.6675H35.6345L35.6316 58.6739C35.6323 58.6718 35.6331 58.6696 35.6338 58.6675Z" fill="#2B2B2B"/>
<path fill-rule="evenodd" clip-rule="evenodd" d="M36.1844 55.9758C36.1763 55.9721 36.1682 55.9691 36.1601 55.9669V55.9655C36.1682 55.9684 36.1763 55.9721 36.1844 55.9758Z" fill="#2B2B2B"/>
<path fill-rule="evenodd" clip-rule="evenodd" d="M35.6345 58.6675L35.6317 58.6739C35.6324 58.6718 35.6331 58.6696 35.6338 58.6675H35.6345Z" fill="#FDF5EC"/>
<path fill-rule="evenodd" clip-rule="evenodd" d="M36.1844 55.9758C36.1763 55.9721 36.1682 55.9691 36.1601 55.9669V55.9655C36.1682 55.9684 36.1763 55.9721 36.1844 55.9758Z" fill="#FDF5EC"/>
<path fill-rule="evenodd" clip-rule="evenodd" d="M36.4905 56.4198C36.4905 56.4815 36.4787 56.5408 36.4573 56.5954H36.4565C36.4557 56.5985 36.4542 56.6025 36.4526 56.6064L35.6348 58.6675H35.634C35.6332 58.6699 35.6324 58.6723 35.6316 58.6747C35.63 58.6794 35.6285 58.6834 35.6261 58.6881C35.6245 58.6944 35.6213 58.7008 35.619 58.7079C35.5454 58.8748 35.3777 58.9918 35.184 58.9918C35.1326 58.9918 35.0835 58.9839 35.0369 58.9681V58.9697C34.7759 58.8661 34.4603 58.8178 34.0957 58.8178C33.4313 58.8178 32.8682 59.0614 32.4704 59.5209C32.0726 59.9804 31.8416 60.6567 31.8416 61.5227V67.4782C31.8416 67.7403 31.6292 67.9527 31.3671 67.9527H28.9469C28.6849 67.9527 28.4724 67.7403 28.4724 67.4782V56.4688C28.4724 56.2067 28.6849 55.9943 28.9469 55.9943H30.8981C31.095 55.9943 31.2714 56.1161 31.341 56.2996L31.6121 57.0092C31.657 57.1265 31.8148 57.1477 31.8876 57.0452C32.4543 56.2467 33.3682 55.6621 34.594 55.6621C35.1745 55.6621 35.7028 55.7665 36.1599 55.9658V55.9674C36.1686 55.9698 36.1773 55.9729 36.186 55.9769C36.1876 55.9769 36.1892 55.9777 36.1908 55.9785C36.2003 55.9832 36.209 55.9872 36.2185 55.9911C36.2288 55.9959 36.239 56.0014 36.2493 56.0069C36.2509 56.0077 36.2533 56.0085 36.2549 56.0101C36.3956 56.0924 36.4905 56.245 36.4905 56.4198Z" fill="#2B2B2B"/>
<path fill-rule="evenodd" clip-rule="evenodd" d="M41.4116 67.4783V61.1906C41.4116 59.6008 42.1472 58.7942 43.3098 58.7942C44.4487 58.7942 45.0656 59.506 45.0656 60.9534V67.4783C45.0656 67.7403 45.2781 67.9528 45.5401 67.9528H47.9603C48.2224 67.9528 48.4349 67.7403 48.4349 67.4783V61.1906C48.4349 59.6008 49.1704 58.7942 50.333 58.7942C51.4956 58.7942 52.065 59.506 52.065 60.9534V67.4783C52.065 67.7403 52.2776 67.9528 52.5396 67.9528H54.9598C55.2218 67.9528 55.4344 67.7403 55.4344 67.4783V60.1229C55.4344 57.0859 54.0107 55.6622 51.6142 55.6622C50.0739 55.6622 48.8697 56.3133 48.1003 57.1807C48.0304 57.2595 47.9056 57.2482 47.8492 57.1592C47.2215 56.1679 46.2146 55.6622 44.8283 55.6622C43.3652 55.6622 42.1433 56.3053 41.44 57.0922C41.3607 57.1808 41.2155 57.1516 41.1749 57.0398L40.9083 56.3067C40.8401 56.1192 40.6619 55.9944 40.4624 55.9944H38.5169C38.2549 55.9944 38.0424 56.2068 38.0424 56.469V67.4783C38.0424 67.7403 38.2549 67.9528 38.5169 67.9528H40.9371C41.1992 67.9528 41.4116 67.7403 41.4116 67.4783Z" fill="#2B2B2B"/>
<path fill-rule="evenodd" clip-rule="evenodd" d="M80.3556 67.4623V65.5716C80.3556 65.3095 80.1431 65.0971 79.8811 65.0971H74.9262C74.8701 65.0971 74.815 65.0705 74.7863 65.0222C74.7501 64.9614 74.7579 64.8899 74.7979 64.8399L80.1289 58.2015C80.1966 58.1171 80.2335 58.0123 80.2335 57.9043V56.0733C80.2335 55.8112 80.0211 55.5988 79.759 55.5988H71.0358C70.7737 55.5988 70.5612 55.8112 70.5612 56.0733V57.9639C70.5612 58.226 70.7737 58.4385 71.0358 58.4385H75.6969C75.753 58.4385 75.808 58.4651 75.8367 58.5134C75.8729 58.5743 75.8652 58.6459 75.8249 58.6959L70.5128 65.2878C70.4335 65.3862 70.3903 65.5087 70.3903 65.6351V67.4623C70.3903 67.7243 70.6028 67.9368 70.8648 67.9368H79.8811C80.1431 67.9368 80.3556 67.7243 80.3556 67.4623Z" fill="#2B2B2B"/>
</svg>
