<svg xmlns="http://www.w3.org/2000/svg" width="31" height="26" fill="none" viewBox="0 0 31 26">
    <path fill="#FFA600" fill-rule="evenodd" d="M25.846 13.988c.054-.14.07-.292.048-.441-.072-.478-.518-.806-.996-.734l-2.043.3-.268 1.518 1.033-.153c.052-.008.105-.001.154.02.149.06.22.231.157.38l-.33.796c-.038.092-.12.158-.218.175l-1.045.186-.269 1.52 2.003-.357c.303-.054.555-.262.665-.55l1.11-2.66zM19.68 3.981l-.365 1.754c-.02.116-.023.234-.009.35.082.639.667 1.09 1.306 1.008l2.074-.265.234-1.32.003-.02c.04-.247.007-.488-.082-.703l-1.666.23.2-1.034H19.68zm4.433.629l2.986-.412c.203-.028.376-.16.456-.348l.47-1.1c.085-.196-.006-.425-.203-.51-.058-.024-.122-.035-.185-.03l-6.013.497-.003.012h-1.677l.23-1.1c.091-.525.527-.92 1.059-.961l8.511-.655c.642-.049 1.203.431 1.253 1.073.013.172-.012.345-.074.506l-1.501 3.763c-.154.402-.515.686-.942.74l-4.482.575.165-.932c.068-.385.046-.765-.05-1.118zm-1.601 3.203l-.237.03c-.378.046-.681.332-.752.705l-.507 2.696c-.018.094-.02.19-.007.285.055.384.352.674.714.738l.789-4.454zm.519 4.31l3.303-.476c.316-.045.581-.258.695-.555l1.069-2.682c.05-.133.068-.277.05-.42-.06-.478-.497-.818-.976-.758l-3.35.417-.254 1.44 1.84-.23c.05-.006.1.001.147.02.15.062.22.232.158.381l-.347.84c-.04.094-.126.161-.228.176l-1.827.264-.28 1.583zm-1.492 1.184l-.401.06c-.368.055-.66.336-.729.702l-.502 2.668c-.02.104-.02.21-.002.315.074.418.434.713.843.72l.791-4.465z" clip-rule="evenodd" opacity=".7"/>
    <path fill="#E75A2B" d="M9.825 3.98H4.884c-.63 0-1.17.453-1.28 1.074L.28 23.82c-.125.707.347 1.381 1.054 1.507.075.013.15.02.227.02h4.94c.631 0 1.17-.453 1.28-1.074l1.002-5.645c.044-.249.26-.43.513-.43h3.175c.287 0 .52.233.52.52 0 .031-.003.061-.008.091l-.889 5.01c-.125.707.346 1.382 1.053 1.508.075.013.151.02.227.02h4.941c.63 0 1.17-.453 1.28-1.074L22.92 5.507c.125-.707-.347-1.382-1.054-1.507-.075-.013-.15-.02-.227-.02h-4.94c-.63 0-1.17.452-1.28 1.072l-.975 5.466c-.044.248-.26.429-.512.429h-3.174c-.288 0-.52-.233-.52-.52 0-.03.002-.061.007-.091l.861-4.827c.126-.707-.345-1.383-1.052-1.509-.075-.013-.152-.02-.228-.02z"/>
    <path fill="#E75A2B" d="M9.824 3.98H4.883c-.631 0-1.171.453-1.28 1.074L.28 23.819c-.125.707.347 1.382 1.054 1.507.075.014.15.02.227.02H6.5c.63 0 1.17-.452 1.28-1.073l1.002-5.645c.044-.249.26-.43.512-.43h3.175c.287 0 .52.233.52.52 0 .03-.002.061-.008.091l-.888 5.01c-.126.707.346 1.382 1.053 1.507.075.014.15.02.227.02h4.94c.631 0 1.171-.452 1.281-1.073l3.322-18.766c.125-.707-.346-1.382-1.054-1.507-.074-.013-.15-.02-.226-.02h-4.94c-.63 0-1.17.452-1.28 1.072l-.975 5.466c-.045.248-.26.429-.512.429h-3.175c-.287 0-.52-.233-.52-.52 0-.031.003-.062.008-.092l.86-4.826c.127-.707-.344-1.383-1.051-1.509-.075-.013-.152-.02-.228-.02z"/>
</svg>
