<svg width="128" height="108" xmlns="http://www.w3.org/2000/svg" xmlns:xlink="http://www.w3.org/1999/xlink">
  <defs>
    <path id="a" d="M0 0h20.977v25.751H0z"/>
  </defs>
  <g fill="none" fill-rule="evenodd">
    <path d="M27.88 35.86c0 28.687 7.173 35.86 35.86 35.86 28.688 0 35.86-7.173 35.86-35.86C99.6 7.172 92.428 0 63.74 0 35.054 0 27.88 7.172 27.88 35.86Z" fill="#8247E5" fill-rule="nonzero"/>
    <path d="M83.022 34.495c.033.22.01.444-.07.652l-1.639 3.929a1.292 1.292 0 0 1-.981.812l-4.656.828a1.292 1.292 0 0 1-1.497-1.51l.743-3.94c.101-.54.533-.956 1.076-1.038l5.554-.817a1.292 1.292 0 0 1 1.47 1.084Zm-3.359 1.375-2.363.35a.43.43 0 0 0-.36.346l-.226 1.2a.43.43 0 0 0 .498.503l2.102-.374a.43.43 0 0 0 .322-.258l.488-1.176a.43.43 0 0 0-.46-.59Zm6.689-9.581c.026.21 0 .422-.075.619l-1.579 3.96c-.167.44-.56.754-1.025.82l-6.403.923a1.292 1.292 0 0 1-1.452-1.518l.75-3.981a1.292 1.292 0 0 1 1.11-1.043l7.232-.902a1.292 1.292 0 0 1 1.442 1.122Zm-4.047 1.283-4.143.517a.43.43 0 0 0-.37.347l-.242 1.283a.43.43 0 0 0 .485.505l3.871-.56a.43.43 0 0 0 .336-.261l.513-1.24a.43.43 0 0 0-.45-.591Zm8.254-11.495a1.72 1.72 0 0 1-.109.746l-2.217 5.558a1.723 1.723 0 0 1-1.391 1.094l-11.621 1.488a1.722 1.722 0 0 1-1.916-2.006l1.268-6.08a1.723 1.723 0 0 1 1.565-1.418l12.57-.967a1.722 1.722 0 0 1 1.85 1.585Zm-4.962 1.675-8.882.733-.662 3.41 8.75-1.208a.86.86 0 0 0 .673-.514l.695-1.623a.574.574 0 0 0-.574-.798Z" fill="#FFC55A" fill-rule="nonzero"/>
    <path d="M59.29 18.504h-7.298a3.785 3.785 0 0 0-3.727 3.125L43.36 49.345a3.785 3.785 0 0 0 3.727 4.445H54.438a3.785 3.785 0 0 0 3.672-3.124l1.318-7.433h2.463l-1.084 6.11a3.785 3.785 0 0 0 3.727 4.447h7.297a3.785 3.785 0 0 0 3.727-3.126l4.906-27.715a3.785 3.785 0 0 0-3.727-4.445h-7.351a3.785 3.785 0 0 0-3.672 3.12l-1.278 7.169h-2.461l1.041-5.84a3.785 3.785 0 0 0-3.726-4.45Zm0 1.864a1.92 1.92 0 0 1 1.896 2.226l-.005.032-1.272 7.129a.768.768 0 0 0 .736.903h4.71c.364 0 .678-.257.751-.613l.004-.02 1.44-8.073a1.92 1.92 0 0 1 1.862-1.584H76.737a1.92 1.92 0 0 1 1.896 2.224l-.005.032-4.906 27.715a1.92 1.92 0 0 1-1.863 1.586H64.534a1.92 1.92 0 0 1-1.896-2.225l.005-.031 1.312-7.399a.768.768 0 0 0-.736-.902h-4.71a.768.768 0 0 0-.752.614l-.004.02-1.48 8.338a1.92 1.92 0 0 1-1.862 1.585H47.086a1.918 1.918 0 0 1-1.896-2.224l.005-.031 4.906-27.716a1.921 1.921 0 0 1 1.863-1.586h7.326Z" fill="#8247E5" fill-rule="nonzero"/>
    <path d="M59.29 20.368h-7.298a1.92 1.92 0 0 0-1.89 1.586L45.194 49.67a1.92 1.92 0 0 0 1.89 2.255h7.298a1.92 1.92 0 0 0 1.89-1.585l1.48-8.338a.768.768 0 0 1 .756-.634h4.69a.768.768 0 0 1 .756.902l-1.312 7.399a1.92 1.92 0 0 0 1.89 2.256h7.298a1.92 1.92 0 0 0 1.891-1.586l4.906-27.715a1.92 1.92 0 0 0-1.89-2.256H69.44a1.92 1.92 0 0 0-1.891 1.584l-1.44 8.072a.768.768 0 0 1-.756.634h-4.688a.768.768 0 0 1-.757-.903l1.272-7.13a1.92 1.92 0 0 0-1.891-2.257Z" fill="#FFF" fill-rule="nonzero"/>
    <g transform="translate(.089 82.25)">
      <mask id="b" fill="#fff">
        <use xlink:href="#a"/>
      </mask>
      <path d="M5.29 24.997V15.91c0-.416.338-.754.754-.754h8.89c.416 0 .753.338.753.754v9.087c0 .416.338.754.754.754h3.783a.754.754 0 0 0 .753-.754V.754A.754.754 0 0 0 20.224 0H16.44a.754.754 0 0 0-.754.754v8.719a.754.754 0 0 1-.753.754h-8.89a.754.754 0 0 1-.754-.754V.753A.754.754 0 0 0 4.537 0H.754A.754.754 0 0 0 0 .754v24.243c0 .416.338.754.754.754h3.783a.754.754 0 0 0 .753-.754Z" fill="#081132" mask="url(#b)"/>
    </g>
    <path d="M41.505 103.471c0 .003-.002.006-.004.007h.006a.154.154 0 0 0 .02-.042.151.151 0 0 1-.022.035Z" fill="#081132"/>
    <path d="M29.297 96.192a.252.252 0 0 1-.244-.315c.502-1.887 2.054-3.328 4.472-3.328 2.71 0 3.986 2.01 4.214 3.348a.252.252 0 0 1-.248.295h-8.194Zm4.223-7.786c-5.178-.11-9.547 4.198-9.436 9.797 0 5.782 4.332 9.797 9.472 9.797 3.96 0 6.592-1.755 7.951-4.523h-.006c.003-.001.004-.003.004-.006a.131.131 0 0 0 .021-.035.367.367 0 0 0 .043-.087.752.752 0 0 0-.529-1.013h-.001v-.004l-2.85-.848-.04-.011a.756.756 0 0 0-.866.371h-.003c-.629 1.008-1.885 1.883-3.724 1.883-2.34 0-4.115-1.666-4.503-3.604a.252.252 0 0 1 .247-.3h12.241a.754.754 0 0 0 .754-.753v-1.014c0-5.673-3.378-9.65-8.775-9.65Z" fill="#081132"/>
    <path fill="#FDF5EC" d="M41.039 102.332v.003zM41.505 103.476h-.004l.003-.004.001.004Z"/>
    <path d="M108.578 103.478h.006a.136.136 0 0 0 .018-.039l-.024.039Z" fill="#081132"/>
    <path d="M108.602 103.439a.114.114 0 0 1-.018.039h-.006a.41.41 0 0 0 .024-.039Z" fill="#FDF5EC"/>
    <path d="M96.374 96.192a.252.252 0 0 1-.244-.315c.501-1.887 2.054-3.328 4.471-3.328 2.71 0 3.987 2.01 4.215 3.348a.253.253 0 0 1-.249.295h-8.193Zm4.222-7.786c-5.178-.11-9.546 4.198-9.436 9.797 0 5.782 4.333 9.797 9.473 9.797 3.959 0 6.592-1.755 7.951-4.523h-.006c.009-.012.016-.025.024-.037l.001-.004a.54.54 0 0 0 .043-.087.752.752 0 0 0-.53-1.013v-.004l-2.851-.848c-.013-.004-.026-.009-.038-.011l-.013-.004a.756.756 0 0 0-.854.375h-.003c-.629 1.008-1.885 1.883-3.724 1.883-2.34 0-4.116-1.666-4.504-3.604a.252.252 0 0 1 .248-.3h12.241a.754.754 0 0 0 .754-.753v-1.014c0-5.673-3.378-9.65-8.776-9.65ZM56.684 93.177h.001l-.005.012.004-.012ZM57.562 88.904a.297.297 0 0 0-.043-.016v-.002c.014.005.029.011.043.018Z" fill="#081132"/>
    <path d="m56.685 93.177-.005.012.004-.012h.001ZM57.562 88.904a.297.297 0 0 0-.043-.016v-.002c.014.005.029.011.043.018Z" fill="#FDF5EC"/>
    <path d="M58.044 89.607a.765.765 0 0 1-.053.28.126.126 0 0 1-.007.017l-1.299 3.273h-.001l-.004.011a.149.149 0 0 1-.009.022c-.002.01-.007.02-.011.031a.756.756 0 0 1-.925.414v.002c-.414-.165-.915-.241-1.494-.241-1.056 0-1.95.387-2.582 1.117-.632.73-.998 1.803-.998 3.179v9.458a.753.753 0 0 1-.754.754h-3.844a.753.753 0 0 1-.753-.754V89.685c0-.416.337-.754.753-.754h3.1c.312 0 .592.194.703.485l.43 1.127a.25.25 0 0 0 .438.058c.9-1.269 2.351-2.197 4.298-2.197.922 0 1.761.166 2.487.482v.003a.276.276 0 0 1 .05.017.712.712 0 0 0 .043.02l.05.026a.753.753 0 0 1 .383.656ZM65.86 107.17v-9.986c0-2.525 1.168-3.806 3.015-3.806 1.808 0 2.788 1.13 2.788 3.43v10.362c0 .417.338.754.754.754h3.844a.754.754 0 0 0 .753-.754v-9.986c0-2.525 1.169-3.806 3.015-3.806 1.847 0 2.751 1.13 2.751 3.43v10.362c0 .417.337.754.754.754h3.844a.754.754 0 0 0 .753-.754V95.488c0-4.823-2.26-7.084-6.067-7.084-2.446 0-4.359 1.034-5.581 2.412a.25.25 0 0 1-.399-.035c-.997-1.574-2.596-2.377-4.798-2.377-2.323 0-4.264 1.021-5.381 2.27a.25.25 0 0 1-.421-.082l-.423-1.165a.754.754 0 0 0-.709-.496h-3.09a.754.754 0 0 0-.753.754v17.485c0 .417.337.754.753.754h3.844a.753.753 0 0 0 .754-.754ZM127.712 107.145v-3.002a.754.754 0 0 0-.754-.754h-7.869a.255.255 0 0 1-.222-.119.254.254 0 0 1 .018-.29l8.467-10.543a.757.757 0 0 0 .166-.472v-2.908a.753.753 0 0 0-.754-.754H112.91a.754.754 0 0 0-.754.754v3.003c0 .416.338.754.754.754h7.403c.089 0 .176.042.222.119a.254.254 0 0 1-.019.29l-8.437 10.469a.877.877 0 0 0-.194.551v2.902c0 .417.337.754.753.754h14.32a.754.754 0 0 0 .754-.754Z" fill="#081132"/>
  </g>
</svg>