<svg width="247" height="123" viewBox="0 0 247 123" fill="none" xmlns="http://www.w3.org/2000/svg">
<g clip-path="url(#clip0)">
<mask id="mask0" mask-type="alpha" maskUnits="userSpaceOnUse" x="-1" y="0" width="249" height="123">
<path d="M226.539 0H19.9228C8.51174 0 -0.73877 9.24822 -0.73877 20.6565V102.108C-0.73877 113.517 8.51174 122.765 19.9228 122.765H226.539C237.95 122.765 247.2 113.517 247.2 102.108V20.6565C247.2 9.24822 237.95 0 226.539 0Z" fill="white"/>
</mask>
<g mask="url(#mask0)">
<path d="M226.539 0H19.9228C8.51174 0 -0.73877 9.24822 -0.73877 20.6565V102.108C-0.73877 113.517 8.51174 122.765 19.9228 122.765H226.539C237.95 122.765 247.2 113.517 247.2 102.108V20.6565C247.2 9.24822 237.95 0 226.539 0Z" fill="white"/>
</g>
<mask id="mask1" mask-type="alpha" maskUnits="userSpaceOnUse" x="-1" y="0" width="249" height="123">
<path d="M226.539 0H19.9228C8.51174 0 -0.73877 9.24822 -0.73877 20.6565V102.108C-0.73877 113.517 8.51174 122.765 19.9228 122.765H226.539C237.95 122.765 247.2 113.517 247.2 102.108V20.6565C247.2 9.24822 237.95 0 226.539 0Z" fill="white"/>
</mask>
<g mask="url(#mask1)">
<path opacity="0.278065" d="M226.539 0H19.9228C8.51174 0 -0.73877 9.24822 -0.73877 20.6565V102.108C-0.73877 113.517 8.51174 122.765 19.9228 122.765H226.539C237.95 122.765 247.2 113.517 247.2 102.108V20.6565C247.2 9.24822 237.95 0 226.539 0Z" fill="url(#paint0_linear)"/>
<path d="M149.09 91.3409C150.143 85.7013 152.82 71.4314 143.765 70.7721C141.283 70.6104 139.071 72.5465 139.179 72.916C139.652 74.5817 138.065 68.973 135.436 67.6124C134.575 67.1547 133.586 66.9986 132.627 67.1688C131.23 67.472 130.671 68.5097 130.341 68.3333C129.758 68.0213 131.26 64.6604 132.267 60.6869C133.273 56.7135 134.407 52.4583 132.728 49.4605C132.442 48.9008 131.452 47.1142 129.55 46.5368C127.191 45.8158 124.475 47.0629 122.614 49.5169C119.275 53.9499 117.575 62.7467 115.897 67.9756C115.678 67.6548 115.449 67.3309 115.21 67.0198C114.13 65.5026 112.796 64.1846 111.265 63.1249C107.091 60.3803 103.74 64.2262 103.646 68.1998C103.564 71.7266 105.057 75.2681 105.907 78.5683C107.488 84.6845 108.783 90.7867 107.171 97.0555C107.149 97.1546 97.8947 133.249 92.5632 141.228C90.6363 143.987 89.3335 147.258 87.1327 149.803C99.8001 155.994 112.659 159.373 126.657 160.994C138.148 138.861 144.45 116.104 149.09 91.3409Z" fill="#081132"/>
<path d="M120.466 81.5006C119.857 76.501 118.148 71.6981 115.462 67.4371" stroke="#FFC55A" stroke-width="1.02861" stroke-linecap="round"/>
<path d="M129.691 69.474C127.699 72.9426 125.918 77.1776 125.817 81.2269C125.759 83.5174 126.209 86.8214 128.142 88.3815C129.695 89.6317 131.697 89.2249 133.218 88.1479C135.003 86.8844 135.849 84.8025 136.478 82.7885C137.381 79.8681 138.126 76.8922 138.755 73.8993" stroke="#FFC55A" stroke-width="1.02861" stroke-linecap="round"/>
<path d="M138.755 73.8988C137.651 77.183 136.902 80.5764 136.522 84.0206C136.158 87.1515 135.647 91.5558 139.251 93.0357C145.717 95.6909 148.199 85.3796 148.585 81.0664" stroke="#FFC55A" stroke-width="1.02861" stroke-linecap="round"/>
<path d="M114.038 67.5441C126.502 62.5099 132.523 48.3264 127.486 35.8643C122.449 23.4021 108.262 17.3805 95.7984 22.4147C83.3345 27.4488 77.3135 41.6323 82.3501 54.0945C87.3868 66.5566 101.574 72.5782 114.038 67.5441Z" fill="#B87200"/>
<path d="M111.054 69.0182C123.518 63.9841 129.539 49.8005 124.503 37.3384C119.466 24.8763 105.279 18.8547 92.815 23.8888C80.3511 28.9229 74.3301 43.1065 79.3667 55.5686C84.4034 68.0307 98.5904 74.0523 111.054 69.0182Z" fill="url(#paint1_linear)"/>
<path d="M106.913 43.6035L107.623 46.9404C107.336 47.0492 107.003 46.9442 106.834 46.6739C106.792 46.6064 106.762 46.5318 106.746 46.4537L106.343 44.4518C106.288 44.1776 106.412 43.8988 106.652 43.7568L106.913 43.6035ZM110.01 42.5473C110.067 42.6447 110.099 42.7554 110.101 42.8686L110.08 45.0357C110.085 45.2668 109.968 45.4833 109.773 45.6059L108.48 46.417L108.238 45.281L108.913 44.8585C108.976 44.8189 109.015 44.7498 109.016 44.6751L109.021 44.027C109.022 43.906 108.925 43.8069 108.804 43.8056C108.764 43.8052 108.725 43.8155 108.691 43.8356L108.015 44.232L107.774 43.0989L109.111 42.315C109.422 42.1305 109.825 42.2345 110.01 42.5473ZM106.041 39.4969L106.749 42.8258C106.479 42.8827 106.191 42.7638 106.045 42.5114C106.009 42.4491 105.983 42.3814 105.969 42.3108L105.562 40.2878C105.505 40.0075 105.636 39.7232 105.885 39.5844L106.041 39.4969ZM110.011 38.0386C110.063 38.1325 110.092 38.2377 110.094 38.3451L110.107 40.5161C110.112 40.7553 109.987 40.9782 109.781 41.098L107.616 42.3584L107.365 41.1757L108.563 40.478C108.629 40.4391 108.67 40.368 108.671 40.2907L108.676 39.6077C108.677 39.4867 108.58 39.3877 108.459 39.3865C108.421 39.3861 108.384 39.3956 108.351 39.414L107.134 40.0911L106.906 39.0156L109.118 37.7831C109.435 37.6068 109.834 37.7212 110.011 38.0386ZM104.171 37.144L104.324 37.9212L105.416 37.293C105.539 37.418 105.63 37.5773 105.672 37.7601L105.675 37.7759L105.884 38.7611L104.518 39.5289C104.097 39.7655 103.563 39.6147 103.326 39.1922C103.283 39.1152 103.252 39.0321 103.233 38.9458L102.993 37.6198L104.171 37.144ZM110.042 32.4155C110.1 32.5315 110.131 32.6589 110.134 32.7884L110.151 35.8354C110.157 36.1585 109.986 36.4586 109.705 36.6165L106.748 38.2763L106.602 37.5803C106.541 37.2924 106.418 37.0332 106.251 36.8135L108.212 35.6873C108.345 35.6109 108.428 35.4703 108.431 35.3166L108.449 34.4177C108.452 34.2564 108.324 34.1228 108.163 34.1192C108.115 34.1182 108.068 34.1288 108.026 34.1502L103.985 36.185L103.986 36.194L102.82 36.6649L102.669 35.8332C102.586 35.4414 102.777 35.0432 103.135 34.8656L108.869 32.0188C109.302 31.8039 109.827 31.9815 110.042 32.4155Z" fill="#FFEECF"/>
<path d="M96.1391 40.3889L92.7034 41.7765C92.2649 41.9536 92.0172 42.421 92.1158 42.8851L95.0965 56.9083C95.2088 57.4368 95.7271 57.775 96.2541 57.6637C96.3099 57.6519 96.3645 57.6353 96.4173 57.6139L99.8526 56.2264C100.291 56.0494 100.539 55.5822 100.44 55.1182L99.5451 50.8988C99.5058 50.7132 99.6048 50.5263 99.7802 50.4555L101.988 49.5638C102.188 49.4831 102.415 49.5802 102.496 49.7806C102.505 49.8018 102.512 49.8238 102.516 49.8462L103.311 53.5903C103.423 54.1188 103.941 54.4572 104.468 54.3461C104.524 54.3343 104.579 54.3176 104.632 54.2962L108.067 52.9087C108.506 52.7315 108.753 52.2642 108.655 51.8001L105.674 37.7768C105.562 37.2484 105.043 36.9102 104.516 37.0215C104.461 37.0332 104.406 37.0499 104.353 37.0712L100.918 38.4587C100.48 38.6356 100.232 39.1023 100.33 39.566L101.193 43.6525C101.233 43.8381 101.133 44.0247 100.958 44.0955L98.7509 44.987C98.5512 45.0677 98.3236 44.9706 98.2426 44.7702C98.234 44.7489 98.2273 44.7268 98.2225 44.7043L97.4602 41.0957C97.3486 40.5671 96.8307 40.2282 96.3035 40.3388C96.2474 40.3506 96.1923 40.3674 96.1391 40.3889Z" fill="#E75A2B"/>
<path d="M149.077 91.2611C150.13 85.6215 152.808 71.3517 143.753 70.6928C141.271 70.5312 139.059 72.4675 139.167 72.8369C139.64 74.5026 138.053 68.894 135.424 67.5336C134.563 67.076 133.574 66.9199 132.615 67.0902C131.217 67.3934 130.658 68.4312 130.329 68.2547C129.746 67.9428 127.206 71.6169 122.147 74.613C119.553 76.1493 116.454 66.1254 115.885 67.8978C115.665 67.5771 115.436 67.2531 115.198 66.9421C114.118 65.4249 112.783 64.107 111.253 63.0474C107.079 60.303 103.728 64.149 103.633 68.1226C103.551 71.6493 105.044 75.1907 105.894 78.4909C107.475 84.6069 108.769 90.7089 107.157 96.9777C107.135 97.0768 97.8785 133.171 92.5465 141.151C90.6195 143.91 82.2447 157.404 80.0436 159.949C92.711 166.14 113.36 160.277 127.358 161.897C138.851 139.764 144.436 116.024 149.077 91.2611Z" fill="#081132"/>
<path d="M120.5 81.78C119.978 76.7704 118.353 71.9384 115.742 67.6313" stroke="#FFC55A" stroke-width="1.02861" stroke-linecap="round"/>
<path d="M129.922 69.2782C127.93 72.7469 126.149 76.9819 126.047 81.0312C125.989 83.3217 126.439 86.6256 128.372 88.1856C129.925 89.4357 131.927 89.0288 133.448 87.9518C135.233 86.6882 136.079 84.6062 136.708 82.5923C137.612 79.6719 138.357 76.6959 138.986 73.7031" stroke="#FFC55A" stroke-width="1.02861" stroke-linecap="round"/>
<path d="M138.987 73.8476C137.882 77.1319 137.133 80.5253 136.753 83.9695C136.388 87.1004 135.877 91.5046 139.482 92.9843C145.947 95.6392 148.43 85.3278 148.816 81.0147" stroke="#FFC55A" stroke-width="1.02861" stroke-linecap="round"/>
<path d="M-12.886 77.0442C15.6417 77.0442 38.7679 51.5527 38.7679 20.1073C38.7679 -11.3381 15.6417 -36.8296 -12.886 -36.8296C-41.4138 -36.8296 -64.54 -11.3381 -64.54 20.1073C-64.54 51.5527 -41.4138 77.0442 -12.886 77.0442Z" fill="url(#paint2_linear)"/>
<path opacity="0.6998" d="M268.072 82.8337C317.347 82.8337 357.293 43.3589 357.293 -5.33582C357.293 -54.0305 317.347 -93.5054 268.072 -93.5054C218.797 -93.5054 178.852 -54.0305 178.852 -5.33582C178.852 43.3589 218.797 82.8337 268.072 82.8337Z" fill="url(#paint3_linear)"/>
<path opacity="0.455008" d="M-67.8688 121.409C-72.3143 167.704 -41.6305 209.179 0.665298 214.045C42.9611 218.911 80.8524 185.325 85.2979 139.03C89.7433 92.7342 59.0596 51.2597 16.7638 46.3938C-25.532 41.528 -63.4233 75.1134 -67.8688 121.409Z" fill="url(#paint4_linear)"/>
<path opacity="0.504185" d="M164.238 110.066C159.955 150.257 189.516 186.263 230.264 190.488C271.013 194.712 307.518 165.555 311.801 125.363C316.083 85.1715 286.522 49.1653 245.774 44.941C205.025 40.7166 168.52 69.8739 164.238 110.066Z" fill="url(#paint5_linear)"/>
</g>
<path fill-rule="evenodd" clip-rule="evenodd" d="M117.684 26.0382C117.315 26.5185 116.926 27.1056 116.575 27.8059C115.73 29.4895 115.479 31.0734 115.407 32.1486C115.424 31.1923 115.314 29.4426 114.314 27.6561C113.938 26.9854 113.517 26.4516 113.13 26.0382C113.618 25.4594 114.309 24.5019 114.803 23.1604C115.289 21.846 115.395 20.6846 115.407 19.9277C115.504 20.7631 115.706 21.8376 116.14 23.0299C116.607 24.3109 117.191 25.3166 117.684 26.0382Z" fill="#FFF4E0"/>
<path fill-rule="evenodd" clip-rule="evenodd" d="M83.6497 49.7608C83.2801 50.2412 82.8915 50.8283 82.5402 51.5286C81.6951 53.2122 81.4445 54.796 81.3727 55.8712C81.3897 54.915 81.2795 53.1652 80.2789 51.3788C79.9036 50.7081 79.4823 50.1743 79.0957 49.7608C79.5837 49.1821 80.2739 48.2245 80.7688 46.8831C81.2543 45.5687 81.3607 44.4073 81.3727 43.6504C81.4697 44.4857 81.6712 45.5603 82.1057 46.7525C82.5723 48.0335 83.1566 49.0393 83.6497 49.7608Z" fill="#FFF7E9"/>
<path fill-rule="evenodd" clip-rule="evenodd" d="M66.2945 40.4942C65.6911 41.2576 65.057 42.1897 64.4838 43.3013C63.1055 45.9755 62.6962 48.4917 62.579 50.1986C62.6066 48.6801 62.4272 45.9016 60.7947 43.0632C60.1824 41.9987 59.4945 41.1506 58.8643 40.4942C59.6604 39.5754 60.7857 38.0544 61.594 35.924C62.3863 33.8356 62.5592 31.9911 62.579 30.7891C62.7372 32.1166 63.0664 33.8229 63.7748 35.7164C64.5357 37.7513 65.4894 39.3488 66.2945 40.4942Z" fill="#FFF4E0"/>
<path fill-rule="evenodd" clip-rule="evenodd" d="M103.783 17.8908C103.53 18.2395 103.264 18.6652 103.024 19.1732C102.446 20.3946 102.274 21.5438 102.225 22.3241C102.236 21.6298 102.161 20.3606 101.476 19.0644C101.219 18.5782 100.931 18.1907 100.667 17.8908C101.001 17.4709 101.473 16.7766 101.812 15.8031C102.144 14.8498 102.217 14.0069 102.225 13.458C102.291 14.0642 102.429 14.844 102.726 15.7086C103.046 16.6381 103.445 17.3674 103.783 17.8908Z" fill="#E35C26"/>
<path fill-rule="evenodd" clip-rule="evenodd" d="M73.3429 13.5773C73.09 13.9261 72.8238 14.3518 72.5836 14.8598C72.0056 16.0811 71.834 17.2303 71.785 18.0106C71.7963 17.3163 71.7213 16.0472 71.0364 14.7509C70.7795 14.2647 70.4913 13.8772 70.2271 13.5773C70.5609 13.1574 71.033 12.4631 71.3717 11.4896C71.7041 10.5363 71.7767 9.69339 71.785 9.14453C71.8512 9.75072 71.9894 10.5305 72.286 11.3952C72.6056 12.3246 73.0052 13.0539 73.3429 13.5773Z" fill="#E35C26"/>
<path fill-rule="evenodd" clip-rule="evenodd" d="M88.5798 7.00554C88.3268 7.35428 88.0606 7.77999 87.8204 8.28797C87.2424 9.50936 87.0708 10.6586 87.0218 11.4389C87.0331 10.7446 86.9581 9.47539 86.2732 8.17916C86.0164 7.69294 85.7281 7.30545 85.4639 7.00554C85.7977 6.58567 86.2698 5.89137 86.6085 4.91787C86.9409 3.96453 87.0135 3.12161 87.0218 2.57275C87.088 3.17894 87.2262 3.9587 87.5228 4.82338C87.8425 5.75283 88.242 6.48216 88.5798 7.00554Z" fill="#E35C26"/>
</g>
<defs>
<linearGradient id="paint0_linear" x1="389.243" y1="35.2372" x2="29.9234" y2="179.865" gradientUnits="userSpaceOnUse">
<stop stop-color="#FAF4EA"/>
<stop offset="1" stop-color="#FFA600"/>
</linearGradient>
<linearGradient id="paint1_linear" x1="67.0289" y1="25.0411" x2="111.046" y2="69.0268" gradientUnits="userSpaceOnUse">
<stop stop-color="#FFDA4E"/>
<stop offset="1" stop-color="#FFB326"/>
</linearGradient>
<linearGradient id="paint2_linear" x1="-95.3967" y1="-91.7355" x2="44.4572" y2="63.6802" gradientUnits="userSpaceOnUse">
<stop stop-color="#FAF4EA"/>
<stop offset="1" stop-color="#FFA600"/>
</linearGradient>
<linearGradient id="paint3_linear" x1="94.8251" y1="-174.557" x2="354.231" y2="83.8848" gradientUnits="userSpaceOnUse">
<stop stop-color="#FAF4EA"/>
<stop offset="1" stop-color="#FFA600"/>
</linearGradient>
<linearGradient id="paint4_linear" x1="146.576" y1="-16.1577" x2="-79.7606" y2="185.233" gradientUnits="userSpaceOnUse">
<stop stop-color="#FAF4EA"/>
<stop offset="1" stop-color="#FFA600"/>
</linearGradient>
<linearGradient id="paint5_linear" x1="397.223" y1="-5.97563" x2="159.435" y2="184.683" gradientUnits="userSpaceOnUse">
<stop stop-color="#FAF4EA"/>
<stop offset="1" stop-color="#FFA600"/>
</linearGradient>
<clipPath id="clip0">
<rect width="247" height="123" fill="white"/>
</clipPath>
</defs>
</svg>
