<svg width="228" height="94" viewBox="0 0 228 94" fill="none" xmlns="http://www.w3.org/2000/svg">
<mask id="mask0" mask-type="alpha" maskUnits="userSpaceOnUse" x="0" y="0" width="228" height="94">
<path d="M209 0H19C8.50659 0 0 7.08129 0 15.8165V78.1835C0 86.9187 8.50659 94 19 94H209C219.493 94 228 86.9187 228 78.1835V15.8165C228 7.08129 219.493 0 209 0Z" fill="white"/>
</mask>
<g mask="url(#mask0)">
<path d="M208.083 0H18.9167C8.46928 0 0 7.08129 0 15.8165V78.1835C0 86.9187 8.46928 94 18.9167 94H208.083C218.531 94 227 86.9187 227 78.1835V15.8165C227 7.08129 218.531 0 208.083 0Z" fill="white"/>
</g>
<mask id="mask1" mask-type="alpha" maskUnits="userSpaceOnUse" x="0" y="0" width="228" height="94">
<path d="M209 0H19C8.50659 0 0 7.08129 0 15.8165V78.1835C0 86.9187 8.50659 94 19 94H209C219.493 94 228 86.9187 228 78.1835V15.8165C228 7.08129 219.493 0 209 0Z" fill="white"/>
</mask>
<g mask="url(#mask1)">
<path opacity="0.278065" d="M209 0H19C8.50659 0 0 7.08129 0 15.8165V78.1835C0 86.9187 8.50659 94 19 94H209C219.493 94 228 86.9187 228 78.1835V15.8165C228 7.08129 219.493 0 209 0Z" fill="url(#paint0_linear)"/>
<path d="M136.057 69.9237C136.862 65.6057 138.908 54.6799 132.014 54.1801C130.125 54.0576 128.439 55.541 128.522 55.8238C128.881 57.0987 127.676 52.8058 125.675 51.7656C125.019 51.4158 124.266 51.2968 123.536 51.4276C122.472 51.6604 122.046 52.4552 121.795 52.3203C121.351 52.0818 122.497 49.508 123.265 46.4655C124.033 43.4231 124.9 40.1649 123.622 37.8709C123.405 37.4426 122.652 36.0753 121.204 35.6344C119.409 35.0837 117.34 36.0399 115.922 37.9195C113.377 41.315 112.079 48.0504 110.798 52.0544C110.631 51.8089 110.457 51.561 110.276 51.323C109.455 50.1621 108.439 49.1538 107.275 48.3433C104.098 46.2445 101.545 49.1905 101.471 52.2326C101.406 54.9326 102.541 57.643 103.187 60.169C104.387 64.8504 105.37 69.5213 104.139 74.3213C104.122 74.3971 97.0569 102.034 92.9935 108.146C91.525 110.259 90.5313 112.763 88.8543 114.713C98.4953 119.446 108.284 122.026 118.94 123.259C127.701 106.309 132.511 88.8836 136.057 69.9237Z" fill="#2B2B2B"/>
<path d="M114.252 62.4046C113.79 58.5757 112.491 54.8982 110.447 51.6363" stroke="#FFC55A" stroke-width="0.786091" stroke-linecap="round"/>
<path d="M121.28 53.198C119.762 55.8545 118.404 59.0977 118.324 62.1978C118.279 63.9514 118.62 66.4806 120.09 67.6739C121.272 68.6302 122.797 68.3177 123.955 67.4923C125.315 66.5241 125.96 64.9297 126.439 63.3876C127.129 61.1513 127.698 58.8726 128.178 56.581" stroke="#FFC55A" stroke-width="0.786091" stroke-linecap="round"/>
<path d="M128.179 56.5858C127.336 59.1008 126.764 61.6993 126.473 64.3364C126.194 66.7337 125.803 70.1059 128.546 71.237C133.467 73.2664 135.362 65.3705 135.658 62.0681" stroke="#FFC55A" stroke-width="0.786091" stroke-linecap="round"/>
<path d="M109.348 51.7058C118.842 47.8441 123.436 36.9839 119.609 27.4488C115.783 17.9138 104.985 13.3146 95.4908 17.1763C85.997 21.0379 81.4028 31.8982 85.2293 41.4332C89.0558 50.9683 99.854 55.5675 109.348 51.7058Z" fill="#B87200"/>
<path d="M107.078 52.8332C116.572 48.9715 121.166 38.1113 117.339 28.5763C113.513 19.0412 102.715 14.442 93.2208 18.3037C83.727 22.1654 79.1328 33.0256 82.9593 42.5607C86.7858 52.0957 97.584 56.6949 107.078 52.8332Z" fill="url(#paint1_linear)"/>
<path d="M103.934 33.3877L104.471 35.9414C104.252 36.025 103.999 35.945 103.87 35.7382C103.838 35.6866 103.815 35.6295 103.803 35.5698L103.499 34.0377C103.457 33.8278 103.552 33.6143 103.735 33.5054L103.934 33.3877ZM106.294 32.5761C106.337 32.6507 106.361 32.7354 106.363 32.822L106.344 34.481C106.348 34.6578 106.259 34.8237 106.11 34.9177L105.124 35.5399L104.941 34.6706L105.456 34.3465C105.504 34.3161 105.534 34.2631 105.534 34.2059L105.539 33.7098C105.54 33.6172 105.466 33.5414 105.374 33.5406C105.344 33.5403 105.314 33.5483 105.288 33.5636L104.772 33.8677L104.59 33.0006L105.609 32.3992C105.847 32.2576 106.153 32.3369 106.294 32.5761ZM103.273 30.2451L103.809 32.7926C103.603 32.8365 103.384 32.7457 103.273 32.5527C103.246 32.505 103.226 32.4531 103.215 32.3991L102.907 30.851C102.865 30.6365 102.965 30.4187 103.154 30.3122L103.273 30.2451ZM106.299 29.1248C106.339 29.1966 106.36 29.2771 106.362 29.3593L106.37 31.0212C106.373 31.2043 106.278 31.375 106.12 31.467L104.47 32.434L104.28 31.5289L105.193 30.9935C105.244 30.9637 105.275 30.9092 105.276 30.85L105.28 30.3273C105.281 30.2346 105.207 30.1589 105.115 30.1581C105.086 30.1579 105.058 30.1652 105.033 30.1793L104.106 30.6988L103.933 29.8757L105.619 28.9301C105.86 28.7948 106.165 28.8819 106.299 29.1248ZM101.851 28.4458L101.966 29.0406L102.799 28.5586C102.893 28.6542 102.962 28.7761 102.994 28.9159L102.996 28.928L103.154 29.682L102.113 30.2711C101.792 30.4526 101.385 30.3377 101.205 30.0145C101.172 29.9556 101.149 29.8921 101.135 29.826L100.953 28.8112L101.851 28.4458ZM106.328 24.8203C106.372 24.9091 106.396 25.0065 106.398 25.1056L106.408 27.4381C106.412 27.6854 106.282 27.9153 106.067 28.0364L103.813 29.31L103.702 28.7773C103.656 28.5571 103.563 28.3588 103.436 28.1907L104.931 27.3266C105.032 27.2681 105.096 27.1603 105.098 27.0427L105.112 26.3546C105.115 26.2311 105.018 26.1289 104.895 26.1264C104.859 26.1256 104.823 26.1338 104.791 26.1502L101.71 27.7119L101.711 27.7188L100.822 28.0804L100.708 27.4439C100.645 27.1441 100.791 26.8391 101.064 26.7027L105.435 24.5178C105.765 24.3529 106.165 24.4883 106.328 24.8203Z" fill="#FFEECF"/>
<path d="M95.7435 30.9334L93.1257 31.9987C92.7916 32.1347 92.6025 32.4926 92.6771 32.8476L94.933 43.5757C95.018 43.98 95.4124 44.2382 95.8138 44.1526C95.8563 44.1435 95.8979 44.1307 95.9382 44.1143L98.5556 43.0491C98.8897 42.9132 99.0788 42.5555 99.0043 42.2005L98.3268 38.9725C98.297 38.8305 98.3726 38.6875 98.5062 38.6331L100.188 37.9485C100.341 37.8866 100.514 37.9606 100.575 38.1139C100.582 38.1301 100.587 38.1469 100.59 38.1641L101.192 41.0284C101.276 41.4327 101.671 41.6911 102.072 41.6056C102.115 41.5965 102.156 41.5837 102.197 41.5673L104.814 40.502C105.149 40.366 105.338 40.0082 105.263 39.6531L103.007 28.925C102.922 28.5208 102.528 28.2625 102.126 28.3482C102.084 28.3572 102.042 28.37 102.002 28.3864L99.3846 29.4516C99.0508 29.5874 98.8617 29.9448 98.9358 30.2996L99.5892 33.4258C99.6188 33.5677 99.5432 33.7107 99.4096 33.765L97.7278 34.4494C97.5757 34.5114 97.4024 34.4373 97.341 34.2841C97.3344 34.2677 97.3293 34.2509 97.3257 34.2336L96.7488 31.4729C96.6643 31.0686 96.2703 30.8098 95.8687 30.895C95.8259 30.904 95.784 30.9169 95.7435 30.9334Z" fill="#E75A2B"/>
<path d="M136.027 69.8812C136.828 65.563 138.865 54.6365 131.973 54.131C130.084 54.007 128.4 55.4894 128.483 55.7723C128.843 57.0478 127.635 52.7529 125.633 51.7109C124.978 51.3605 124.225 51.2408 123.495 51.3711C122.432 51.6031 122.006 52.3977 121.755 52.2626C121.311 52.0237 119.379 54.8368 115.529 57.1304C113.555 58.3065 111.195 50.6306 110.762 51.9878C110.595 51.7421 110.42 51.494 110.239 51.2558C109.417 50.094 108.401 49.0847 107.236 48.2731C104.059 46.1712 101.509 49.1159 101.437 52.1585C101.375 54.859 102.511 57.571 103.159 60.098C104.363 64.7814 105.349 69.4541 104.122 74.2541C104.106 74.33 97.0644 101.967 93.007 108.077C91.5406 110.19 85.168 120.521 83.4931 122.47C93.1349 127.212 108.85 122.725 119.504 123.967C128.249 107.02 132.497 88.8424 136.027 69.8812Z" fill="#2B2B2B"/>
<path d="M114.28 62.6185C113.883 58.7828 112.646 55.083 110.658 51.785" stroke="#FFC55A" stroke-width="0.786091" stroke-linecap="round"/>
<path d="M121.451 53.0457C119.935 55.7015 118.58 58.9441 118.503 62.0447C118.459 63.7985 118.802 66.3285 120.273 67.5232C121.455 68.4806 122.979 68.1692 124.136 67.3447C125.495 66.3774 126.139 64.7832 126.617 63.2412C127.304 61.0051 127.871 58.7264 128.35 56.4348" stroke="#FFC55A" stroke-width="0.786091" stroke-linecap="round"/>
<path d="M128.35 56.5446C127.509 59.0593 126.94 61.6576 126.651 64.2948C126.374 66.6921 125.985 70.0644 128.729 71.1978C133.65 73.2314 135.538 65.3361 135.832 62.0335" stroke="#FFC55A" stroke-width="0.786091" stroke-linecap="round"/>
<path d="M-8.24496 58.992C13.4684 58.992 31.0706 39.4734 31.0706 15.3959C31.0706 -8.68156 13.4684 -28.2002 -8.24496 -28.2002C-29.9584 -28.2002 -47.5605 -8.68156 -47.5605 15.3959C-47.5605 39.4734 -29.9584 58.992 -8.24496 58.992Z" fill="url(#paint2_linear)"/>
<path opacity="0.6998" d="M239.602 63.4252C277.107 63.4252 307.51 33.1996 307.51 -4.08551C307.51 -41.3706 277.107 -71.5962 239.602 -71.5962C202.097 -71.5962 171.693 -41.3706 171.693 -4.08551C171.693 33.1996 202.097 63.4252 239.602 63.4252Z" fill="url(#paint3_linear)"/>
<path opacity="0.455008" d="M-50.0941 92.9617C-53.4777 128.41 -30.1233 160.166 2.06951 163.892C34.2623 167.618 63.1026 141.902 66.4862 106.454C69.8698 71.0057 46.5154 39.2491 14.3226 35.5233C-17.8702 31.7976 -46.7105 57.5136 -50.0941 92.9617Z" fill="url(#paint4_linear)"/>
<path opacity="0.504185" d="M160.57 84.2762C157.31 115.051 179.81 142.62 210.825 145.855C241.84 149.089 269.625 126.764 272.885 95.9894C276.145 65.215 253.645 37.6453 222.63 34.4108C191.615 31.1763 163.83 53.5018 160.57 84.2762Z" fill="url(#paint5_linear)"/>
</g>
<path fill-rule="evenodd" clip-rule="evenodd" d="M112.137 19.937C111.856 20.3048 111.56 20.7544 111.293 21.2906C110.649 22.5797 110.459 23.7924 110.404 24.6157C110.417 23.8835 110.333 22.5437 109.571 21.1759C109.286 20.6623 108.965 20.2536 108.671 19.937C109.042 19.4938 109.568 18.7607 109.944 17.7335C110.314 16.7271 110.395 15.8378 110.404 15.2583C110.478 15.8979 110.631 16.7207 110.962 17.6336C111.317 18.6144 111.762 19.3845 112.137 19.937Z" fill="#FFF4E0"/>
<path fill-rule="evenodd" clip-rule="evenodd" d="M86.2318 38.1011C85.9505 38.4689 85.6548 38.9184 85.3873 39.4546C84.7441 40.7437 84.5534 41.9565 84.4987 42.7798C84.5117 42.0476 84.4278 40.7078 83.6662 39.3399C83.3805 38.8264 83.0599 38.4177 82.7656 38.1011C83.1371 37.6579 83.6624 36.9247 84.0391 35.8976C84.4086 34.8912 84.4896 34.0019 84.4987 33.4224C84.5725 34.062 84.7259 34.8848 85.0566 35.7977C85.4118 36.7785 85.8565 37.5486 86.2318 38.1011Z" fill="#FFF7E9"/>
<path fill-rule="evenodd" clip-rule="evenodd" d="M73.0221 31.0058C72.5629 31.5903 72.0802 32.3041 71.6439 33.1553C70.5949 35.2028 70.2834 37.1294 70.1941 38.4365C70.2151 37.2737 70.0786 35.1462 68.836 32.9729C68.37 32.1578 67.8464 31.5084 67.3667 31.0058C67.9726 30.3023 68.8292 29.1377 69.4444 27.5065C70.0474 25.9074 70.179 24.4951 70.1941 23.5747C70.3145 24.5912 70.5651 25.8977 71.1043 27.3475C71.6834 28.9056 72.4093 30.1288 73.0221 31.0058Z" fill="#FFF4E0"/>
<path fill-rule="evenodd" clip-rule="evenodd" d="M101.556 13.6986C101.363 13.9656 101.161 14.2916 100.978 14.6805C100.538 15.6157 100.407 16.4957 100.37 17.0931C100.378 16.5615 100.321 15.5897 99.8001 14.5972C99.6046 14.2249 99.3852 13.9282 99.1841 13.6986C99.4382 13.3771 99.7975 12.8455 100.055 12.1001C100.308 11.3701 100.364 10.7247 100.37 10.3044C100.42 10.7686 100.525 11.3656 100.751 12.0277C100.995 12.7394 101.299 13.2978 101.556 13.6986Z" fill="#E35C26"/>
<path fill-rule="evenodd" clip-rule="evenodd" d="M78.3872 10.3959C78.1947 10.6629 77.9921 10.9888 77.8093 11.3778C77.3693 12.313 77.2387 13.1929 77.2014 13.7904C77.21 13.2588 77.1529 12.287 76.6317 11.2945C76.4361 10.9222 76.2167 10.6255 76.0156 10.3959C76.2697 10.0744 76.629 9.54275 76.8869 8.79734C77.1399 8.06738 77.1951 7.42196 77.2014 7.00171C77.2518 7.46586 77.357 8.06291 77.5828 8.725C77.826 9.43667 78.1301 9.99511 78.3872 10.3959Z" fill="#E35C26"/>
<path fill-rule="evenodd" clip-rule="evenodd" d="M89.9844 5.36387C89.7919 5.6309 89.5893 5.95686 89.4064 6.34582C88.9665 7.28103 88.8359 8.16096 88.7986 8.75843C88.8072 8.22681 88.7501 7.25502 88.2288 6.2625C88.0333 5.89021 87.8139 5.59351 87.6128 5.36387C87.8669 5.04238 88.2262 4.51076 88.4841 3.76536C88.737 3.0354 88.7923 2.38998 88.7986 1.96973C88.849 2.43388 88.9542 3.03093 89.1799 3.69301C89.4232 4.40468 89.7273 4.96313 89.9844 5.36387Z" fill="#E35C26"/>
<defs>
<linearGradient id="paint0_linear" x1="358.62" y1="26.9808" x2="47.391" y2="177.429" gradientUnits="userSpaceOnUse">
<stop stop-color="#FAF4EA"/>
<stop offset="1" stop-color="#FFA600"/>
</linearGradient>
<linearGradient id="paint1_linear" x1="73.5858" y1="19.2034" x2="107.246" y2="52.6645" gradientUnits="userSpaceOnUse">
<stop stop-color="#FFDA4E"/>
<stop offset="1" stop-color="#FFB326"/>
</linearGradient>
<linearGradient id="paint2_linear" x1="-71.0466" y1="-70.2412" x2="36.1037" y2="48.1231" gradientUnits="userSpaceOnUse">
<stop stop-color="#FAF4EA"/>
<stop offset="1" stop-color="#FFA600"/>
</linearGradient>
<linearGradient id="paint3_linear" x1="107.738" y1="-133.657" x2="306.354" y2="63.0442" gradientUnits="userSpaceOnUse">
<stop stop-color="#FAF4EA"/>
<stop offset="1" stop-color="#FFA600"/>
</linearGradient>
<linearGradient id="paint4_linear" x1="113.127" y1="-12.3719" x2="-60.0537" y2="140.804" gradientUnits="userSpaceOnUse">
<stop stop-color="#FAF4EA"/>
<stop offset="1" stop-color="#FFA600"/>
</linearGradient>
<linearGradient id="paint5_linear" x1="337.903" y1="-4.57556" x2="156.07" y2="140.351" gradientUnits="userSpaceOnUse">
<stop stop-color="#FAF4EA"/>
<stop offset="1" stop-color="#FFA600"/>
</linearGradient>
</defs>
</svg>
