<?xml version="1.0" encoding="UTF-8"?>
<svg width="248px" height="123px" viewBox="0 0 248 123" version="1.1" xmlns="http://www.w3.org/2000/svg" xmlns:xlink="http://www.w3.org/1999/xlink">
    <title>heztoken</title>
    <defs>
        <path d="M227.27777,0 L20.66157,0 C9.25051,0 2.33146835e-15,9.24822 2.33146835e-15,20.6565 L2.33146835e-15,102.108 C2.33146835e-15,113.517 9.25051,122.765 20.66157,122.765 L227.27777,122.765 C238.68877,122.765 247.93877,113.517 247.93877,102.108 L247.93877,20.6565 C247.93877,9.24822 238.68877,0 227.27777,0 Z" id="path-1"></path>
        <path d="M227.27777,0 L20.66157,0 C9.25051,0 2.33146835e-15,9.24822 2.33146835e-15,20.6565 L2.33146835e-15,102.108 C2.33146835e-15,113.517 9.25051,122.765 20.66157,122.765 L227.27777,122.765 C238.68877,122.765 247.93877,113.517 247.93877,102.108 L247.93877,20.6565 C247.93877,9.24822 238.68877,0 227.27777,0 Z" id="path-3"></path>
        <linearGradient x1="15.9197768%" y1="27.9208166%" x2="112.995781%" y2="63.5851566%" id="linearGradient-5">
            <stop stop-color="#6A1BFA" offset="0%"></stop>
            <stop stop-color="#71BFFF" offset="100%"></stop>
        </linearGradient>
        <linearGradient x1="-21.6828413%" y1="6.03586229%" x2="68.7110903%" y2="96.3477083%" id="linearGradient-6">
            <stop stop-color="#FFDA4E" offset="0%"></stop>
            <stop stop-color="#FFB326" offset="100%"></stop>
        </linearGradient>
        <linearGradient x1="174.083141%" y1="15.5608874%" x2="8.84814237%" y2="-15.7480524%" id="linearGradient-7">
            <stop stop-color="#31D9FF" offset="0%"></stop>
            <stop stop-color="#6311FE" offset="100%"></stop>
        </linearGradient>
        <linearGradient x1="-47.0891931%" y1="-45.9162431%" x2="100%" y2="98.8290132%" id="linearGradient-8">
            <stop stop-color="#EAF0FA" offset="0%"></stop>
            <stop stop-color="#4300FF" offset="100%"></stop>
        </linearGradient>
        <linearGradient x1="96.5236652%" y1="100%" x2="8.2664519%" y2="-15.7480524%" id="linearGradient-9">
            <stop stop-color="#31D9FF" offset="0%"></stop>
            <stop stop-color="#6311FE" offset="100%"></stop>
        </linearGradient>
        <linearGradient x1="-47.0891931%" y1="-45.5512173%" x2="100%" y2="98.643186%" id="linearGradient-10">
            <stop stop-color="#EAF0FA" offset="0%"></stop>
            <stop stop-color="#4300FF" offset="100%"></stop>
        </linearGradient>
    </defs>
    <g id="Page-1" stroke="none" stroke-width="1" fill="none" fill-rule="evenodd">
        <g id="heztoken">
            <g id="Clipped">
                <mask id="mask-2" fill="white">
                    <use xlink:href="#path-1"></use>
                </mask>
                <g id="Path"></g>
                <path d="M227.27777,0 L20.66157,0 C9.25051,0 2.33146835e-15,9.24822 2.33146835e-15,20.6565 L2.33146835e-15,102.108 C2.33146835e-15,113.517 9.25051,122.765 20.66157,122.765 L227.27777,122.765 C238.68877,122.765 247.93877,113.517 247.93877,102.108 L247.93877,20.6565 C247.93877,9.24822 238.68877,0 227.27777,0 Z" id="Path" fill="#FFFFFF" fill-rule="nonzero" mask="url(#mask-2)"></path>
            </g>
            <g id="Clipped">
                <mask id="mask-4" fill="white">
                    <use xlink:href="#path-3"></use>
                </mask>
                <g id="Path"></g>
                <g id="Group" mask="url(#mask-4)">
                    <g transform="translate(-67.558108, -93.505400)">
                        <path d="M294.835878,93.5054 L88.2196778,93.5054 C76.8086178,93.5054 67.5581078,102.75362 67.5581078,114.1619 L67.5581078,195.6134 C67.5581078,207.0224 76.8086178,216.2704 88.2196778,216.2704 L294.835878,216.2704 C306.246878,216.2704 315.496878,207.0224 315.496878,195.6134 L315.496878,114.1619 C315.496878,102.75362 306.246878,93.5054 294.835878,93.5054 Z" id="Path" stroke="none" fill="url(#linearGradient-5)" fill-rule="nonzero" opacity="0.329006377"></path>
                        <path d="M217.386878,184.8463 C218.439878,179.2067 221.116878,164.9368 212.061878,164.2775 C209.579878,164.1158 207.367878,166.0519 207.475878,166.4214 C207.948878,168.0871 206.361878,162.4784 203.732878,161.1178 C202.871878,160.6601 201.882878,160.504 200.923878,160.6742 C199.526878,160.9774 198.967878,162.0151 198.637878,161.8387 C198.054878,161.5267 199.556878,158.1658 200.563878,154.1923 C201.569878,150.2189 202.703878,145.9637 201.024878,142.9659 C200.738878,142.4062 199.748878,140.6196 197.846878,140.0422 C195.487878,139.3212 192.771878,140.5683 190.910878,143.0223 C187.571878,147.4553 185.871878,156.2521 184.193878,161.481 C183.974878,161.1602 183.745878,160.8363 183.506878,160.5252 C182.426878,159.008 181.092878,157.69 179.561878,156.6303 C175.387878,153.8857 172.036878,157.7316 171.942878,161.7052 C171.860878,165.232 173.353878,168.7735 174.203878,172.0737 C175.784878,178.1899 177.079878,184.2921 175.467878,190.5609 C175.445878,190.66 166.191578,226.7544 160.860078,234.7334 C158.933178,237.4924 157.630378,240.7634 155.429578,243.3084 C168.096978,249.4994 180.955878,252.8784 194.953878,254.4994 C206.444878,232.3664 212.746878,209.6094 217.386878,184.8463 Z" id="Path" stroke="none" fill="#0C0830" fill-rule="nonzero"></path>
                        <path d="M188.762878,175.006 C188.153878,170.0064 186.444878,165.2035 183.758878,160.9425" id="Path" stroke="#FFC55A" stroke-width="1.02861" fill="none" stroke-linecap="round"></path>
                        <path d="M197.987878,162.9794 C195.995878,166.448 194.214878,170.683 194.113878,174.7323 C194.055878,177.0228 194.505878,180.3268 196.438878,181.8869 C197.991878,183.1371 199.993878,182.7303 201.514878,181.6533 C203.299878,180.3898 204.145878,178.3079 204.774878,176.2939 C205.677878,173.3735 206.422878,170.3976 207.051878,167.4047" id="Path" stroke="#FFC55A" stroke-width="1.02861" fill="none" stroke-linecap="round"></path>
                        <path d="M207.051878,167.4042 C205.947878,170.6884 205.198878,174.0818 204.818878,177.526 C204.454878,180.6569 203.943878,185.0612 207.547878,186.5411 C214.013878,189.1963 216.495878,178.885 216.881878,174.5718" id="Path" stroke="#FFC55A" stroke-width="1.02861" fill="none" stroke-linecap="round"></path>
                        <path d="M182.334878,161.0495 C194.798878,156.0153 200.819878,141.8318 195.782878,129.3697 C190.745878,116.9075 176.558878,110.8859 164.095278,115.9201 C151.631378,120.9542 145.610378,135.1377 150.646978,147.5999 C155.683678,160.062 169.870878,166.0836 182.334878,161.0495 Z" id="Path" stroke="none" fill="#B87200" fill-rule="nonzero"></path>
                        <path d="M179.350878,162.5236 C191.814878,157.4895 197.835878,143.3059 192.799878,130.8438 C187.762878,118.3817 173.575878,112.3601 161.111878,117.3942 C148.647978,122.4283 142.626978,136.6119 147.663578,149.074 C152.700278,161.5361 166.887278,167.5577 179.350878,162.5236 Z" id="Path" stroke="none" fill="url(#linearGradient-6)" fill-rule="nonzero"></path>
                        <path d="M175.209878,137.1089 L175.919878,140.4458 C175.632878,140.5546 175.299878,140.4496 175.130878,140.1793 C175.088878,140.1118 175.058878,140.0372 175.042878,139.9591 L174.639878,137.9572 C174.584878,137.683 174.708878,137.4042 174.948878,137.2622 L175.209878,137.1089 Z M178.306878,136.0527 C178.363878,136.1501 178.395878,136.2608 178.397878,136.374 L178.376878,138.5411 C178.381878,138.7722 178.264878,138.9887 178.069878,139.1113 L176.776878,139.9224 L176.534878,138.7864 L177.209878,138.3639 C177.272878,138.3243 177.311878,138.2552 177.312878,138.1805 L177.317878,137.5324 C177.318878,137.4114 177.221878,137.3123 177.100878,137.311 C177.060878,137.3106 177.021878,137.3209 176.987878,137.341 L176.311878,137.7374 L176.070878,136.6043 L177.407878,135.8204 C177.718878,135.6359 178.121878,135.7399 178.306878,136.0527 Z M174.337878,133.0023 L175.045878,136.3312 C174.775878,136.3881 174.487878,136.2692 174.341878,136.0168 C174.305878,135.9545 174.279878,135.8868 174.265878,135.8162 L173.858878,133.7932 C173.801878,133.5129 173.932878,133.2286 174.181878,133.0898 L174.337878,133.0023 Z M178.307878,131.544 C178.359878,131.6379 178.388878,131.7431 178.390878,131.8505 L178.403878,134.0215 C178.408878,134.2607 178.283878,134.4836 178.077878,134.6034 L175.912878,135.8638 L175.661878,134.6811 L176.859878,133.9834 C176.925878,133.9445 176.966878,133.8734 176.967878,133.7961 L176.972878,133.1131 C176.973878,132.9921 176.876878,132.8931 176.755878,132.8919 C176.717878,132.8915 176.680878,132.901 176.647878,132.9194 L175.430878,133.5965 L175.202878,132.521 L177.414878,131.2885 C177.731878,131.1122 178.130878,131.2266 178.307878,131.544 Z M172.467878,130.6494 L172.620878,131.4266 L173.712878,130.7984 C173.835878,130.9234 173.926878,131.0827 173.968878,131.2655 L173.971878,131.2813 L174.180878,132.2665 L172.814878,133.0343 C172.393878,133.2709 171.859878,133.1201 171.622878,132.6976 C171.579878,132.6206 171.548878,132.5375 171.529878,132.4512 L171.289878,131.1252 L172.467878,130.6494 Z M178.338878,125.9209 C178.396878,126.0369 178.427878,126.1643 178.430878,126.2938 L178.447878,129.3408 C178.453878,129.6639 178.282878,129.964 178.001878,130.1219 L175.044878,131.7817 L174.898878,131.0857 C174.837878,130.7978 174.714878,130.5386 174.547878,130.3189 L176.508878,129.1927 C176.641878,129.1163 176.724878,128.9757 176.727878,128.822 L176.745878,127.9231 C176.748878,127.7618 176.620878,127.6282 176.459878,127.6246 C176.411878,127.6236 176.364878,127.6342 176.322878,127.6556 L172.281878,129.6904 L172.282878,129.6994 L171.116878,130.1703 L170.965878,129.3386 C170.882878,128.9468 171.073878,128.5486 171.431878,128.371 L177.165878,125.5242 C177.598878,125.3093 178.123878,125.4869 178.338878,125.9209 Z" id="Shape" stroke="none" fill="#FFEECF" fill-rule="nonzero"></path>
                        <path d="M164.435978,133.8943 L161.000278,135.2819 C160.561778,135.459 160.314078,135.9264 160.412678,136.3905 L163.393378,150.4137 C163.505678,150.9422 164.023978,151.2804 164.550978,151.1691 C164.606778,151.1573 164.661378,151.1407 164.714178,151.1193 L168.149478,149.7318 C168.587878,149.5548 168.835878,149.0876 168.736878,148.6236 L167.841978,144.4042 C167.802678,144.2186 167.901678,144.0317 168.077078,143.9609 L170.284878,143.0692 C170.484878,142.9885 170.711878,143.0856 170.792878,143.286 C170.801878,143.3072 170.808878,143.3292 170.812878,143.3516 L171.607878,147.0957 C171.719878,147.6242 172.237878,147.9626 172.764878,147.8515 C172.820878,147.8397 172.875878,147.823 172.928878,147.8016 L176.363878,146.4141 C176.802878,146.2369 177.049878,145.7696 176.951878,145.3055 L173.970878,131.2822 C173.858878,130.7538 173.339878,130.4156 172.812878,130.5269 C172.757878,130.5386 172.702878,130.5553 172.649878,130.5766 L169.214878,131.9641 C168.776878,132.141 168.528878,132.6077 168.626878,133.0714 L169.489878,137.1579 C169.529878,137.3435 169.429878,137.5301 169.254878,137.6009 L167.047778,138.4924 C166.848078,138.5731 166.620478,138.476 166.539478,138.2756 C166.530878,138.2543 166.524178,138.2322 166.519378,138.2097 L165.757078,134.6011 C165.645478,134.0725 165.127578,133.7336 164.600378,133.8442 C164.544278,133.856 164.489178,133.8728 164.435978,133.8943 Z" id="Path" stroke="none" fill="#8248E5" fill-rule="nonzero"></path>
                        <path d="M217.373878,184.7665 C218.426878,179.1269 221.104878,164.8571 212.049878,164.1982 C209.567878,164.0366 207.355878,165.9729 207.463878,166.3423 C207.936878,168.008 206.349878,162.3994 203.720878,161.039 C202.859878,160.5814 201.870878,160.4253 200.911878,160.5956 C199.513878,160.8988 198.954878,161.9366 198.625878,161.7601 C198.042878,161.4482 195.502878,165.1223 190.443878,168.1184 C187.849878,169.6547 184.750878,159.6308 184.181878,161.4032 C183.961878,161.0825 183.732878,160.7585 183.494878,160.4475 C182.414878,158.9303 181.079878,157.6124 179.549878,156.5528 C175.375878,153.8084 172.024878,157.6544 171.929878,161.628 C171.847878,165.1547 173.340878,168.6961 174.190878,171.9963 C175.771878,178.1123 177.065878,184.2143 175.453878,190.4831 C175.431878,190.5822 166.175378,226.6764 160.843378,234.6564 C158.916378,237.4154 150.541578,250.9094 148.340478,253.4544 C161.007878,259.6454 181.656878,253.7824 195.654878,255.4024 C207.147878,233.2694 212.732878,209.5294 217.373878,184.7665 Z" id="Path" stroke="none" fill="#0C0830" fill-rule="nonzero"></path>
                        <path d="M188.796878,175.2854 C188.274878,170.2758 186.649878,165.4438 184.038878,161.1367" id="Path" stroke="#FFC55A" stroke-width="1.02861" fill="none" stroke-linecap="round"></path>
                        <path d="M198.218878,162.7836 C196.226878,166.2523 194.445878,170.4873 194.343878,174.5366 C194.285878,176.8271 194.735878,180.131 196.668878,181.691 C198.221878,182.9411 200.223878,182.5342 201.744878,181.4572 C203.529878,180.1936 204.375878,178.1116 205.004878,176.0977 C205.908878,173.1773 206.653878,170.2013 207.282878,167.2085" id="Path" stroke="#FFC55A" stroke-width="1.02861" fill="none" stroke-linecap="round"></path>
                        <path d="M207.283878,167.353 C206.178878,170.6373 205.429878,174.0307 205.049878,177.4749 C204.684878,180.6058 204.173878,185.01 207.778878,186.4897 C214.243878,189.1446 216.726878,178.8332 217.112878,174.5201" id="Path" stroke="#FFC55A" stroke-width="1.02861" fill="none" stroke-linecap="round"></path>
                        <path d="M55.4108778,170.5496 C83.9385778,170.5496 107.064778,145.0581 107.064778,113.6127 C107.064778,82.1673 83.9385778,56.6758 55.4108778,56.6758 C26.8830778,56.6758 3.75687781,82.1673 3.75687781,113.6127 C3.75687781,145.0581 26.8830778,170.5496 55.4108778,170.5496 Z" id="Path" stroke="none" fill="url(#linearGradient-7)" fill-rule="nonzero" opacity="0.589207849"></path>
                        <path d="M336.368878,176.3391 C385.643878,176.3391 425.589878,136.8643 425.589878,88.16958 C425.589878,39.4749 385.643878,0 336.368878,0 C287.093878,0 247.148878,39.4749 247.148878,88.16958 C247.148878,136.8643 287.093878,176.3391 336.368878,176.3391 Z" id="Path" stroke="none" fill="url(#linearGradient-8)" fill-rule="nonzero" opacity="0.539380451"></path>
                        <path d="M0.428077813,214.9144 C-4.01742219,261.2094 26.6663778,302.6844 68.9621758,307.5504 C111.257978,312.4164 149.149278,278.8304 153.594778,232.5354 C158.040178,186.2396 127.356478,144.7651 85.0606778,139.8992 C42.7648778,135.0334 4.87357781,168.6188 0.428077813,214.9144 Z" id="Path" stroke="none" fill="url(#linearGradient-9)" fill-rule="nonzero" opacity="0.589207849"></path>
                        <path d="M232.534878,203.5714 C228.251878,243.7624 257.812878,279.7684 298.560878,283.9934 C339.309878,288.2174 375.814878,259.0604 380.097878,218.8684 C384.379878,178.6769 354.818878,142.6707 314.070878,138.4464 C273.321878,134.222 236.816878,163.3793 232.534878,203.5714 Z" id="Path" stroke="none" fill="url(#linearGradient-10)" fill-rule="nonzero" opacity="0.539380451"></path>
                    </g>
                </g>
            </g>
            <path d="M118.42277,26.0382 C118.05377,26.5185 117.66477,27.1056 117.31377,27.8059 C116.46877,29.4895 116.21777,31.0734 116.14577,32.1486 C116.16277,31.1923 116.05277,29.4426 115.05277,27.6561 C114.67677,26.9854 114.25577,26.4516 113.86877,26.0382 C114.35677,25.4594 115.04777,24.5019 115.54177,23.1604 C116.02777,21.846 116.13377,20.6846 116.14577,19.9277 C116.24277,20.7631 116.44477,21.8376 116.87877,23.0299 C117.34577,24.3109 117.92977,25.3166 118.42277,26.0382 Z" id="Path" fill="#FDFDFF"></path>
            <path d="M84.38847,49.7608 C84.01887,50.2412 83.63027,50.8283 83.27897,51.5286 C82.43387,53.2122 82.18327,54.796 82.11147,55.8712 C82.12847,54.915 82.01827,53.1652 81.01767,51.3788 C80.64237,50.7081 80.22107,50.1743 79.83447,49.7608 C80.32247,49.1821 81.01267,48.2245 81.50757,46.8831 C81.99307,45.5687 82.09947,44.4073 82.11147,43.6504 C82.20847,44.4857 82.40997,45.5603 82.84447,46.7525 C83.31107,48.0335 83.89537,49.0393 84.38847,49.7608 Z" id="Path" fill="#FDFDFF"></path>
            <path d="M67.03327,40.4942 C66.42987,41.2576 65.79577,42.1897 65.22257,43.3013 C63.84427,45.9755 63.43497,48.4917 63.31777,50.1986 C63.34537,48.6801 63.16597,45.9016 61.53347,43.0632 C60.92117,41.9987 60.23327,41.1506 59.60307,40.4942 C60.39917,39.5754 61.52447,38.0544 62.33277,35.924 C63.12507,33.8356 63.29797,31.9911 63.31777,30.7891 C63.47597,32.1166 63.80517,33.8229 64.51357,35.7164 C65.27447,37.7513 66.22817,39.3488 67.03327,40.4942 Z" id="Path" fill="#FDFDFF"></path>
            <path d="M104.52177,17.8908 C104.26877,18.2395 104.00277,18.6652 103.76277,19.1732 C103.18477,20.3946 103.01277,21.5438 102.96377,22.3241 C102.97477,21.6298 102.89977,20.3606 102.21477,19.0644 C101.95777,18.5782 101.66977,18.1907 101.40577,17.8908 C101.73977,17.4709 102.21177,16.7766 102.55077,15.8031 C102.88277,14.8498 102.95577,14.0069 102.96377,13.458 C103.02977,14.0642 103.16777,14.844 103.46477,15.7086 C103.78477,16.6381 104.18377,17.3674 104.52177,17.8908 Z" id="Path" fill="#8248E5"></path>
            <path d="M74.08167,13.5773 C73.82877,13.9261 73.56257,14.3518 73.32237,14.8598 C72.74437,16.0811 72.57277,17.2303 72.52377,18.0106 C72.53507,17.3163 72.46007,16.0472 71.77517,14.7509 C71.51827,14.2647 71.23007,13.8772 70.96587,13.5773 C71.29967,13.1574 71.77177,12.4631 72.11047,11.4896 C72.44287,10.5363 72.51547,9.69339 72.52377,9.14453 C72.58997,9.75072 72.72817,10.5305 73.02477,11.3952 C73.34437,12.3246 73.74397,13.0539 74.08167,13.5773 Z" id="Path" fill="#8248E5"></path>
            <path d="M89.31857,7.00554 C89.06557,7.35428 88.79937,7.77999 88.55917,8.28797 C87.98117,9.50936 87.80957,10.6586 87.76057,11.4389 C87.77187,10.7446 87.69687,9.47539 87.01197,8.17916 C86.75517,7.69294 86.46687,7.30545 86.20267,7.00554 C86.53647,6.58567 87.00857,5.89137 87.34727,4.91787 C87.67967,3.96453 87.75227,3.12161 87.76057,2.57275 C87.82677,3.17894 87.96497,3.9587 88.26157,4.82338 C88.58127,5.75283 88.98077,6.48216 89.31857,7.00554 Z" id="Path" fill="#8248E5"></path>
        </g>
    </g>
</svg>