<?xml version="1.0" encoding="UTF-8"?>
<svg width="228px" height="94px" viewBox="0 0 228 94" version="1.1" xmlns="http://www.w3.org/2000/svg" xmlns:xlink="http://www.w3.org/1999/xlink">
    <title>heztoken-mobile</title>
    <defs>
        <path d="M209,0 L19,0 C8.50659,0 0,7.08129 0,15.8165 L0,78.1835 C0,86.9187 8.50659,94 19,94 L209,94 C219.493,94 228,86.9187 228,78.1835 L228,15.8165 C228,7.08129 219.493,0 209,0 Z" id="path-1"></path>
        <path d="M209,0 L19,0 C8.50659,0 0,7.08129 0,15.8165 L0,78.1835 C0,86.9187 8.50659,94 19,94 L209,94 C219.493,94 228,86.9187 228,78.1835 L228,15.8165 C228,7.08129 219.493,0 209,0 Z" id="path-3"></path>
        <linearGradient x1="15.9197768%" y1="34.6923414%" x2="112.995781%" y2="59.418688%" id="linearGradient-5">
            <stop stop-color="#6A1BFA" offset="0%"></stop>
            <stop stop-color="#71BFFF" offset="100%"></stop>
        </linearGradient>
        <linearGradient x1="-20.9286316%" y1="6.08315823%" x2="68.9492708%" y2="95.8785314%" id="linearGradient-6">
            <stop stop-color="#FFDA4E" offset="0%"></stop>
            <stop stop-color="#FFB326" offset="100%"></stop>
        </linearGradient>
        <linearGradient x1="172.610247%" y1="15.5608874%" x2="9.33662372%" y2="-15.7480524%" id="linearGradient-7">
            <stop stop-color="#31D9FF" offset="0%"></stop>
            <stop stop-color="#6311FE" offset="100%"></stop>
        </linearGradient>
        <linearGradient x1="-47.0891931%" y1="-47.0691359%" x2="100%" y2="99.4159275%" id="linearGradient-8">
            <stop stop-color="#EAF0FA" offset="0%"></stop>
            <stop stop-color="#4300FF" offset="100%"></stop>
        </linearGradient>
        <linearGradient x1="95.9716842%" y1="100%" x2="8.76160042%" y2="-15.7480524%" id="linearGradient-9">
            <stop stop-color="#31D9FF" offset="0%"></stop>
            <stop stop-color="#6311FE" offset="100%"></stop>
        </linearGradient>
        <linearGradient x1="-47.0891931%" y1="-46.6990829%" x2="100%" y2="99.227541%" id="linearGradient-10">
            <stop stop-color="#EAF0FA" offset="0%"></stop>
            <stop stop-color="#4300FF" offset="100%"></stop>
        </linearGradient>
    </defs>
    <g id="Page-1" stroke="none" stroke-width="1" fill="none" fill-rule="evenodd">
        <g id="heztoken-mobile">
            <g id="Clipped">
                <mask id="mask-2" fill="white">
                    <use xlink:href="#path-1"></use>
                </mask>
                <g id="Path"></g>
                <path d="M208.083,0 L18.9167,0 C8.46928,0 0,7.08129 0,15.8165 L0,78.1835 C0,86.9187 8.46928,94 18.9167,94 L208.083,94 C218.531,94 227,86.9187 227,78.1835 L227,15.8165 C227,7.08129 218.531,0 208.083,0 Z" id="Path" fill="#FFFFFF" fill-rule="nonzero" mask="url(#mask-2)"></path>
            </g>
            <g id="Clipped">
                <mask id="mask-4" fill="white">
                    <use xlink:href="#path-3"></use>
                </mask>
                <g id="Path"></g>
                <g id="Group" mask="url(#mask-4)">
                    <g transform="translate(-50.419922, -71.596200)">
                        <path d="M259.419922,71.5962 L69.4199217,71.5962 C58.9265117,71.5962 50.4199217,78.67749 50.4199217,87.4127 L50.4199217,149.7797 C50.4199217,158.5149 58.9265117,165.5962 69.4199217,165.5962 L259.419922,165.5962 C269.912922,165.5962 278.419922,158.5149 278.419922,149.7797 L278.419922,87.4127 C278.419922,78.67749 269.912922,71.5962 259.419922,71.5962 Z" id="Path" stroke="none" fill="url(#linearGradient-5)" fill-rule="nonzero" opacity="0.329006377"></path>
                        <path d="M186.476922,141.5199 C187.281922,137.2019 189.327922,126.2761 182.433922,125.7763 C180.544922,125.6538 178.858922,127.1372 178.941922,127.42 C179.300922,128.6949 178.095922,124.402 176.094922,123.3618 C175.438922,123.012 174.685922,122.893 173.955922,123.0238 C172.891922,123.2566 172.465922,124.0514 172.214922,123.9165 C171.770922,123.678 172.916922,121.1042 173.684922,118.0617 C174.452922,115.0193 175.319922,111.7611 174.041922,109.4671 C173.824922,109.0388 173.071922,107.6715 171.623922,107.2306 C169.828922,106.6799 167.759922,107.6361 166.341922,109.5157 C163.796922,112.9112 162.498922,119.6466 161.217922,123.6506 C161.050922,123.4051 160.876922,123.1572 160.695922,122.9192 C159.874922,121.7583 158.858922,120.75 157.694922,119.9395 C154.517922,117.8407 151.964922,120.7867 151.890922,123.8288 C151.825922,126.5288 152.960922,129.2392 153.606922,131.7652 C154.806922,136.4466 155.789922,141.1175 154.558922,145.9175 C154.541922,145.9933 147.476822,173.6302 143.413422,179.7422 C141.944922,181.8552 140.951222,184.3592 139.274222,186.3092 C148.915222,191.0422 158.703922,193.6222 169.359922,194.8552 C178.120922,177.9052 182.930922,160.4798 186.476922,141.5199 Z" id="Path" stroke="none" fill="#0C0830" fill-rule="nonzero"></path>
                        <path d="M164.671922,134.0008 C164.209922,130.1719 162.910922,126.4944 160.866922,123.2325" id="Path" stroke="#FFC55A" stroke-width="0.786091" fill="none" stroke-linecap="round"></path>
                        <path d="M171.699922,124.7942 C170.181922,127.4507 168.823922,130.6939 168.743922,133.794 C168.698922,135.5476 169.039922,138.0768 170.509922,139.2701 C171.691922,140.2264 173.216922,139.9139 174.374922,139.0885 C175.734922,138.1203 176.379922,136.5259 176.858922,134.9838 C177.548922,132.7475 178.117922,130.4688 178.597922,128.1772" id="Path" stroke="#FFC55A" stroke-width="0.786091" fill="none" stroke-linecap="round"></path>
                        <path d="M178.598922,128.182 C177.755922,130.697 177.183922,133.2955 176.892922,135.9326 C176.613922,138.3299 176.222922,141.7021 178.965922,142.8332 C183.886922,144.8626 185.781922,136.9667 186.077922,133.6643" id="Path" stroke="#FFC55A" stroke-width="0.786091" fill="none" stroke-linecap="round"></path>
                        <path d="M159.767922,123.302 C169.261922,119.4403 173.855922,108.5801 170.028922,99.045 C166.202922,89.51 155.404922,84.9108 145.910722,88.7725 C136.416922,92.6341 131.822722,103.4944 135.649222,113.0294 C139.475722,122.5645 150.273922,127.1637 159.767922,123.302 Z" id="Path" stroke="none" fill="#B87200" fill-rule="nonzero"></path>
                        <path d="M157.497922,124.4294 C166.991922,120.5677 171.585922,109.7075 167.758922,100.1725 C163.932922,90.6374 153.134922,86.0382 143.640722,89.8999 C134.146922,93.7616 129.552722,104.6218 133.379222,114.1569 C137.205722,123.6919 148.003922,128.2911 157.497922,124.4294 Z" id="Path" stroke="none" fill="url(#linearGradient-6)" fill-rule="nonzero"></path>
                        <path d="M154.353922,104.9839 L154.890922,107.5376 C154.671922,107.6212 154.418922,107.5412 154.289922,107.3344 C154.257922,107.2828 154.234922,107.2257 154.222922,107.166 L153.918922,105.6339 C153.876922,105.424 153.971922,105.2105 154.154922,105.1016 L154.353922,104.9839 Z M156.713922,104.1723 C156.756922,104.2469 156.780922,104.3316 156.782922,104.4182 L156.763922,106.0772 C156.767922,106.254 156.678922,106.4199 156.529922,106.5139 L155.543922,107.1361 L155.360922,106.2668 L155.875922,105.9427 C155.923922,105.9123 155.953922,105.8593 155.953922,105.8021 L155.958922,105.306 C155.959922,105.2134 155.885922,105.1376 155.793922,105.1368 C155.763922,105.1365 155.733922,105.1445 155.707922,105.1598 L155.191922,105.4639 L155.009922,104.5968 L156.028922,103.9954 C156.266922,103.8538 156.572922,103.9331 156.713922,104.1723 Z M153.692922,101.8413 L154.228922,104.3888 C154.022922,104.4327 153.803922,104.3419 153.692922,104.1489 C153.665922,104.1012 153.645922,104.0493 153.634922,103.9953 L153.326922,102.4472 C153.284922,102.2327 153.384922,102.0149 153.573922,101.9084 L153.692922,101.8413 Z M156.718922,100.721 C156.758922,100.7928 156.779922,100.8733 156.781922,100.9555 L156.789922,102.6174 C156.792922,102.8005 156.697922,102.9712 156.539922,103.0632 L154.889922,104.0302 L154.699922,103.1251 L155.612922,102.5897 C155.663922,102.5599 155.694922,102.5054 155.695922,102.4462 L155.699922,101.9235 C155.700922,101.8308 155.626922,101.7551 155.534922,101.7543 C155.505922,101.7541 155.477922,101.7614 155.452922,101.7755 L154.525922,102.295 L154.352922,101.4719 L156.038922,100.5263 C156.279922,100.391 156.584922,100.4781 156.718922,100.721 Z M152.270922,100.042 L152.385922,100.6368 L153.218922,100.1548 C153.312922,100.2504 153.381922,100.3723 153.413922,100.5121 L153.415922,100.5242 L153.573922,101.2782 L152.532922,101.8673 C152.211922,102.0488 151.804922,101.9339 151.624922,101.6107 C151.591922,101.5518 151.568922,101.4883 151.554922,101.4222 L151.372922,100.4074 L152.270922,100.042 Z M156.747922,96.4165 C156.791922,96.5053 156.815922,96.6027 156.817922,96.7018 L156.827922,99.0343 C156.831922,99.2816 156.701922,99.5115 156.486922,99.6326 L154.232922,100.9062 L154.121922,100.3735 C154.075922,100.1533 153.982922,99.955 153.855922,99.7869 L155.350922,98.9228 C155.451922,98.8643 155.515922,98.7565 155.517922,98.6389 L155.531922,97.9508 C155.534922,97.8273 155.437922,97.7251 155.314922,97.7226 C155.278922,97.7218 155.242922,97.73 155.210922,97.7464 L152.129922,99.3081 L152.130922,99.315 L151.241922,99.6766 L151.127922,99.0401 C151.064922,98.7403 151.210922,98.4353 151.483922,98.2989 L155.854922,96.114 C156.184922,95.9491 156.584922,96.0845 156.747922,96.4165 Z" id="Shape" stroke="none" fill="#FFEECF" fill-rule="nonzero"></path>
                        <path d="M146.163422,102.5296 L143.545622,103.5949 C143.211522,103.7309 143.022422,104.0888 143.097022,104.4438 L145.352922,115.1719 C145.437922,115.5762 145.832322,115.8344 146.233722,115.7488 C146.276222,115.7397 146.317822,115.7269 146.358122,115.7105 L148.975522,114.6453 C149.309622,114.5094 149.498722,114.1517 149.424222,113.7967 L148.746722,110.5687 C148.716922,110.4267 148.792522,110.2837 148.926122,110.2293 L150.607922,109.5447 C150.760922,109.4828 150.933922,109.5568 150.994922,109.7101 C151.001922,109.7263 151.006922,109.7431 151.009922,109.7603 L151.611922,112.6246 C151.695922,113.0289 152.090922,113.2873 152.491922,113.2018 C152.534922,113.1927 152.575922,113.1799 152.616922,113.1635 L155.233922,112.0982 C155.568922,111.9622 155.757922,111.6044 155.682922,111.2493 L153.426922,100.5212 C153.341922,100.117 152.947922,99.8587 152.545922,99.9444 C152.503922,99.9534 152.461922,99.9662 152.421922,99.9826 L149.804522,101.0478 C149.470722,101.1836 149.281622,101.541 149.355722,101.8958 L150.009122,105.022 C150.038722,105.1639 149.963122,105.3069 149.829522,105.3612 L148.147722,106.0456 C147.995622,106.1076 147.822322,106.0335 147.760922,105.8803 C147.754322,105.8639 147.749222,105.8471 147.745622,105.8298 L147.168722,103.0691 C147.084222,102.6648 146.690222,102.406 146.288622,102.4912 C146.245822,102.5002 146.203922,102.5131 146.163422,102.5296 Z" id="Path" stroke="none" fill="#8248E5" fill-rule="nonzero"></path>
                        <path d="M186.446922,141.4774 C187.247922,137.1592 189.284922,126.2327 182.392922,125.7272 C180.503922,125.6032 178.819922,127.0856 178.902922,127.3685 C179.262922,128.644 178.054922,124.3491 176.052922,123.3071 C175.397922,122.9567 174.644922,122.837 173.914922,122.9673 C172.851922,123.1993 172.425922,123.9939 172.174922,123.8588 C171.730922,123.6199 169.798922,126.433 165.948922,128.7266 C163.974922,129.9027 161.614922,122.2268 161.181922,123.584 C161.014922,123.3383 160.839922,123.0902 160.658922,122.852 C159.836922,121.6902 158.820922,120.6809 157.655922,119.8693 C154.478922,117.7674 151.928922,120.7121 151.856922,123.7547 C151.794922,126.4552 152.930922,129.1672 153.578922,131.6942 C154.782922,136.3776 155.768922,141.0503 154.541922,145.8503 C154.525922,145.9262 147.484322,173.5632 143.426922,179.6732 C141.960522,181.7862 135.587922,192.1172 133.913022,194.0662 C143.554822,198.8082 159.269922,194.3212 169.923922,195.5632 C178.668922,178.6162 182.916922,160.4386 186.446922,141.4774 Z" id="Path" stroke="none" fill="#0C0830" fill-rule="nonzero"></path>
                        <path d="M164.699922,134.2147 C164.302922,130.379 163.065922,126.6792 161.077922,123.3812" id="Path" stroke="#FFC55A" stroke-width="0.786091" fill="none" stroke-linecap="round"></path>
                        <path d="M171.870922,124.6419 C170.354922,127.2977 168.999922,130.5403 168.922922,133.6409 C168.878922,135.3947 169.221922,137.9247 170.692922,139.1194 C171.874922,140.0768 173.398922,139.7654 174.555922,138.9409 C175.914922,137.9736 176.558922,136.3794 177.036922,134.8374 C177.723922,132.6013 178.290922,130.3226 178.769922,128.031" id="Path" stroke="#FFC55A" stroke-width="0.786091" fill="none" stroke-linecap="round"></path>
                        <path d="M178.769922,128.1408 C177.928922,130.6555 177.359922,133.2538 177.070922,135.891 C176.793922,138.2883 176.404922,141.6606 179.148922,142.794 C184.069922,144.8276 185.957922,136.9323 186.251922,133.6297" id="Path" stroke="#FFC55A" stroke-width="0.786091" fill="none" stroke-linecap="round"></path>
                        <path d="M42.1749617,130.5882 C63.8883217,130.5882 81.4905217,111.0696 81.4905217,86.9921 C81.4905217,62.91464 63.8883217,43.396 42.1749617,43.396 C20.4615217,43.396 2.85942172,62.91464 2.85942172,86.9921 C2.85942172,111.0696 20.4615217,130.5882 42.1749617,130.5882 Z" id="Path" stroke="none" fill="url(#linearGradient-7)" fill-rule="nonzero" opacity="0.589207849"></path>
                        <path d="M290.021922,135.0214 C327.526922,135.0214 357.929922,104.7958 357.929922,67.51069 C357.929922,30.2256 327.526922,0 290.021922,0 C252.516922,0 222.112922,30.2256 222.112922,67.51069 C222.112922,104.7958 252.516922,135.0214 290.021922,135.0214 Z" id="Path" stroke="none" fill="url(#linearGradient-8)" fill-rule="nonzero" opacity="0.539380451"></path>
                        <path d="M0.325821717,164.5579 C-3.05777828,200.0062 20.2966217,231.7622 52.4894317,235.4882 C84.6822217,239.2142 113.522522,213.4982 116.906122,178.0502 C120.289722,142.6019 96.9353217,110.8453 64.7425217,107.1195 C32.5497217,103.3938 3.70942172,129.1098 0.325821717,164.5579 Z" id="Path" stroke="none" fill="url(#linearGradient-9)" fill-rule="nonzero" opacity="0.589207849"></path>
                        <path d="M210.989922,155.8724 C207.729922,186.6472 230.229922,214.2162 261.244922,217.4512 C292.259922,220.6852 320.044922,198.3602 323.304922,167.5856 C326.564922,136.8112 304.064922,109.2415 273.049922,106.007 C242.034922,102.7725 214.249922,125.098 210.989922,155.8724 Z" id="Path" stroke="none" fill="url(#linearGradient-10)" fill-rule="nonzero" opacity="0.539380451"></path>
                    </g>
                </g>
            </g>
            <path d="M112.137,19.937 C111.856,20.3048 111.56,20.7544 111.293,21.2906 C110.649,22.5797 110.459,23.7924 110.404,24.6157 C110.417,23.8835 110.333,22.5437 109.571,21.1759 C109.286,20.6623 108.965,20.2536 108.671,19.937 C109.042,19.4938 109.568,18.7607 109.944,17.7335 C110.314,16.7271 110.395,15.8378 110.404,15.2583 C110.478,15.8979 110.631,16.7207 110.962,17.6336 C111.317,18.6144 111.762,19.3845 112.137,19.937 Z" id="Path" fill="#FDFDFF"></path>
            <path d="M86.2318,38.1011 C85.9505,38.4689 85.6548,38.9184 85.3873,39.4546 C84.7441,40.7437 84.5534,41.9565 84.4987,42.7798 C84.5117,42.0476 84.4278,40.7078 83.6662,39.3399 C83.3805,38.8264 83.0599,38.4177 82.7656,38.1011 C83.1371,37.6579 83.6624,36.9247 84.0391,35.8976 C84.4086,34.8912 84.4896,34.0019 84.4987,33.4224 C84.5725,34.062 84.7259,34.8848 85.0566,35.7977 C85.4118,36.7785 85.8565,37.5486 86.2318,38.1011 Z" id="Path" fill="#FDFDFF"></path>
            <path d="M73.0221,31.0058 C72.5629,31.5903 72.0802,32.3041 71.6439,33.1553 C70.5949,35.2028 70.2834,37.1294 70.1941,38.4365 C70.2151,37.2737 70.0786,35.1462 68.836,32.9729 C68.37,32.1578 67.8464,31.5084 67.3667,31.0058 C67.9726,30.3023 68.8292,29.1377 69.4444,27.5065 C70.0474,25.9074 70.179,24.4951 70.1941,23.5747 C70.3145,24.5912 70.5651,25.8977 71.1043,27.3475 C71.6834,28.9056 72.4093,30.1288 73.0221,31.0058 Z" id="Path" fill="#FDFDFF"></path>
            <path d="M101.556,13.6986 C101.363,13.9656 101.161,14.2916 100.978,14.6805 C100.538,15.6157 100.407,16.4957 100.37,17.0931 C100.378,16.5615 100.321,15.5897 99.8001,14.5972 C99.6046,14.2249 99.3852,13.9282 99.1841,13.6986 C99.4382,13.3771 99.7975,12.8455 100.055,12.1001 C100.308,11.3701 100.364,10.7247 100.37,10.3044 C100.42,10.7686 100.525,11.3656 100.751,12.0277 C100.995,12.7394 101.299,13.2978 101.556,13.6986 Z" id="Path" fill="#8248E5"></path>
            <path d="M78.3872,10.3959 C78.1947,10.6629 77.9921,10.9888 77.8093,11.3778 C77.3693,12.313 77.2387,13.1929 77.2014,13.7904 C77.21,13.2588 77.1529,12.287 76.6317,11.2945 C76.4361,10.9222 76.2167,10.6255 76.0156,10.3959 C76.2697,10.0744 76.629,9.54275 76.8869,8.79734 C77.1399,8.06738 77.1951,7.42196 77.2014,7.00171 C77.2518,7.46586 77.357,8.06291 77.5828,8.725 C77.826,9.43667 78.1301,9.99511 78.3872,10.3959 Z" id="Path" fill="#8248E5"></path>
            <path d="M89.9844,5.36387 C89.7919,5.6309 89.5893,5.95686 89.4064,6.34582 C88.9665,7.28103 88.8359,8.16096 88.7986,8.75843 C88.8072,8.22681 88.7501,7.25502 88.2288,6.2625 C88.0333,5.89021 87.8139,5.59351 87.6128,5.36387 C87.8669,5.04238 88.2262,4.51076 88.4841,3.76536 C88.737,3.0354 88.7923,2.38998 88.7986,1.96973 C88.849,2.43388 88.9542,3.03093 89.1799,3.69301 C89.4232,4.40468 89.7273,4.96313 89.9844,5.36387 Z" id="Path" fill="#8248E5"></path>
        </g>
    </g>
</svg>