<svg width="280" height="214" viewBox="0 0 280 214" fill="none" xmlns="http://www.w3.org/2000/svg">
<g clip-path="url(#clip0)">
<path opacity="0.525154" fill-rule="evenodd" clip-rule="evenodd" d="M214.946 193.405C215.668 201.659 193.457 210.342 165.337 212.802C137.216 215.263 113.834 210.568 113.112 202.315C112.39 194.061 134.601 185.377 162.722 182.916C190.842 180.456 214.223 185.152 214.946 193.405Z" fill="#C7B299"/>
<path d="M125.506 208.092C155.38 216.096 186.087 198.368 194.092 168.494C202.096 138.62 184.368 107.913 154.494 99.9079C124.62 91.9032 93.9127 109.632 85.908 139.506C77.9032 169.38 95.6319 200.087 125.506 208.092Z" fill="#E75A2B" stroke="white" stroke-width="6"/>
<path d="M127.537 152.214L133.901 163.237" stroke="white" stroke-width="7" stroke-linecap="round"/>
<path d="M155.309 145.161L133.854 163.264" stroke="white" stroke-width="7" stroke-linecap="round"/>
<path d="M45.5701 164.505C11.113 150.73 4.5071 132.966 3.28345 129.247C-6.52344 99.4288 28.9002 57.3723 98.6746 40.5049" stroke="#010101" stroke-width="0.77828" stroke-linecap="round" stroke-linejoin="round"/>
<path d="M56.4579 169.696C22.0237 155.928 15.4082 138.144 14.1933 134.418C4.3854 104.62 39.8571 62.5439 109.586 45.6963" stroke="#E45D26" stroke-width="0.77828" stroke-linecap="round" stroke-linejoin="round"/>
<path d="M119.697 5.11603C134.042 1.57414 169.818 -5.13145 201.542 6.04292C204.266 7.00225 204.69 10.85 202.23 12.3756C190.942 19.4794 166.592 35.7965 154.083 51.8493C153.376 52.8012 152.166 53.2826 150.957 53.0928C149.747 52.9029 148.746 52.0745 148.371 50.9526C146.411 45.893 142.544 38.1157 135.056 28.73C129.999 22.4488 124.398 16.5876 118.314 11.21C116.206 9.34225 117.01 5.77798 119.697 5.11603Z" fill="url(#paint0_linear)"/>
<path d="M152.749 16.4924C147.653 17.6541 142.902 19.8935 138.841 23.048C137.052 24.4477 135.496 26.0995 134.224 27.9483C133.518 28.9863 135.131 30.1763 135.838 29.1306C139.399 23.8741 145.562 20.6398 151.676 18.7975L152.334 18.6127L152.406 18.6216L152.617 18.5616L153.045 18.4579C154.301 18.1748 154.01 16.2334 152.743 16.5386L152.749 16.4924Z" fill="#010101"/>
<path d="M125.79 18.1729C121.561 47.4419 123.586 30.2892 141.828 38.2462C136.342 30.1997 133.353 25.7558 125.79 18.1729Z" fill="#E06E26"/>
<path d="M126.154 18.6631C132.478 24.5241 136.705 30.6899 141.828 38.2466C129.242 34.569 137.9 35.351 126.154 18.6631Z" fill="#010101"/>
</g>
<defs>
<linearGradient id="paint0_linear" x1="174.658" y1="39.5925" x2="170.172" y2="9.96263" gradientUnits="userSpaceOnUse">
<stop stop-color="#FFAA0D"/>
<stop offset="1" stop-color="#FFD56E"/>
</linearGradient>
<clipPath id="clip0">
<rect width="280" height="214" fill="white"/>
</clipPath>
</defs>
</svg>
