<svg xmlns="http://www.w3.org/2000/svg" viewBox="0 0 19.9 19.9"><title>ledger-2</title><path d="M16.7,0H7.6V12.3H19.9V3.2A3.2,3.2,0,0,0,16.7,0Z" transform="translate(0 0)" style="fill:#142533"/><path d="M4.8,0H3.2A3.2,3.2,0,0,0,0,3.2H0V4.8H4.8Z" transform="translate(0 0)" style="fill:#142533"/><polygon points="0 7.6 4.8 7.6 4.8 12.3 0 12.3 0 7.6" style="fill:#142533"/><path d="M15.2,19.9h1.6a3.1,3.1,0,0,0,3.1-3.2h0V15.2H15.2Z" transform="translate(0 0)" style="fill:#142533"/><polygon points="7.6 15.2 12.3 15.2 12.3 19.9 7.6 19.9 7.6 15.2" style="fill:#142533"/><path d="M0,15.2v1.6a3.1,3.1,0,0,0,3.2,3.1H4.8V15.2Z" transform="translate(0 0)" style="fill:#142533"/></svg>