<svg xmlns="http://www.w3.org/2000/svg" width="8" height="14" fill="none" viewBox="0 0 8 14">
    <path fill="#081132" stroke="#081132" stroke-width=".4" d="M7.133 6.954c-.01-.148-.07-.29-.17-.4l-4.8-5.333c-.059-.065-.13-.118-.209-.156-.079-.038-.164-.06-.252-.064-.087-.005-.175.008-.257.037-.083.03-.159.074-.224.133-.065.058-.118.13-.156.208-.038.08-.06.165-.064.252-.005.088.008.175.037.258.03.083.074.159.133.224L5.571 7l-4.4 4.887c-.059.066-.104.141-.133.224-.03.083-.042.17-.037.257.005.088.026.174.064.253.038.079.09.15.156.208.065.059.141.104.224.133.082.03.17.042.257.037.088-.005.173-.026.252-.064.08-.038.15-.09.209-.156l4.8-5.333c.06-.066.105-.144.135-.229.03-.084.041-.174.035-.263v0z"/>
</svg>
