<svg xmlns="http://www.w3.org/2000/svg" width="24" height="24" fill="none" viewBox="0 0 24 24">
    <g clip-path="url(#clip0)">
        <path fill="#2B2B2B" d="M6.488 5.755c.584-.617 1.53-.617 2.114 0 .583.617.583 1.616 0 2.233l-3.5 3.696h16.403c.777 0 1.416.627 1.488 1.427l.007.152c0 .873-.67 1.58-1.495 1.58l-16.404-.001 3.5 3.697c.545.575.582 1.485.11 2.105l-.11.128c-.583.617-1.53.617-2.113 0L.438 14.38c-.584-.617-.584-1.616 0-2.233l6.05-6.392z"/>
    </g>
    <defs>
        <clipPath id="clip0">
            <path fill="#fff" d="M0 0H24V24H0z"/>
        </clipPath>
    </defs>
</svg>
