<svg xmlns="http://www.w3.org/2000/svg" width="28" height="28" fill="none" viewBox="0 0 28 28">
    <circle cx="14" cy="14" r="14" fill="#F3F3F8"/>
    <path fill="#E75A2B" fill-rule="evenodd" d="M9.691 7C8.205 7 7 8.205 7 9.691v5.079c0 1.486 1.205 2.691 2.691 2.691h.094C9.864 18.877 11.037 20 12.472 20h4.837C18.795 20 20 18.795 20 17.309v-4.837c0-1.435-1.123-2.608-2.539-2.687v-.094C17.461 8.205 16.256 7 14.77 7H9.69zm7.77 4.11v3.66c0 1.486-1.205 2.691-2.691 2.691h-3.66c.075.686.656 1.219 1.362 1.219h4.837c.757 0 1.37-.614 1.37-1.371v-4.837c0-.705-.532-1.287-1.218-1.362zM8.321 9.69c0-.757.613-1.37 1.37-1.37h5.079c.757 0 1.37.613 1.37 1.37v5.079c0 .757-.613 1.37-1.37 1.37H9.69c-.757 0-1.37-.613-1.37-1.37V9.69z" clip-rule="evenodd"/>
</svg>
