<svg xmlns="http://www.w3.org/2000/svg" width="46" height="46" fill="none" viewBox="0 0 46 46">
    <path fill="#F3F3F8" d="M23 46c12.703 0 23-10.297 23-23S35.703 0 23 0 0 10.297 0 23s10.297 23 23 23z"/>
    <path fill="#888BAA" fill-rule="evenodd" d="M22.88 15c-.737 0-1.334.597-1.334 1.333v5.455h-5.213c-.736 0-1.333.597-1.333 1.333 0 .737.597 1.334 1.333 1.334h5.213v5.212c0 .736.597 1.333 1.333 1.333.737 0 1.334-.597 1.334-1.333v-5.212h5.454c.736 0 1.333-.597 1.333-1.334 0-.736-.597-1.333-1.333-1.333h-5.454v-5.455c0-.736-.597-1.333-1.334-1.333z" clip-rule="evenodd"/>
</svg>
