<svg xmlns="http://www.w3.org/2000/svg" width="100" height="100" fill="none" viewBox="0 0 100 100">
    <g filter="url(#filter0_d)">
        <circle cx="50" cy="47" r="34" fill="#fff"/>
    </g>
    <path fill="#FFA600" fill-rule="evenodd" d="M50 34c-1.38 0-2.5 1.12-2.5 2.5v8h-8c-1.38 0-2.5 1.12-2.5 2.5s1.12 2.5 2.5 2.5h8v8c0 1.38 1.12 2.5 2.5 2.5s2.5-1.12 2.5-2.5v-8h8c1.38 0 2.5-1.12 2.5-2.5s-1.12-2.5-2.5-2.5h-8v-8c0-1.38-1.12-2.5-2.5-2.5z" clip-rule="evenodd"/>
    <defs>
        <filter id="filter0_d" width="100" height="100" x="0" y="0" color-interpolation-filters="sRGB" filterUnits="userSpaceOnUse">
            <feFlood flood-opacity="0" result="BackgroundImageFix"/>
            <feColorMatrix in="SourceAlpha" values="0 0 0 0 0 0 0 0 0 0 0 0 0 0 0 0 0 0 127 0"/>
            <feOffset dy="3"/>
            <feGaussianBlur stdDeviation="8"/>
            <feColorMatrix values="0 0 0 0 0.966667 0 0 0 0 0.919755 0 0 0 0 0.83375 0 0 0 1 0"/>
            <feBlend in2="BackgroundImageFix" result="effect1_dropShadow"/>
            <feBlend in="SourceGraphic" in2="effect1_dropShadow" result="shape"/>
        </filter>
    </defs>
</svg>
