<svg xmlns="http://www.w3.org/2000/svg" width="20" height="22" fill="none" viewBox="0 0 20 22">
    <path fill="#081132" fill-rule="evenodd" d="M10.693 14.876c-.454-.454-1.19-.454-1.643 0l-2.372 2.371V9.538c0-.641-.52-1.162-1.161-1.162-.642 0-1.162.52-1.162 1.162v7.71l-2.372-2.372c-.454-.454-1.19-.454-1.643 0-.454.454-.454 1.19 0 1.643l4.192 4.192c.268.268.635.378.984.328.35.05.717-.06.985-.329l4.192-4.191c.454-.454.454-1.19 0-1.643zm4.952-2.69c0 .641-.52 1.161-1.162 1.161-.641 0-1.161-.52-1.161-1.162V4.476L10.95 6.848c-.454.454-1.19.454-1.643 0-.454-.454-.454-1.19 0-1.643l4.192-4.192c.268-.268.635-.378.984-.329.35-.049.717.06.985.33l4.192 4.19c.453.455.453 1.19 0 1.644-.454.454-1.19.454-1.643 0l-2.372-2.372v7.71z" clip-rule="evenodd"/>
</svg>
