<svg xmlns="http://www.w3.org/2000/svg" width="15" height="15" fill="none" viewBox="0 0 15 15">
    <path fill="#888BAA" fill-rule="evenodd" d="M0 3.86C0 1.727 1.725 0 3.852 0H6.738c.507.016.913.433.913.945s-.406.928-.913.945v.003H3.852c-1.084 0-1.962.88-1.962 1.966v7.282c0 1.086.878 1.966 1.962 1.966h7.269c1.084 0 1.962-.88 1.962-1.966V8.625h.004v-.03c0-.522.421-.945.942-.945.521 0 .944.423.944.945v2.546c0 2.131-1.725 3.859-3.852 3.859H3.852C1.725 15 0 13.272 0 11.14V3.86zm7.573 2.253c-.365.366-.365.96 0 1.326.366.366.958.366 1.324 0l4.231-4.24v1.153c0 .517.42.937.936.937.517 0 .936-.42.936-.937V.977c0-.115-.02-.224-.058-.326-.129-.363-.475-.623-.882-.623h-3.369c-.517 0-.935.42-.935.938s.418.937.935.937h1.084l-4.202 4.21z" clip-rule="evenodd"/>
</svg>
