<svg xmlns="http://www.w3.org/2000/svg" width="20" height="20" fill="none" viewBox="0 0 22 20">
    <path fill="#2B2B2B" d="M5.5 0C3.63 0 2.2 1.3 2.2 3v1H1c-.552 0-1 .448-1 1s.448 1 1 1h1.2v8H1c-.552 0-1 .448-1 1s.448 1 1 1h1.2v1c0 1.7 1.43 3 3.3 3H19c1.657 0 3-1.343 3-3V3c0-1.657-1.343-3-3-3H5.5zm14.3 17c0 .552-.448 1-1 1H5.5c-.66 0-1.1-.4-1.1-1v-1h.1c.552 0 1-.448 1-1s-.448-1-1-1h-.1V6h.1c.552 0 1-.448 1-1s-.448-1-1-1h-.1V3c0-.6.44-1 1.1-1h13.3c.552 0 1 .448 1 1v14z"/>
    <path fill="#2B2B2B" fill-rule="evenodd" d="M12.35 3.65c-1.6 0-2.898 1.299-2.898 2.9 0 1.6 1.298 2.899 2.899 2.899s2.9-1.298 2.9-2.9c0-1.6-1.299-2.899-2.9-2.899zm-1.022 2.9c0-.565.458-1.023 1.023-1.023s1.023.458 1.023 1.023c0 .564-.458 1.022-1.023 1.022s-1.023-.458-1.023-1.022zm2.281 4.204h-2.518l-.124.002h-.005C8.762 10.825 7 12.629 7 14.846v.11l.004.078v.009c.049.473.448.843.934.843.519 0 .939-.42.939-.939v-.098l.001-.096c.049-1.18 1.021-2.123 2.213-2.123h2.515l.096.002c1.18.049 2.122 1.021 2.122 2.213v.111l.004.078.001.009c.048.473.448.843.934.843.518 0 .938-.42.938-.939v-.102l-.002-.124v-.005c-.069-2.2-1.873-3.962-4.09-3.962z" clip-rule="evenodd"/>
</svg>
