<svg xmlns="http://www.w3.org/2000/svg" width="22" height="22" fill="none" viewBox="0 0 22 22">
    <path fill="#7A7C89" d="M20.859 13.968c.6 0 1.081.446 1.136 1.03l.005.11v3.869c-.02 1.598-1.277 2.913-2.843 3l-.163.004h-3.866c-.638 0-1.141-.504-1.141-1.141 0-.6.446-1.082 1.03-1.136l.111-.005h3.866c.362 0 .672-.283.718-.635l.006-.09V15.11c0-.638.503-1.141 1.14-1.141zm-19.718 0c.6 0 1.081.446 1.136 1.03l.005.11v3.867c0 .361.283.672.635.718l.089.006h3.866c.638 0 1.141.503 1.141 1.14 0 .598-.443 1.082-1.013 1.137l-.109.005H3.006c-1.6 0-2.916-1.257-3.002-2.841L0 18.975v-3.866c0-.638.503-1.141 1.141-1.141zM6.891 0c.638 0 1.142.503 1.142 1.141 0 .6-.446 1.081-1.03 1.136l-.111.005H3.006c-.361 0-.672.283-.718.635l-.006.089v3.86c.023.632-.492 1.147-1.121 1.147-.6 0-1.082-.446-1.136-1.03L.02 6.872V3.006C.02 1.406 1.277.09 2.86.004L3.027 0h3.866zm12.083 0c1.6 0 2.916 1.257 3.002 2.841l.004.165v3.866c0 .638-.503 1.141-1.14 1.141-.6 0-1.082-.446-1.137-1.03l-.005-.111V3.006c0-.362-.283-.672-.634-.718l-.09-.006h-3.866c-.637 0-1.14-.503-1.14-1.14 0-.601.445-1.082 1.03-1.137l.11-.005h3.866zM6.892.34l.094.005c.404.045.707.378.707.796 0 .45-.351.802-.801.802H3.006l-.107.005c-.53.055-.956.515-.956 1.058v3.866l-.002.094c-.034.399-.372.708-.78.708-.45 0-.802-.352-.802-.802V3.006l.004-.15C.442 1.456 1.603.34 3.026.34h3.866zm12.082 0l.151.004c1.398.078 2.516 1.24 2.516 2.662v3.866l-.005.095c-.046.404-.379.707-.797.707-.45 0-.801-.352-.801-.802V3.006l-.006-.107c-.055-.531-.514-.956-1.058-.956h-3.866l-.094-.006c-.404-.045-.707-.378-.707-.796 0-.45.351-.801.801-.801h3.866zM17.35 12.04H4.65c-.544 0-.971-.427-.971-.971s.427-.971.971-.971h12.7c.543 0 .97.427.97.971s-.446.971-.97.971z"/>
</svg>
