<svg xmlns="http://www.w3.org/2000/svg" width="16" height="16" fill="none" viewBox="0 0 16 16">
    <path fill="#888BAA" fill-rule="evenodd" d="M12.67 7.586c0 2.794-2.27 5.058-5.068 5.058-2.799 0-5.068-2.264-5.068-5.058 0-2.793 2.269-5.057 5.068-5.057 2.799 0 5.068 2.264 5.068 5.057zm-.68 6.196c-1.24.876-2.754 1.39-4.388 1.39C3.403 15.173 0 11.777 0 7.587S3.403 0 7.602 0c4.198 0 7.602 3.397 7.602 7.586 0 1.648-.527 3.173-1.42 4.417l.053.05 1.792 1.788c.495.494.495 1.295 0 1.789-.495.493-1.297.493-1.792 0l-1.792-1.789c-.019-.019-.038-.038-.055-.059z" clip-rule="evenodd"/>
</svg>
