<svg xmlns="http://www.w3.org/2000/svg" width="100" height="100" fill="none" viewBox="0 0 100 100">
    <g filter="url(#filter0_d)">
        <circle cx="50" cy="47" r="34" fill="#fff"/>
    </g>
    <path fill="#FFA600" fill-rule="evenodd" d="M61.707 36.487c-.914-3.024-4.106-4.735-7.13-3.82l-18.561 5.611c-1.683.509-3.013 1.805-3.565 3.475-.936 2.832.6 5.887 3.433 6.823l7.827 2.588c.802.265 1.471.826 1.872 1.57l3.907 7.259c.833 1.548 2.368 2.594 4.114 2.803 2.962.354 5.65-1.76 6.005-4.721l2.303-19.253c.093-.785.024-1.58-.205-2.335zm-5.909.221c.792-.239 1.628.209 1.868 1 .06.199.078.407.053.612l-2.303 19.253c-.077.646-.664 1.108-1.31 1.03-.382-.045-.717-.273-.898-.611l-3.907-7.26c-.113-.208-.235-.411-.366-.607l2.766-3.299c.75-.893.633-2.225-.26-2.974-.893-.75-2.225-.633-2.974.26l-2.768 3.297c-.216-.095-.437-.18-.663-.254l-7.827-2.588c-.618-.204-.954-.87-.75-1.489.121-.364.412-.647.779-.758l18.56-5.612z" clip-rule="evenodd"/>
    <defs>
        <filter id="filter0_d" width="100" height="100" x="0" y="0" color-interpolation-filters="sRGB" filterUnits="userSpaceOnUse">
            <feFlood flood-opacity="0" result="BackgroundImageFix"/>
            <feColorMatrix in="SourceAlpha" values="0 0 0 0 0 0 0 0 0 0 0 0 0 0 0 0 0 0 127 0"/>
            <feOffset dy="3"/>
            <feGaussianBlur stdDeviation="8"/>
            <feColorMatrix values="0 0 0 0 0.966667 0 0 0 0 0.919755 0 0 0 0 0.83375 0 0 0 1 0"/>
            <feBlend in2="BackgroundImageFix" result="effect1_dropShadow"/>
            <feBlend in="SourceGraphic" in2="effect1_dropShadow" result="shape"/>
        </filter>
    </defs>
</svg>
