<svg xmlns="http://www.w3.org/2000/svg" width="46" height="46" fill="none" viewBox="0 0 46 46">
    <path fill="#F3F3F8" d="M23 46c12.703 0 23-10.297 23-23S35.703 0 23 0 0 10.297 0 23s10.297 23 23 23z"/>
    <path fill="#888BAA" fill-rule="evenodd" d="M29.486 16.702c-.498-1.648-2.237-2.58-3.884-2.082l-10.636 3.216c-.914.276-1.636.98-1.936 1.887-.509 1.538.326 3.198 1.864 3.706l4.485 1.482c.499.165.915.515 1.164.977l2.24 4.16c.452.84 1.285 1.408 2.234 1.522 1.608.192 3.068-.956 3.26-2.564l1.32-11.032c.051-.428.014-.86-.11-1.272zm-3.278-.075c.54-.163 1.108.142 1.271.681.041.135.053.277.037.416l-1.32 11.033c-.055.458-.471.786-.93.731-.27-.032-.509-.194-.638-.434l-2.239-4.16c-.081-.15-.171-.296-.27-.434l1.664-1.984c.372-.444.315-1.105-.129-1.477-.443-.372-1.105-.314-1.477.129l-1.665 1.983c-.153-.073-.312-.136-.475-.19l-4.485-1.483c-.438-.145-.677-.618-.532-1.057.086-.259.292-.46.553-.538l10.635-3.216z" clip-rule="evenodd"/>
</svg>
