<svg width="28" height="31" viewBox="0 0 28 31" fill="none" xmlns="http://www.w3.org/2000/svg">
<path fill-rule="evenodd" clip-rule="evenodd" d="M27.5103 7.77148C27.5103 6.66691 26.6148 5.77148 25.5103 5.77148H7.73918C3.46825 5.77148 4.95911e-05 9.22868 4.95911e-05 13.5007C4.95911e-05 14.6052 0.895479 15.5007 2.00005 15.5007C3.10462 15.5007 4.00005 14.6052 4.00005 13.5007C4.00005 11.4444 5.67084 9.77148 7.73918 9.77148H25.5103C26.6148 9.77148 27.5103 8.87605 27.5103 7.77148Z" fill="#FFA600"/>
<path fill-rule="evenodd" clip-rule="evenodd" d="M26.9424 9.1675C27.7134 8.37653 27.6973 7.11031 26.9063 6.33931L22.0083 1.565C21.2174 0.794003 19.9511 0.81019 19.1801 1.60116C18.4091 2.39213 18.4253 3.65835 19.2163 4.42935L24.1142 9.20366C24.9052 9.97466 26.1714 9.95847 26.9424 9.1675Z" fill="#FFA600"/>
<path fill-rule="evenodd" clip-rule="evenodd" d="M26.9424 6.3746C26.1714 5.58363 24.9052 5.56744 24.1142 6.33844L19.2163 11.1127C18.4253 11.8837 18.4091 13.15 19.1801 13.9409C19.9511 14.7319 21.2173 14.7481 22.0083 13.9771L26.9063 9.20279C27.6972 8.43179 27.7134 7.16556 26.9424 6.3746Z" fill="#FFA600"/>
<path fill-rule="evenodd" clip-rule="evenodd" d="M0.489807 24.2246C0.489807 25.3292 1.38524 26.2246 2.48981 26.2246L20.2609 26.2246C24.5318 26.2246 28 22.7674 28 18.4954C28 17.3909 27.1046 16.4954 26 16.4954C24.8954 16.4954 24 17.3909 24 18.4954C24 20.5517 22.3292 22.2246 20.2609 22.2246L2.48981 22.2246C1.38524 22.2246 0.489807 23.12 0.489807 24.2246Z" fill="#FFA600"/>
<path fill-rule="evenodd" clip-rule="evenodd" d="M1.05762 22.8286C0.28662 23.6196 0.302807 24.8858 1.09378 25.6568L5.99174 30.4311C6.7827 31.2021 8.04893 31.1859 8.81993 30.3949C9.59093 29.604 9.57474 28.3377 8.78377 27.5667L3.88582 22.7924C3.09485 22.0214 1.82862 22.0376 1.05762 22.8286Z" fill="#FFA600"/>
<path fill-rule="evenodd" clip-rule="evenodd" d="M1.05763 25.6215C1.82863 26.4125 3.09486 26.4287 3.88583 25.6577L8.78379 20.8833C9.57476 20.1123 9.59094 18.8461 8.81994 18.0552C8.04894 17.2642 6.78272 17.248 5.99175 18.019L1.09379 22.7933C0.302819 23.5643 0.286631 24.8305 1.05763 25.6215Z" fill="#FFA600"/>
</svg>
