<svg width="188" height="144" viewBox="0 0 188 144" fill="none" xmlns="http://www.w3.org/2000/svg">
<path opacity="0.31066" fill-rule="evenodd" clip-rule="evenodd" d="M162.338 122.533C162.338 132.638 134.193 140.827 99.476 140.827C64.7575 140.827 36.6128 132.638 36.6128 122.533C36.6128 112.428 64.7575 104.237 99.476 104.237C134.193 104.237 162.338 112.428 162.338 122.533Z" fill="#C7B299"/>
<path fill-rule="evenodd" clip-rule="evenodd" d="M104.244 15.0517C104.244 12.5944 103.044 10.2975 103.044 10.2975C107.95 12.5944 110.946 18.1246 111.344 19.3238C119.493 43.8829 127.534 68.3219 134.144 93.2557C135.66 98.9773 138.064 108.063 140.114 117.257C141.237 122.298 129.529 119.264 126.918 118.042C123.816 116.592 122.442 112.082 121.276 108.977C119.381 103.93 118.332 99.6917 116.412 94.6077C116.217 94.0915 115.487 93.8615 114.516 93.5042C112.537 92.776 109.751 91.8432 106.388 90.7653C101.779 89.2883 98.9721 88.4668 95.5161 87.601L100.924 46.3239C103.137 27.114 104.244 16.6899 104.244 15.0517Z" fill="#FFA600"/>
<path fill-rule="evenodd" clip-rule="evenodd" d="M84.7799 139.088C84.1384 143.282 82.2047 144.169 78.3948 143.281C74.585 142.394 72.9813 141.789 70.3216 140.737C68.9098 140.178 67.2113 139.451 66.558 137.995C65.94 136.618 66.4194 134.547 66.558 133.042C67.0562 127.667 67.5533 122.294 68.0515 116.92C68.2442 114.831 68.4028 112.574 67.31 110.787C66.524 109.499 65.1997 108.652 63.8814 107.927C60.1754 105.884 56.1452 104.437 51.9904 103.654C50.7343 103.417 49.3419 103.266 48.2621 103.951C47.1306 104.668 46.6864 106.078 46.3245 107.371C44.9709 112.215 43.6109 117.054 42.2614 121.903C40.9553 126.597 40.9553 129.847 35.6424 128.424C34.5162 128.122 33.0334 127.709 31.9049 127.327C29.5484 126.529 25.902 125.099 25.5907 123.752C25.2546 122.298 25.7983 120.022 26.1615 118.306C29.4882 102.585 33.1164 87.2451 37.1526 72.3223C41.2098 57.3238 46.3245 40.9081 50.4288 28.6481C52.1273 23.5745 54.2134 18.8588 56.0641 13.8586C60.0943 2.96987 63.8814 1.18036 70.5154 1.69298C75.6194 2.08736 84.3347 3.85079 92.2815 5.82893C94.6638 6.42194 95.1556 6.69306 97.2817 7.29356C99.6362 7.95855 102.09 10.0614 101.458 16.6063C101.444 16.997 91.2472 96.8115 84.7799 139.088Z" fill="#FFBB3C"/>
<path d="M70.4824 66.0812L52.2389 61.5068C51.6091 61.3489 50.9719 61.7323 50.8155 62.3631C50.6591 62.9938 51.0428 63.6332 51.6725 63.7911L69.9161 68.3654C70.5458 68.5233 71.1831 68.14 71.3394 67.5092C71.4958 66.8785 71.1121 66.2391 70.4824 66.0812Z" fill="#2B2B2B"/>
<path d="M65.3565 72.0958L50.5333 68.3785C49.9036 68.2206 49.2663 68.6039 49.1099 69.2348C48.9535 69.8657 49.3372 70.5051 49.967 70.663L64.7902 74.3803C65.4199 74.5383 66.0572 74.1549 66.2136 73.524C66.3699 72.8931 65.9862 72.2537 65.3565 72.0958Z" fill="#2B2B2B"/>
<path d="M79.0377 75.5211L71.0554 73.5185C70.4256 73.3605 69.7883 73.7441 69.6319 74.3753C69.4755 75.0064 69.8592 75.6462 70.489 75.8042L78.4714 77.8068C79.1011 77.9648 79.7385 77.5812 79.8949 76.95C80.0513 76.3189 79.6675 75.6791 79.0377 75.5211Z" fill="#2B2B2B"/>
<path d="M80.7428 68.6484L76.181 67.5036C75.5511 67.3455 74.9137 67.7293 74.7573 68.3607C74.6009 68.9921 74.9847 69.6322 75.6145 69.7902L80.1763 70.935C80.8062 71.0931 81.4436 70.7093 81.6 70.0779C81.7564 69.4465 81.3726 68.8065 80.7428 68.6484Z" fill="#2B2B2B"/>
<path fill-rule="evenodd" clip-rule="evenodd" d="M72.2358 33.8376C72.6601 33.6856 73.1157 33.666 73.545 33.762C73.9743 33.858 74.3787 34.0699 74.699 34.3884C74.9948 34.6826 75.2161 35.068 75.3235 35.5307L79.3537 52.9062C79.5499 53.7524 79.2723 54.5565 78.7346 55.1018C78.1968 55.6472 77.3987 55.9338 76.5538 55.7449L61.5405 52.3892C60.6962 52.2008 60.0949 51.6011 59.8383 50.8782C59.5815 50.1552 59.6693 49.3086 60.2045 48.6259L71.1883 34.606C71.4808 34.2326 71.8438 33.9779 72.2358 33.8376Z" fill="#E18424" stroke="#2B2B2B" stroke-width="2"/>
</svg>
