<svg width="20" height="30" viewBox="0 0 20 30" fill="none" xmlns="http://www.w3.org/2000/svg">
<path fill-rule="evenodd" clip-rule="evenodd" d="M19.0764 8.29754C19.8573 9.0449 19.8573 10.2585 19.0764 11.0059C18.298 11.7508 17.0377 11.7508 16.2593 11.0059L11.9943 6.92212L11.9938 19.7246C11.9938 20.7227 11.1991 21.5366 10.1911 21.6288L10.1865 21.6292L9.99956 21.6376C8.90235 21.6376 8.0053 20.7852 8.0053 19.7246L8.00617 6.92209L3.73988 11.0059C3.01312 11.7014 1.86692 11.7473 1.08464 11.145L1.08038 11.1417L0.922597 11.006C0.141696 10.2586 0.141796 9.0449 0.922697 8.29754L8.59098 0.958642C9.3694 0.213655 10.6297 0.213655 11.4082 0.958642L19.0764 8.29754ZM3.30621 29.6401C2.19473 29.6401 1.2937 28.7391 1.2937 27.6276C1.2937 26.5162 2.19473 25.6151 3.30621 25.6151H16.6938C17.8052 25.6151 18.7063 26.5161 18.7063 27.6276C18.7063 28.7391 17.8052 29.6401 16.6938 29.6401H3.30621Z" fill="#FFA600"/>
<path d="M19.0764 11.0059L18.9727 10.8975H18.9727L19.0764 11.0059ZM19.0764 8.29754L18.9727 8.40591L19.0764 8.29754ZM16.2593 11.0059L16.1555 11.1142L16.1555 11.1142L16.2593 11.0059ZM11.9943 6.92212L12.098 6.81378L11.8443 6.57083L11.8443 6.92212L11.9943 6.92212ZM11.9938 19.7246L11.8438 19.7246V19.7246H11.9938ZM10.1911 21.6288L10.2047 21.7782L10.2048 21.7782L10.1911 21.6288ZM10.1865 21.6292L10.1933 21.7792L10.2002 21.7786L10.1865 21.6292ZM9.99956 21.6376V21.7878L10.0063 21.7874L9.99956 21.6376ZM8.0053 19.7246L7.8553 19.7246V19.7246H8.0053ZM8.00617 6.92209L8.15617 6.9221L8.15619 6.57085L7.90244 6.81374L8.00617 6.92209ZM3.73988 11.0059L3.8436 11.1142L3.84361 11.1142L3.73988 11.0059ZM1.08464 11.145L1.17615 11.0261L1.17614 11.0261L1.08464 11.145ZM1.08038 11.1417L0.982403 11.2556L0.988882 11.2606L1.08038 11.1417ZM0.922597 11.006L0.818739 11.1145L0.824763 11.1197L0.922597 11.006ZM0.922697 8.29754L0.818984 8.18917L0.922697 8.29754ZM8.59098 0.958642L8.69469 1.06701V1.06701L8.59098 0.958642ZM11.4082 0.958642L11.5119 0.850275L11.4082 0.958642ZM1.2937 27.6276H1.4437H1.2937ZM19.1801 11.1142C20.0228 10.3078 20.0228 8.9956 19.1801 8.18917L18.9727 8.40591C19.6919 9.0942 19.6919 10.2092 18.9727 10.8975L19.1801 11.1142ZM16.1555 11.1142C16.992 11.9147 18.3437 11.9147 19.1801 11.1142L18.9727 10.8975C18.2523 11.587 17.0834 11.587 16.363 10.8975L16.1555 11.1142ZM11.8906 7.03046L16.1555 11.1142L16.363 10.8975L12.098 6.81378L11.8906 7.03046ZM12.1438 19.7246L12.1443 6.92213L11.8443 6.92212L11.8438 19.7246L12.1438 19.7246ZM10.2048 21.7782C11.2837 21.6795 12.1438 20.8063 12.1438 19.7246H11.8438C11.8438 20.639 11.1144 21.3937 10.1774 21.4794L10.2048 21.7782ZM10.2002 21.7786L10.2047 21.7782L10.1775 21.4794L10.1729 21.4798L10.2002 21.7786ZM10.0063 21.7874L10.1933 21.779L10.1798 21.4793L9.99283 21.4878L10.0063 21.7874ZM7.8553 19.7246C7.8553 20.8742 8.82586 21.7876 9.99956 21.7876V21.4876C8.97883 21.4876 8.1553 20.6961 8.1553 19.7246H7.8553ZM7.85617 6.92208L7.8553 19.7246L8.1553 19.7246L8.15617 6.9221L7.85617 6.92208ZM3.84361 11.1142L8.10989 7.03045L7.90244 6.81374L3.63616 10.8975L3.84361 11.1142ZM0.993135 11.2639C1.83309 11.9105 3.06233 11.8619 3.8436 11.1142L3.63617 10.8975C2.96391 11.5409 1.90076 11.584 1.17615 11.0261L0.993135 11.2639ZM0.988882 11.2606L0.993142 11.2639L1.17614 11.0261L1.17188 11.0229L0.988882 11.2606ZM0.824763 11.1197L0.982548 11.2554L1.17822 11.028L1.02043 10.8923L0.824763 11.1197ZM0.818984 8.18917C-0.0236226 8.99558 -0.0237431 10.3079 0.818884 11.1143L1.02631 10.8976C0.307136 10.2093 0.307214 9.09421 1.02641 8.40591L0.818984 8.18917ZM8.48726 0.850274L0.818984 8.18917L1.02641 8.40591L8.69469 1.06701L8.48726 0.850274ZM11.5119 0.850275C10.6754 0.0497778 9.32369 0.0497777 8.48726 0.850274L8.69469 1.06701C9.41511 0.377532 10.584 0.377533 11.3044 1.06701L11.5119 0.850275ZM19.1801 8.18917L11.5119 0.850275L11.3044 1.06701L18.9727 8.40591L19.1801 8.18917ZM1.1437 27.6276C1.1437 28.8219 2.11189 29.7901 3.30621 29.7901V29.4901C2.27757 29.4901 1.4437 28.6563 1.4437 27.6276H1.1437ZM3.30621 25.4651C2.11189 25.4651 1.1437 26.4333 1.1437 27.6276H1.4437C1.4437 26.599 2.27757 25.7651 3.30621 25.7651V25.4651ZM16.6938 25.4651H3.30621V25.7651H16.6938V25.4651ZM18.8563 27.6276C18.8563 26.4333 17.8881 25.4651 16.6938 25.4651V25.7651C17.7224 25.7651 18.5563 26.599 18.5563 27.6276H18.8563ZM16.6938 29.7901C17.8881 29.7901 18.8563 28.8219 18.8563 27.6276H18.5563C18.5563 28.6563 17.7224 29.4901 16.6938 29.4901V29.7901ZM3.30621 29.7901H16.6938V29.4901H3.30621V29.7901Z" fill="#FFA600"/>
</svg>
