<svg xmlns="http://www.w3.org/2000/svg" width="46" height="46" fill="none" viewBox="0 0 46 46">
    <path fill="#F3F3F8" d="M23 46c12.703 0 23-10.297 23-23S35.703 0 23 0 0 10.297 0 23s10.297 23 23 23z"/>
    <path fill="#888BAA" fill-rule="evenodd" d="M28.652 19.547c.464-.445.464-1.165 0-1.61l-4.812-4.604c-.464-.444-1.216-.444-1.68 0l-4.812 4.605c-.464.444-.464 1.164 0 1.609l.097.082c.466.36 1.15.332 1.584-.082l2.783-2.664v8.18c0 .628.532 1.137 1.188 1.137l.114-.005c.603-.055 1.075-.541 1.075-1.133v-8.18l2.782 2.665c.464.444 1.217.444 1.68 0zM17.6 29.8c0 .663.537 1.2 1.2 1.2h8.4c.662 0 1.2-.537 1.2-1.2 0-.663-.538-1.2-1.2-1.2h-8.4c-.663 0-1.2.537-1.2 1.2z" clip-rule="evenodd"/>
</svg>
