<svg xmlns="http://www.w3.org/2000/svg" width="100" height="100" fill="none" viewBox="0 0 100 100">
    <g filter="url(#filter0_d)">
        <circle cx="50" cy="47" r="34" fill="#fff"/>
    </g>
    <path fill="#FFA600" fill-rule="evenodd" d="M59.076 39.297c.781.748.781 1.962 0 2.709-.778.745-2.038.745-2.817 0l-4.265-4.084v12.803c0 .998-.795 1.812-1.803 1.904h-.005l-.186.009c-1.098 0-1.995-.853-1.995-1.913l.001-12.803-4.266 4.084c-.727.695-1.873.741-2.655.139l-.005-.003-.157-.136c-.781-.747-.781-1.961 0-2.709l7.668-7.338c.778-.745 2.039-.745 2.817 0l7.668 7.338zM43.306 60.64c-1.111 0-2.012-.9-2.012-2.012s.9-2.013 2.012-2.013h13.388c1.111 0 2.012.901 2.012 2.013 0 1.111-.9 2.012-2.012 2.012H43.306z" clip-rule="evenodd"/>
    <path fill="#FFA600" d="M59.076 42.006l-.103-.108.103.108zm0-2.709l-.103.109.103-.108zm-2.817 2.709l-.103.108.103-.108zm-4.265-4.084l.104-.108-.254-.243v.351h.15zm0 12.803h-.15.15zm-1.803 1.904l.014.15-.014-.15zm-.005 0l.007.15h.007l-.014-.15zm-.186.009v.15h.006l-.006-.15zm-1.995-1.913h-.15.15zm.001-12.803h.15v-.351l-.254.243.104.108zm-4.266 4.084l.104.108-.104-.108zm-2.655.139l.091-.119-.091.119zm-.005-.003l-.098.114.007.005.091-.12zm-.157-.136l-.104.108.006.006.098-.114zm0-2.709l-.104-.108.104.108zm7.668-7.338l.104.108-.104-.108zm2.817 0l.104-.109-.104.109zM41.294 58.628h.15-.15zM59.18 42.114c.843-.806.843-2.118 0-2.925l-.207.217c.719.688.719 1.803 0 2.492l.207.216zm-3.024 0c.836.8 2.188.8 3.024 0l-.207-.216c-.72.689-1.89.689-2.61 0l-.207.216zm-4.265-4.083l4.265 4.083.207-.216-4.265-4.084-.207.217zm.253 12.694V37.922h-.3v12.803h.3zm-1.94 2.053c1.08-.099 1.94-.972 1.94-2.053h-.3c0 .914-.73 1.669-1.667 1.754l.028.3zm-.004 0h.005l-.027-.299h-.005l.027.3zm-.194.01l.187-.009-.013-.3-.187.009.013.3zm-2.15-2.063c0 1.15.97 2.063 2.144 2.063v-.3c-1.021 0-1.845-.792-1.845-1.763h-.3zm0-12.803v12.803h.3V37.922h-.3zm-4.012 4.192l4.266-4.083-.208-.217-4.266 4.084.208.216zm-2.85.15c.84.646 2.068.598 2.85-.15l-.208-.216c-.672.643-1.735.686-2.46.128l-.183.238zm-.005-.003l.004.003.183-.238-.004-.003-.183.238zm-.164-.141l.157.135.196-.227-.158-.136-.195.228zm-.006-2.93c-.843.806-.843 2.118 0 2.924l.207-.216c-.719-.689-.719-1.804 0-2.492l-.207-.217zm7.668-7.34l-7.668 7.34.207.216 7.669-7.339-.208-.217zm3.025 0c-.837-.8-2.188-.8-3.025 0l.208.217c.72-.69 1.889-.69 2.61 0l.207-.217zm7.668 7.34l-7.668-7.34-.208.217 7.669 7.339.207-.217zM41.144 58.627c0 1.194.968 2.162 2.162 2.162v-.3c-1.028 0-1.862-.834-1.862-1.862h-.3zm2.162-2.163c-1.194 0-2.162.968-2.162 2.163h.3c0-1.029.834-1.863 1.862-1.863v-.3zm13.388 0H43.306v.3h13.388v-.3zm2.162 2.163c0-1.195-.968-2.163-2.162-2.163v.3c1.028 0 1.862.834 1.862 1.863h.3zm-2.162 2.162c1.194 0 2.162-.968 2.162-2.162h-.3c0 1.028-.834 1.862-1.862 1.862v.3zm-13.388 0h13.388v-.3H43.306v.3z"/>
    <defs>
        <filter id="filter0_d" width="100" height="100" x="0" y="0" color-interpolation-filters="sRGB" filterUnits="userSpaceOnUse">
            <feFlood flood-opacity="0" result="BackgroundImageFix"/>
            <feColorMatrix in="SourceAlpha" values="0 0 0 0 0 0 0 0 0 0 0 0 0 0 0 0 0 0 127 0"/>
            <feOffset dy="3"/>
            <feGaussianBlur stdDeviation="8"/>
            <feColorMatrix values="0 0 0 0 0.966667 0 0 0 0 0.919755 0 0 0 0 0.83375 0 0 0 1 0"/>
            <feBlend in2="BackgroundImageFix" result="effect1_dropShadow"/>
            <feBlend in="SourceGraphic" in2="effect1_dropShadow" result="shape"/>
        </filter>
    </defs>
</svg>
