<svg width="143" height="39" viewBox="0 0 143 39" fill="none" xmlns="http://www.w3.org/2000/svg">
<path d="M8.47271 2.24414L40.3627 24.7553L32.4759 36.8085L0.585938 14.1201L8.47271 2.24414Z" fill="url(#paint0_linear)"/>
<path d="M40.3625 24.7518C37.6192 28.8286 28.3608 27.2334 19.6168 20.8522C10.7013 14.6484 5.90069 6.31746 8.47247 2.24064C11.2157 -1.83619 20.4741 -0.240911 29.2181 6.14021C38.1336 12.1668 42.9342 20.675 40.3625 24.7518Z" fill="url(#paint1_linear)"/>
<path d="M32.4739 36.6244C29.7307 40.7012 20.4723 39.1059 11.7282 32.7248C2.98422 26.3437 -1.98788 18.19 0.755347 13.9359C3.49857 9.85912 12.757 11.4544 21.501 17.8355C30.245 24.2166 35.0457 32.5475 32.4739 36.6244Z" fill="url(#paint2_linear)"/>
<path d="M40.3588 24.7501L32.4721 36.8033C29.7288 40.8801 20.4705 39.1076 11.7264 32.9037C10.0119 31.6629 8.46885 30.4222 6.92578 29.0041C8.12594 28.8269 9.66901 28.1179 11.2121 26.3453C13.9553 23.332 15.3269 22.623 16.5271 22.8003C17.7272 22.8003 19.0988 24.041 21.3277 27.0544C23.5566 30.0677 26.6427 30.9539 28.5287 29.3586C28.7001 29.1814 28.8716 29.1814 29.043 29.0041C30.5861 27.7634 31.1005 27.2316 34.0151 21.5595C34.7009 20.1415 37.1013 17.8372 40.3588 18.9007C41.2161 21.205 41.2161 23.1548 40.3588 24.7501Z" fill="#0E0F23"/>
<path fill-rule="evenodd" clip-rule="evenodd" d="M39.1573 24.0459C36.757 27.591 28.3558 25.8184 20.2976 19.9691C12.0679 14.1197 7.2673 6.67506 9.66763 3.12999C12.0679 -0.415075 20.4691 1.35746 28.5273 7.20682C36.5855 13.0562 41.3862 20.5008 39.1573 24.0459ZM31.6134 18.7283C30.4133 20.5008 26.2984 19.6146 22.1836 16.7785C18.2402 13.9424 15.8399 10.2201 17.04 8.44759C18.2402 6.67506 22.355 7.56133 26.4699 10.3974C30.4133 13.2334 32.8136 16.9558 31.6134 18.7283Z" fill="white"/>
<path d="M7.78639 6.30927C7.78639 6.13201 7.61494 5.95476 7.44349 6.13201C7.27204 6.30927 7.10059 6.30927 7.10059 6.48652C7.27204 7.01828 7.44349 7.37279 7.44349 7.72729C7.44349 7.90455 7.61494 8.0818 7.78639 7.90455C7.95784 7.90455 8.1293 7.72729 7.95784 7.55004C7.95784 7.19553 7.95784 6.84103 7.78639 6.30927Z" fill="white"/>
<path d="M8.64131 9.14716C8.64131 8.96991 8.46986 8.79265 8.2984 8.96991C8.12695 9.14716 8.12695 9.14716 8.12695 9.32441C10.0129 13.7557 13.9563 18.5416 19.0999 22.0867C19.2713 22.2639 19.4428 22.0867 19.6142 22.0867C19.7857 21.9094 19.6142 21.7321 19.6142 21.5549C14.2992 18.0098 10.5273 13.4012 8.64131 9.14716Z" fill="white"/>
<path d="M29.3878 26.5254C29.2164 26.5254 29.0449 26.5254 29.0449 26.7026C29.0449 26.8799 29.0449 27.0571 29.2164 27.0571C29.7307 27.2344 30.4165 27.4117 30.9309 27.5889C31.1023 27.5889 31.2738 27.5889 31.2738 27.4117C31.2738 27.2344 31.2738 27.0571 31.1023 27.0571C30.588 26.8799 29.9022 26.7026 29.3878 26.5254Z" fill="white"/>
<path d="M32.4757 27.2324C32.3043 27.2324 32.1328 27.4097 32.1328 27.5869C32.1328 27.7642 32.3043 27.9414 32.4757 27.9414C33.8473 28.1187 35.3904 28.2959 36.5906 28.1187C36.762 28.1187 36.9335 27.9414 36.9335 27.7642C36.9335 27.5869 36.762 27.4097 36.5906 27.4097C35.2189 27.5869 33.8473 27.4097 32.4757 27.2324Z" fill="white"/>
<path d="M61.1534 32.4321C59.3054 32.4321 57.6734 32.1201 56.2574 31.4961C54.8414 30.8481 53.7254 29.9361 52.9094 28.7601C52.0934 27.5601 51.6734 26.1081 51.6494 24.4041H56.5094C56.5574 25.5801 56.9774 26.5761 57.7694 27.3921C58.5854 28.1841 59.7014 28.5801 61.1174 28.5801C62.3414 28.5801 63.3134 28.2921 64.0334 27.7161C64.7534 27.1161 65.1134 26.3241 65.1134 25.3401C65.1134 24.3081 64.7894 23.5041 64.1414 22.9281C63.5174 22.3521 62.6774 21.8841 61.6214 21.5241C60.5654 21.1641 59.4374 20.7801 58.2374 20.3721C56.2934 19.7001 54.8054 18.8361 53.7734 17.7801C52.7654 16.7241 52.2614 15.3201 52.2614 13.5681C52.2374 12.0801 52.5854 10.8081 53.3054 9.75208C54.0494 8.67208 55.0574 7.84408 56.3294 7.26808C57.6014 6.66808 59.0654 6.36808 60.7214 6.36808C62.4014 6.36808 63.8774 6.66808 65.1494 7.26808C66.4454 7.86808 67.4534 8.70808 68.1734 9.78808C68.9174 10.8681 69.3134 12.1521 69.3614 13.6401H64.4294C64.4054 12.7521 64.0574 11.9721 63.3854 11.3001C62.7374 10.6041 61.8254 10.2561 60.6494 10.2561C59.6414 10.2321 58.7894 10.4841 58.0934 11.0121C57.4214 11.5161 57.0854 12.2601 57.0854 13.2441C57.0854 14.0841 57.3494 14.7561 57.8774 15.2601C58.4054 15.7401 59.1254 16.1481 60.0374 16.4841C60.9494 16.8201 61.9934 17.1801 63.1694 17.5641C64.4174 17.9961 65.5574 18.5001 66.5894 19.0761C67.6214 19.6521 68.4494 20.4201 69.0734 21.3801C69.6974 22.3161 70.0094 23.5281 70.0094 25.0161C70.0094 26.3361 69.6734 27.5601 69.0014 28.6881C68.3294 29.8161 67.3334 30.7281 66.0134 31.4241C64.6934 32.0961 63.0734 32.4321 61.1534 32.4321Z" fill="#2B2B2B"/>
<path d="M80.6179 32.4321C78.3859 32.4321 76.6579 31.7361 75.4339 30.3441C74.2339 28.9521 73.6339 26.9121 73.6339 24.2241V14.1441H78.2059V23.7921C78.2059 25.3281 78.5179 26.5041 79.1419 27.3201C79.7659 28.1361 80.7499 28.5441 82.0939 28.5441C83.3659 28.5441 84.4099 28.0881 85.2259 27.1761C86.0659 26.2641 86.4859 24.9921 86.4859 23.3601V14.1441H91.0939V32.0001H87.0259L86.6659 28.9761C86.1139 30.0321 85.3099 30.8721 84.2539 31.4961C83.2219 32.1201 82.0099 32.4321 80.6179 32.4321Z" fill="#2B2B2B"/>
<path d="M103.204 32.4321C101.62 32.4321 100.228 32.1801 99.0282 31.6761C97.8282 31.1481 96.8682 30.4281 96.1482 29.5161C95.4282 28.6041 94.9962 27.5481 94.8522 26.3481H99.4962C99.6402 27.0441 100.024 27.6441 100.648 28.1481C101.296 28.6281 102.124 28.8681 103.132 28.8681C104.14 28.8681 104.872 28.6641 105.328 28.2561C105.808 27.8481 106.048 27.3801 106.048 26.8521C106.048 26.0841 105.712 25.5681 105.04 25.3041C104.368 25.0161 103.432 24.7401 102.232 24.4761C101.464 24.3081 100.684 24.1041 99.8922 23.8641C99.1002 23.6241 98.3682 23.3241 97.6962 22.9641C97.0482 22.5801 96.5202 22.1001 96.1122 21.5241C95.7042 20.9241 95.5002 20.1921 95.5002 19.3281C95.5002 17.7441 96.1242 16.4121 97.3722 15.3321C98.6442 14.2521 100.42 13.7121 102.7 13.7121C104.812 13.7121 106.492 14.2041 107.74 15.1881C109.012 16.1721 109.768 17.5281 110.008 19.2561H105.652C105.388 17.9361 104.392 17.2761 102.664 17.2761C101.8 17.2761 101.128 17.4441 100.648 17.7801C100.192 18.1161 99.9642 18.5361 99.9642 19.0401C99.9642 19.5681 100.312 19.9881 101.008 20.3001C101.704 20.6121 102.628 20.9001 103.78 21.1641C105.028 21.4521 106.168 21.7761 107.2 22.1361C108.256 22.4721 109.096 22.9881 109.72 23.6841C110.344 24.3561 110.656 25.3281 110.656 26.6001C110.68 27.7041 110.392 28.7001 109.792 29.5881C109.192 30.4761 108.328 31.1721 107.2 31.6761C106.072 32.1801 104.74 32.4321 103.204 32.4321Z" fill="#2B2B2B"/>
<path d="M114.738 32.0001V6.08008H119.346V16.8801C119.946 15.8961 120.75 15.1281 121.758 14.5761C122.79 14.0001 123.966 13.7121 125.286 13.7121C127.494 13.7121 129.198 14.4081 130.398 15.8001C131.622 17.1921 132.234 19.2321 132.234 21.9201V32.0001H127.662V22.3521C127.662 20.8161 127.35 19.6401 126.726 18.8241C126.126 18.0081 125.166 17.6001 123.846 17.6001C122.55 17.6001 121.47 18.0561 120.606 18.9681C119.766 19.8801 119.346 21.1521 119.346 22.7841V32.0001H114.738Z" fill="#2B2B2B"/>
<path d="M139.125 11.3721C138.285 11.3721 137.589 11.1201 137.037 10.6161C136.509 10.1121 136.245 9.47608 136.245 8.70808C136.245 7.94008 136.509 7.31608 137.037 6.83608C137.589 6.33208 138.285 6.08008 139.125 6.08008C139.965 6.08008 140.649 6.33208 141.177 6.83608C141.729 7.31608 142.005 7.94008 142.005 8.70808C142.005 9.47608 141.729 10.1121 141.177 10.6161C140.649 11.1201 139.965 11.3721 139.125 11.3721ZM136.821 32.0001V14.1441H141.429V32.0001H136.821Z" fill="#2B2B2B"/>
<defs>
<linearGradient id="paint0_linear" x1="14.7208" y1="-0.956523" x2="21.444" y2="21.3746" gradientUnits="userSpaceOnUse">
<stop stop-color="#03B8FF"/>
<stop offset="1" stop-color="#FA52A0"/>
</linearGradient>
<linearGradient id="paint1_linear" x1="19.9285" y1="-2.52819" x2="26.6519" y2="19.8031" gradientUnits="userSpaceOnUse">
<stop stop-color="#03B8FF"/>
<stop offset="1" stop-color="#FA52A0"/>
</linearGradient>
<linearGradient id="paint2_linear" x1="9.52681" y1="0.599585" x2="16.2502" y2="22.9309" gradientUnits="userSpaceOnUse">
<stop stop-color="#03B8FF"/>
<stop offset="1" stop-color="#FA52A0"/>
</linearGradient>
</defs>
</svg>
